SplineFontDB: 3.2
FontName: D-DIN-PRO-Exp-Heavy-Italic
FullName: D-DIN-PRO-Exp-Heavy-Italic
FamilyName: D-DIN-PRO-Exp
Weight: Heavy
Copyright: Copyright (c) CyberFei. All rights reserved
Version: 1.1.0
ItalicAngle: -13
UnderlinePosition: -150
UnderlineWidth: 50
Ascent: 831
Descent: 169
InvalidEm: 0
sfntRevision: 0x00010000
LayerCount: 2
Layer: 0 0 "Back" 1
Layer: 1 0 "Fore" 0
XUID: [1021 868 -1451673819 2114]
StyleMap: 0x0020
FSType: 4
OS2Version: 4
OS2_WeightWidthSlopeOnly: 1
OS2_UseTypoMetrics: 0
CreationTime: 1462909513
ModificationTime: 1778060080
PfmFamily: 17
TTFWeight: 900
TTFWidth: 7
LineGap: 0
VLineGap: 0
Panose: 2 11 8 4 2 2 2 3 2 4
OS2TypoAscent: 831
OS2TypoAOffset: 0
OS2TypoDescent: -169
OS2TypoDOffset: 0
OS2TypoLinegap: 86
OS2WinAscent: 902
OS2WinAOffset: 0
OS2WinDescent: 184
OS2WinDOffset: 0
HheadAscent: 902
HheadAOffset: 0
HheadDescent: -184
HheadDOffset: 0
OS2SubXSize: 650
OS2SubYSize: 600
OS2SubXOff: 0
OS2SubYOff: 75
OS2SupXSize: 650
OS2SupYSize: 600
OS2SupXOff: 0
OS2SupYOff: 350
OS2StrikeYSize: 50
OS2StrikeYPos: 312
OS2CapHeight: 690
OS2XHeight: 520
OS2Vendor: 'MONO'
OS2CodePages: 00000001.00000000
OS2UnicodeRanges: 8000006f.4000000a.00000000.00000000
Lookup: 1 0 0 "'rtla' Right to Left Alternates lookup 0" { "'rtla' Right to Left Alternates lookup 0 subtable"  } ['rtla' ('DFLT' <'dflt' > ) ]
Lookup: 1 0 0 "'sups' Superscript lookup 1" { "'sups' Superscript lookup 1 subtable" ("superior") } ['sups' ('DFLT' <'dflt' > ) ]
Lookup: 4 0 0 "'frac' Diagonal Fractions lookup 2" { "'frac' Diagonal Fractions lookup 2 subtable"  } ['frac' ('DFLT' <'dflt' > ) ]
Lookup: 258 0 0 "'kern' Horizontal Kerning in Latin lookup 0" { "'kern' Horizontal Kerning in Latin lookup 0 subtable"  } ['kern' ('DFLT' <'dflt' > 'latn' <'dflt' > ) ]
Lookup: 258 0 0 "Pairwise Positioning (kerning) lookup 1" { "Pairwise Positioning (kerning) lookup 1 subtable"  } []
Lookup: 258 0 0 "Pairwise Positioning (kerning) lookup 2" { "Pairwise Positioning (kerning) lookup 2 subtable"  } []

StartChar: .notdef
Encoding: 65536 -1 0
Width: 604
GlyphClass: 1
Flags: MW
HStem: 0.0742188 61.4395<96.8838 383.924 96.8838 431.18> 629.834 61.4404<228.091 515.131 228.091 228.091>
VStem: 104.782 61.4395 453.262 61.4404
LayerCount: 2
Fore
SplineSet
180.8359375 691.274414062 m 1
 590.755859375 691.274414062 l 1
 431.1796875 0.07421875 l 1
 21.259765625 0.07421875 l 1
 180.8359375 691.274414062 l 1
96.8837890625 61.513671875 m 1
 383.923828125 61.513671875 l 1
 515.130859375 629.833984375 l 1
 228.090820312 629.833984375 l 1
 96.8837890625 61.513671875 l 1
EndSplineSet
EndChar

StartChar: exclam
Encoding: 33 33 4
Width: 264
GlyphClass: 2
Flags: MW
HStem: 0.0742188 153.6<16.4004 135.499 -19.0605 170.96> 671.274 20G<134.944 300.646 300.646 300.646>
VStem: 64.4619 154.56 83.4336 116.617
LayerCount: 2
Fore
SplineSet
300.646484375 691.274414062 m 1xd0
 167.50390625 220.874023438 l 1
 50.88671875 220.874023438 l 1
 134.944335938 691.274414062 l 1
 300.646484375 691.274414062 l 1xd0
16.400390625 153.673828125 m 1xe0
 170.959960938 153.673828125 l 1
 135.499023438 0.07421875 l 1
 -19.060546875 0.07421875 l 1
 16.400390625 153.673828125 l 1xe0
EndSplineSet
EndChar

StartChar: quotedbl
Encoding: 34 34 5
Width: 406
GlyphClass: 2
Flags: MW
HStem: 376.394 314.881<120.355 188.779 47.6592 261.476 243.499 243.499 243.499 261.476 316.195 383.659>
VStem: 44.3018 141.12 240.142 140.16
LayerCount: 2
Fore
SplineSet
120.35546875 691.274414062 m 1
 261.475585938 691.274414062 l 1
 188.779296875 376.393554688 l 1
 47.6591796875 376.393554688 l 1
 120.35546875 691.274414062 l 1
316.1953125 691.274414062 m 1
 456.35546875 691.274414062 l 1
 383.659179688 376.393554688 l 1
 243.499023438 376.393554688 l 1
 316.1953125 691.274414062 l 1
EndSplineSet
EndChar

StartChar: numbersign
Encoding: 35 35 6
Width: 606
GlyphClass: 2
Flags: MW
HStem: 0.0742188 21G<14.4268 142.36 14.4268 14.4268 220.826 349.721 220.826 220.826> 195.914 117.12<13.8311 85.5596 -13.208 127.98 255.93 291.959 13.8311 213.493 463.142 532.072> 389.834 117.12<85.4814 156.185 58.4424 198.594 85.4814 284.134 326.52 362.584 532.92 603.723> 671.274 20G<265.147 393.073 393.073 393.073 471.548 599.474 599.474 599.474>
LayerCount: 2
Fore
SplineSet
630.76171875 506.954101562 m 1
 603.72265625 389.833984375 l 1
 490.647460938 389.833984375 l 1
 463.141601562 313.034179688 l 1
 559.111328125 313.034179688 l 1
 532.072265625 195.9140625 l 1
 420.853515625 195.9140625 l 1
 349.720703125 0.07421875 l 1
 220.826171875 0.07421875 l 1
 291.958984375 195.9140625 l 1
 213.493164062 195.9140625 l 1
 142.360351562 0.07421875 l 1
 14.4267578125 0.07421875 l 1
 85.5595703125 195.9140625 l 1
 -13.2080078125 195.9140625 l 1
 13.8310546875 313.034179688 l 1
 127.98046875 313.034179688 l 1
 156.184570312 389.833984375 l 1
 58.4423828125 389.833984375 l 1
 85.4814453125 506.954101562 l 1
 198.59375 506.954101562 l 1
 265.147460938 691.274414062 l 1
 393.073242188 691.274414062 l 1
 326.51953125 506.954101562 l 1
 404.994140625 506.954101562 l 1
 471.547851562 691.274414062 l 1
 599.473632812 691.274414062 l 1
 532.919921875 506.954101562 l 1
 630.76171875 506.954101562 l 1
334.379882812 313.034179688 m 1
 362.583984375 389.833984375 l 1
 284.133789062 389.833984375 l 1
 255.9296875 313.034179688 l 1
 334.379882812 313.034179688 l 1
EndSplineSet
EndChar

StartChar: dollar
Encoding: 36 36 7
Width: 540
GlyphClass: 2
Flags: MW
HStem: -57.5254 216.96<184.972 237.4 123.16 250.524> 538.633 200.641<307.117 334.18>
VStem: 50.0625 144.959 219.98 114.24 373.583 145.919
LayerCount: 2
Fore
SplineSet
356.426757812 411.770507812 m 2
 410.93359375 403.767578125 522.719726562 375.787109375 488.94921875 229.513671875 c 0
 475.989257812 173.375 447.640625 126.692382812 403.864257812 91.9814453125 c 0
 363.529296875 60 314.583007812 40.46484375 258.1875 32.515625 c 1
 237.400390625 -57.525390625 l 1
 123.16015625 -57.525390625 l 1
 143.705078125 31.4658203125 l 1
 92.041015625 38.9560546875 52.9873046875 58.619140625 28.232421875 91.2255859375 c 0
 -11.5625 143.641601562 0.2568359375 207.755859375 7.4541015625 246.794921875 c 1
 145.684570312 246.794921875 l 1
 140.7890625 201.642578125 136.212890625 159.434570312 233.731445312 159.434570312 c 0
 267.31640625 159.434570312 292.450195312 165.754882812 309.465820312 176.030273438 c 0
 325.935546875 185.977539062 336.131835938 199.6328125 341.036132812 220.875 c 0
 348.932617188 255.076171875 339.4609375 275.538085938 289.983398438 281.450195312 c 2
 219.9765625 291.080078125 l 2
 165.211914062 298.571289062 41.5361328125 324.919921875 75.583984375 472.39453125 c 0
 87.6474609375 524.649414062 113.916015625 568.852539062 154.344726562 602.8359375 c 0
 191.646484375 634.19140625 237.083984375 653.803710938 289.3671875 662.387695312 c 1
 307.1171875 739.2734375 l 1
 421.357421875 739.2734375 l 1
 403.890625 663.6171875 l 1
 436.424804688 658.576171875 561.241210938 635.896484375 536.075195312 475.389648438 c 2
 533.6484375 459.913085938 l 1
 392.7265625 459.913085938 l 1
 396.23046875 485.744140625 399.09765625 506.884765625 381.895507812 522.254882812 c 0
 370.567382812 532.375976562 349.96484375 538.6328125 318.395507812 538.6328125 c 0
 275.771484375 538.6328125 233.034179688 526.500976562 222.537109375 481.033203125 c 0
 217.049804688 457.266601562 219.827148438 432.013671875 283.969726562 422.33203125 c 0
 284.03515625 422.323242188 356.426757812 411.770507812 356.426757812 411.770507812 c 2
EndSplineSet
EndChar

StartChar: percent
Encoding: 37 37 8
Width: 975
GlyphClass: 2
Flags: MW
HStem: -5.68457 114.24<711.786 726.776 711.786 756.436> 253.514 114.241<206.186 221.177 206.186 250.836> 324.555 113.281<761.721 776.13> 583.755 113.279<256.122 270.531>
VStem: 51.9814 127.681 243.021 127.681 617.422 127.68 808.462 127.68
LayerCount: 2
Fore
SplineSet
186.330078125 253.513671875 m 0xdf
 109.076171875 253.513671875 34.525390625 286.23828125 66.642578125 425.354492188 c 2
 91.4658203125 532.875 l 2
 106.5390625 598.166015625 152.219726562 697.034179688 290.645507812 697.034179688 c 0
 373.280273438 697.034179688 439.622070312 660.375 410.186523438 532.874023438 c 2
 385.36328125 425.354492188 l 2
 366.130859375 342.049804688 315.342773438 253.513671875 186.330078125 253.513671875 c 0xdf
860.0703125 696.075195312 m 1
 254.747070312 0.0751953125 l 1
 123.64453125 0.0751953125 l 1
 727.966796875 696.075195312 l 1
 860.0703125 696.075195312 l 1
258.791015625 430.15625 m 2
 279.625 520.395507812 l 2
 285.90234375 547.5859375 286.473632812 565.649414062 284.0234375 573.5625 c 0
 282.1015625 579.767578125 277.530273438 583.754882812 263.532226562 583.754882812 c 0
 248.7109375 583.754882812 241.673828125 579.541992188 236.69140625 573.302734375 c 0
 230.431640625 565.4609375 222.534179688 547.55078125 216.264648438 520.39453125 c 2
 195.431640625 430.155273438 l 2
 189.157226562 402.978515625 188.8828125 385.270507812 191.48828125 377.875 c 0
 193.572265625 371.96484375 198.70703125 367.754882812 213.665039062 367.754882812 c 0
 228.688476562 367.754882812 235.032226562 371.93359375 239.133789062 377.340820312 c 0
 244.864257812 384.895507812 252.502929688 402.91796875 258.791015625 430.15625 c 2
691.9296875 -5.6845703125 m 0
 614.674804688 -5.6845703125 540.125 27.0400390625 572.2421875 166.15625 c 2
 597.065429688 273.67578125 l 2
 612.138671875 338.967773438 657.818359375 437.8359375 796.245117188 437.8359375 c 0xbf
 878.879882812 437.8359375 945.220703125 401.177734375 915.78515625 273.67578125 c 2
 890.961914062 166.15625 l 2
 871.729492188 82.8515625 820.94140625 -5.6845703125 691.9296875 -5.6845703125 c 0
764.390625 170.955078125 m 2
 785.223632812 261.1953125 l 2
 791.501953125 288.38671875 792.072265625 306.44921875 789.62109375 314.362304688 c 0
 787.69921875 320.567382812 783.12890625 324.5546875 769.131835938 324.5546875 c 0
 754.309570312 324.5546875 747.272460938 320.341796875 742.291015625 314.102539062 c 0
 736.033203125 306.265625 728.133789062 288.353515625 721.864257812 261.196289062 c 2
 701.030273438 170.956054688 l 2
 694.755859375 143.779296875 694.481445312 126.071289062 697.087890625 118.67578125 c 0
 699.170898438 112.765625 704.306640625 108.555664062 719.264648438 108.555664062 c 0
 734.288085938 108.555664062 740.630859375 112.734375 744.733398438 118.142578125 c 0
 750.463867188 125.696289062 758.102539062 143.717773438 764.390625 170.955078125 c 2
EndSplineSet
EndChar

StartChar: ampersand
Encoding: 38 38 9
Width: 668
GlyphClass: 2
Flags: MW
HStem: -13.3672 131.521<205.018 226.239> 0.0732422 131.52<453.954 577.703 542.184 547.34> 583.753 120.961<354.11 363.941>
VStem: 51.9824 142.079 110.542 140.161 358.223 138.239
LayerCount: 2
Fore
SplineSet
535.502929688 530.954101562 m 0xac
 518.958007812 459.291992188 467.768554688 410.612304688 372.497070312 355.122070312 c 1
 434.083007812 257.135742188 l 1
 541.266601562 352.668945312 l 1
 616.51171875 266.09375 l 1
 495.783203125 158.565429688 l 1
 508.604492188 139.65625 517.038085938 131.592773438 542.18359375 131.592773438 c 2
 577.703125 131.592773438 l 1
 547.33984375 0.0732421875 l 1
 481.100585938 0.0732421875 l 2x6c
 426.806640625 0.0732421875 401.534179688 20.298828125 377.91796875 56.3896484375 c 1
 332.3359375 22.80078125 270.162109375 -13.3671875 182.31640625 -13.3671875 c 0
 116.33203125 -13.3671875 66.8134765625 4.9814453125 36.498046875 43.0341796875 c 0
 6.4140625 80.796875 -1.4736328125 130.306640625 12.12109375 189.193359375 c 0xb4
 32.5244140625 277.569335938 93.421875 335.455078125 178.279296875 384.696289062 c 1
 147.88671875 441.061523438 137.82421875 480.020507812 149.583007812 530.954101562 c 0
 161.462890625 582.4140625 189.546875 625.47265625 233.09375 657.427734375 c 0
 276.40625 689.211914062 326.521484375 704.713867188 381.698242188 704.713867188 c 0
 437.509765625 704.713867188 480.915039062 689.055664062 509.802734375 656.942382812 c 0
 538.772460938 624.73828125 547.258789062 581.875976562 535.502929688 530.954101562 c 0xac
354.733398438 583.752929688 m 0
 345.46875 583.752929688 301.876953125 583.506835938 290.8515625 535.75390625 c 0
 284.885742188 509.913085938 293.299804688 485.950195312 312.96875 451.923828125 c 1
 360.724609375 478.611328125 390.588867188 502.043945312 397.927734375 533.833007812 c 0
 401.612304688 549.79296875 399.401367188 561.00390625 392.0390625 569.946289062 c 0
 384.751953125 578.798828125 373.149414062 583.752929688 354.733398438 583.752929688 c 0
238.768554688 284.284179688 m 1
 185.549804688 252.38671875 163.060546875 227.569335938 155.30859375 193.994140625 c 0
 149.483398438 168.762695312 152.69140625 151.084960938 163.352539062 138.228515625 c 0
 174.08984375 125.278320312 191.594726562 118.154296875 218.44140625 118.154296875 c 0xb4
 256.19140625 118.154296875 286.90625 134.129882812 317.55859375 156.021484375 c 1
 238.768554688 284.284179688 l 1
EndSplineSet
EndChar

StartChar: quotesingle
Encoding: 39 39 10
Width: 209
GlyphClass: 2
Flags: MW
HStem: 376.394 314.881<120.355 188.779 47.6592 261.476>
VStem: 44.3018 141.12
LayerCount: 2
Fore
SplineSet
120.35546875 691.274414062 m 1
 261.475585938 691.274414062 l 1
 188.779296875 376.393554688 l 1
 47.6591796875 376.393554688 l 1
 120.35546875 691.274414062 l 1
EndSplineSet
EndChar

StartChar: parenleft
Encoding: 40 40 11
Width: 335
GlyphClass: 2
Flags: MW
VStem: 51.9814 146.881
LayerCount: 2
Fore
SplineSet
44.701171875 330.315429688 m 0
 98.1494140625 561.825195312 236.069335938 695.28125 282.03515625 739.274414062 c 1
 401.671875 739.274414062 l 1
 361.859375 691.358398438 313.237304688 632.83984375 264.54296875 534.020507812 c 0
 232.0234375 468.026367188 207.630859375 399.83203125 191.360351562 329.354492188 c 0
 175.97265625 262.704101562 145.970703125 101.612304688 203.427734375 -58.8740234375 c 2
 211.193359375 -80.56640625 l 1
 91.587890625 -80.56640625 l 1
 65.5244140625 -32.6923828125 -7.1513671875 105.717773438 44.701171875 330.315429688 c 0
EndSplineSet
Substitution2: "'rtla' Right to Left Alternates lookup 0 subtable" parenright
EndChar

StartChar: parenright
Encoding: 41 41 12
Width: 335
GlyphClass: 2
Flags: MW
VStem: 156.622 146.88
LayerCount: 2
Fore
SplineSet
149.120117188 329.354492188 m 0
 172.486328125 430.564453125 187.946289062 577.1015625 136.127929688 717.48046875 c 2
 128.084960938 739.274414062 l 1
 247.833007812 739.274414062 l 1
 275.794921875 689.538085938 347.767578125 553.586914062 296.221679688 330.315429688 c 0
 244.40234375 105.860351562 107.981445312 -32.4970703125 59.6162109375 -80.56640625 c 1
 -60.94921875 -80.56640625 l 1
 -21.7744140625 -32.77734375 26.2744140625 25.8369140625 75.4873046875 124.749023438 c 0
 108.313476562 190.725585938 132.853515625 258.897460938 149.120117188 329.354492188 c 0
EndSplineSet
Substitution2: "'rtla' Right to Left Alternates lookup 0 subtable" parenleft
EndChar

StartChar: asterisk
Encoding: 42 42 13
Width: 423
GlyphClass: 2
Flags: MW
HStem: 373.514 317.761<249.955 271.634 176.594 344.995>
VStem: 173.901 95.04
LayerCount: 2
Fore
SplineSet
271.633789062 373.513671875 m 1
 176.59375 373.513671875 l 1
 197.096679688 462.3203125 l 1
 101.307617188 418.59765625 l 1
 77.66796875 495.80859375 l 1
 160.844726562 533.833984375 l 1
 95.2255859375 571.859375 l 1
 154.439453125 648.969726562 l 1
 230.290039062 606.094726562 l 1
 249.955078125 691.274414062 l 1
 344.995117188 691.274414062 l 1
 325.157226562 605.34765625 l 1
 421.15234375 649.1640625 l 1
 443.416015625 571.763671875 l 1
 360.60546875 533.905273438 l 1
 427.240234375 495.771484375 l 1
 366.66015625 418.737304688 l 1
 291.939453125 461.465820312 l 1
 271.633789062 373.513671875 l 1
EndSplineSet
EndChar

StartChar: plus
Encoding: 43 43 14
Width: 535
GlyphClass: 2
Flags: MW
HStem: 210.314 138.239<50.832 172.518 18.917 204.433 342.673 463.397 50.832 310.758>
VStem: 207.502 138.24
LayerCount: 2
Fore
SplineSet
310.7578125 210.314453125 m 1
 275.295898438 56.7138671875 l 1
 137.055664062 56.7138671875 l 1
 172.517578125 210.314453125 l 1
 18.9169921875 210.314453125 l 1
 50.83203125 348.553710938 l 1
 204.432617188 348.553710938 l 1
 239.893554688 502.154296875 l 1
 378.133789062 502.154296875 l 1
 342.672851562 348.553710938 l 1
 495.3125 348.553710938 l 1
 463.397460938 210.314453125 l 1
 310.7578125 210.314453125 l 1
EndSplineSet
EndChar

StartChar: comma
Encoding: 44 44 15
Width: 209
GlyphClass: 2
Flags: MW
HStem: -172.091 332.484<-78.9678 138.912>
VStem: 44.3018 141.12
LayerCount: 2
Fore
SplineSet
-2.2080078125 160.393554688 m 1
 138.912109375 160.393554688 l 1
 89.7197265625 -52.681640625 l 1
 -78.9677734375 -172.090820312 l 1
 -2.2080078125 160.393554688 l 1
EndSplineSet
EndChar

StartChar: hyphen
Encoding: 45 45 16
Width: 410
GlyphClass: 2
Flags: MW
HStem: 276.554 139.2<64.4258 357.729 32.2891 389.866>
VStem: 51.9814 325.44
LayerCount: 2
Fore
SplineSet
64.42578125 415.75390625 m 1
 389.866210938 415.75390625 l 1
 357.729492188 276.553710938 l 1
 32.2890625 276.553710938 l 1
 64.42578125 415.75390625 l 1
EndSplineSet
EndChar

StartChar: period
Encoding: 46 46 17
Width: 230
GlyphClass: 2
Flags: MW
HStem: 0.0742188 165.12<-1.09961 123.02 -39.2207 161.141>
VStem: 44.3018 162.24
LayerCount: 2
Fore
SplineSet
-1.099609375 165.194335938 m 1
 161.140625 165.194335938 l 1
 123.01953125 0.07421875 l 1
 -39.220703125 0.07421875 l 1
 -1.099609375 165.194335938 l 1
EndSplineSet
EndChar

StartChar: slash
Encoding: 47 47 18
Width: 453
GlyphClass: 2
Flags: MW
HStem: -9.52637 21G<-39.7178 90.6572 -39.7178 -39.7178> 676.074 20G<372.396 503.771 503.771 503.771>
LayerCount: 2
Fore
SplineSet
503.771484375 696.07421875 m 1
 90.6572265625 -9.5263671875 l 1
 -39.7177734375 -9.5263671875 l 1
 372.395507812 696.07421875 l 1
 503.771484375 696.07421875 l 1
EndSplineSet
EndChar

StartChar: zero
Encoding: 48 48 19
Width: 569
GlyphClass: 2
Flags: MW
HStem: -10.4863 138.24<227.989 259.773 227.989 319.379> 562.635 139.199<328.355 359.832>
VStem: 60.6221 155.52 380.302 154.561
LayerCount: 2
Fore
SplineSet
211.78125 -10.486328125 m 0
 88.17578125 -10.486328125 -12.62890625 44.564453125 34.0595703125 246.793945312 c 2
 81.4892578125 452.234375 l 2
 94.2353515625 507.443359375 144.438476562 701.833984375 376.233398438 701.833984375 c 0
 451.729492188 701.833984375 609.130859375 683.541992188 555.729492188 452.234375 c 2
 508.299804688 246.793945312 l 2
 487.598632812 157.12890625 426.977539062 -10.486328125 211.78125 -10.486328125 c 0
356.176757812 257.354492188 m 2
 396.958007812 433.995117188 l 2
 408.346679688 483.327148438 408.336914062 517.067382812 400.250976562 535.421875 c 0
 392.513671875 552.983398438 375.56640625 562.634765625 344.096679688 562.634765625 c 0
 312.614257812 562.634765625 291.458984375 552.990234375 275.963867188 535.541992188 c 0
 259.647460938 517.166015625 244.19140625 483.34765625 232.797851562 433.995117188 c 2
 192.016601562 257.354492188 l 2
 180.625 208.012695312 180.399414062 174.000976562 188.21875 155.249023438 c 0
 195.625976562 137.484375 212.280273438 127.75390625 243.697265625 127.75390625 c 0
 275.848632812 127.75390625 297.298828125 137.57421875 312.830078125 155.249023438 c 0
 329.30859375 174.000976562 344.78515625 208.012695312 356.176757812 257.354492188 c 2
EndSplineSet
EndChar

StartChar: one
Encoding: 49 49 20
Width: 390
GlyphClass: 2
Flags: MW
HStem: 0.0742188 21G<99.9795 254.539 99.9795 99.9795> 671.274 20G<270.014 414.115 414.115 414.115>
VStem: 183.502 154.56
LayerCount: 2
Fore
SplineSet
60.1455078125 438.79296875 m 1
 97.724609375 601.564453125 l 1
 270.013671875 691.274414062 l 1
 414.115234375 691.274414062 l 1
 254.5390625 0.07421875 l 1
 99.9794921875 0.07421875 l 1
 220.104492188 520.393554688 l 1
 60.1455078125 438.79296875 l 1
EndSplineSet
Substitution2: "'sups' Superscript lookup 1 subtable" uni00B9
EndChar

StartChar: two
Encoding: 50 50 21
Width: 549
GlyphClass: 2
Flags: MW
HStem: 0.0742188 139.2<226.109 436.939> 566.473 135.361<329.332 352.338>
VStem: 55.8213 148.8 363.98 155.521
LayerCount: 2
Fore
SplineSet
363.751953125 701.833984375 m 0
 510.811523438 701.833984375 578.5390625 617.56640625 551.671875 501.194335938 c 2
 548.791015625 488.713867188 l 2
 534.713867188 427.7421875 501.040039062 372.295898438 419.268554688 302.989257812 c 2
 226.109375 139.274414062 l 1
 469.076171875 139.274414062 l 1
 436.939453125 0.07421875 l 1
 -23.8603515625 0.07421875 l 1
 3.8251953125 119.9921875 l 1
 108.595703125 209.861328125 212.3125 301.069335938 318.12890625 389.610351562 c 0
 365.893554688 429.577148438 385.372070312 454.506835938 393.047851562 487.752929688 c 2
 395.485351562 498.313476562 l 2
 406.909179688 547.796875 374.094726562 566.47265625 330.58203125 566.47265625 c 0
 312.919921875 566.47265625 251.215820312 563.674804688 236.791015625 501.193359375 c 2
 229.919921875 471.432617188 l 1
 81.1201171875 471.432617188 l 1
 89.7646484375 508.873046875 l 2
 103.149414062 566.850585938 135.223632812 614.84375 185.075195312 649.974609375 c 0
 234.872070312 685.068359375 294.912109375 701.833984375 363.751953125 701.833984375 c 0
EndSplineSet
Substitution2: "'sups' Superscript lookup 1 subtable" uni00B2
EndChar

StartChar: three
Encoding: 51 51 22
Width: 561
GlyphClass: 2
Flags: MW
HStem: -10.4863 135.36<202.269 239.243> 288.073 135.359<239.959 260.548 208.708 290.839> 566.473 135.36<330.683 363.526>
VStem: 55.8213 145.92 362.061 152.641 373.581 152.641
LayerCount: 2
Fore
SplineSet
442.704101562 368.201171875 m 1xf8
 473.732421875 349.373046875 513.444335938 306.504882812 492.123046875 214.154296875 c 2
 488.577148438 198.793945312 l 2
 473.922851562 135.317382812 440.337890625 83.2119140625 388.21484375 45.3779296875 c 0
 336.301757812 7.6953125 274.384765625 -10.486328125 204.100585938 -10.486328125 c 0
 131.083007812 -10.486328125 76.7431640625 5.3857421875 43.2705078125 39.345703125 c 0
 9.615234375 73.4912109375 0.6708984375 122.967773438 14.8525390625 184.393554688 c 2
 20.615234375 209.354492188 l 1
 166.53515625 209.354492188 l 1
 161.4375 187.274414062 l 2
 152.69140625 149.390625 171.106445312 124.874023438 233.430664062 124.874023438 c 0
 261.84375 124.874023438 320.399414062 131.497070312 336.158203125 199.752929688 c 2
 339.482421875 214.153320312 l 2xf4
 347.497070312 248.866210938 345.5625 288.073242188 260.547851562 288.073242188 c 2
 208.708007812 288.073242188 l 1
 239.958984375 423.432617188 l 1
 290.838867188 423.432617188 l 2
 344.211914062 423.432617188 380.836914062 443.178710938 391.791992188 490.6328125 c 2
 394.452148438 502.153320312 l 2
 401.328125 531.938476562 395.509765625 566.47265625 331.541992188 566.47265625 c 0
 287.823242188 566.47265625 249.340820312 551.396484375 238.194335938 503.11328125 c 2
 232.875 480.073242188 l 1
 88.875 480.073242188 l 1
 94.1943359375 503.11328125 l 2
 108.620117188 565.596679688 139.732421875 615.891601562 187.973632812 650.788085938 c 0
 235.969726562 685.508789062 295.693359375 701.833007812 365.671875 701.833007812 c 0
 434.377929688 701.833007812 486.456054688 685.9765625 519.84765625 652.528320312 c 0
 553.375 618.942382812 563.205078125 571.942382812 549.973632812 514.6328125 c 2
 547.092773438 502.153320312 l 2
 541.827148438 479.344726562 523.319335938 412.943359375 442.704101562 368.201171875 c 1xf8
EndSplineSet
Substitution2: "'sups' Superscript lookup 1 subtable" uni00B3
EndChar

StartChar: four
Encoding: 52 52 23
Width: 582
GlyphClass: 2
Flags: MW
HStem: 0.0742188 21G<262.22 416.779 262.22 262.22> 105.674 139.2<183.169 286.6 473.296 501.64 183.169 441.159> 671.274 20G<338.774 499.349 499.349 499.349>
VStem: 345.742 154.56
LayerCount: 2
Fore
SplineSet
473.295898438 244.874023438 m 1
 533.776367188 244.874023438 l 1
 501.639648438 105.673828125 l 1
 441.159179688 105.673828125 l 1
 416.779296875 0.07421875 l 1
 262.219726562 0.07421875 l 1
 286.599609375 105.673828125 l 1
 -13.880859375 105.673828125 l 1
 15.681640625 233.725585938 l 1
 338.774414062 691.274414062 l 1
 499.348632812 691.274414062 l 1
 183.168945312 244.874023438 l 1
 318.736328125 244.874023438 l 1
 354.640625 400.393554688 l 1
 509.200195312 400.393554688 l 1
 473.295898438 244.874023438 l 1
EndSplineSet
EndChar

StartChar: five
Encoding: 53 53 24
Width: 552
GlyphClass: 2
Flags: MW
HStem: -10.4863 135.36<217.855 234.448> 333.194 131.52<270.263 367.694> 554.954 136.32<254.004 542.964 254.004 254.004>
VStem: 72.1416 137.28 365.901 152.641
LayerCount: 2
Fore
SplineSet
338.452148438 242.954101562 m 2
 350.560546875 295.403320312 338.513671875 333.194335938 278.646484375 333.194335938 c 0
 261.87890625 333.194335938 221.075195312 329.174804688 193.810546875 292.947265625 c 2
 187.974609375 285.194335938 l 1
 54.4443359375 285.194335938 l 1
 148.1953125 691.274414062 l 1
 574.435546875 691.274414062 l 1
 542.963867188 554.954101562 l 1
 254.00390625 554.954101562 l 1
 227.668945312 440.887695312 l 1
 261.266601562 456.854492188 297.533203125 464.713867188 335.889648438 464.713867188 c 0
 399.498046875 464.713867188 446.764648438 445.865234375 474.609375 406.92578125 c 0
 502.40234375 368.05859375 507.546875 314.225585938 492.201171875 247.75390625 c 2
 483.779296875 211.274414062 l 2
 468.052734375 143.15625 434.979492188 87.8798828125 384.04296875 48.1943359375 c 0
 333.112304688 8.513671875 270.555664062 -10.486328125 198.340820312 -10.486328125 c 0
 132.12890625 -10.486328125 81.3359375 5.107421875 47.8798828125 37.765625 c 0
 14.14453125 70.6943359375 4.119140625 117.112304688 17.2138671875 173.833984375 c 2
 22.3115234375 195.9140625 l 1
 171.111328125 195.9140625 l 1
 166.900390625 177.673828125 l 2
 163.31640625 162.150390625 166.34765625 150.685546875 177.166015625 140.639648438 c 0
 187.952148438 130.623046875 205.16015625 124.874023438 230.55078125 124.874023438 c 0
 252.3046875 124.874023438 311.8046875 127.532226562 331.581054688 213.194335938 c 2
 338.452148438 242.954101562 l 2
EndSplineSet
EndChar

StartChar: six
Encoding: 54 54 25
Width: 574
GlyphClass: 2
Flags: MW
HStem: -10.4863 135.359<205.913 250.135> 299.593 133.441<271.853 384.75> 671.274 20G<356.858 526.463 526.463 526.463>
VStem: 55.8213 154.56 389.901 154.56
LayerCount: 2
Fore
SplineSet
19.7275390625 205.512695312 m 2
 24.1611328125 224.712890625 l 2
 36.1376953125 276.591796875 65.8984375 331.533203125 112.10546875 389.361328125 c 2
 356.858398438 691.274414062 l 1
 526.462890625 691.274414062 l 1
 314.68359375 429.938476562 l 1
 327.173828125 432.0390625 340.442382812 433.034179688 354.495117188 433.034179688 c 0
 415.005859375 433.034179688 461.294921875 414.774414062 490.93359375 377.594726562 c 0
 520.655273438 340.311523438 527.899414062 290.112304688 513.908203125 229.513671875 c 2
 509.254882812 209.354492188 l 2
 493.735351562 142.134765625 458.803710938 87.3017578125 404.645507812 47.8046875 c 0
 350.76953125 8.5146484375 286.568359375 -10.486328125 213.701171875 -10.486328125 c 0
 139.091796875 -10.486328125 83.171875 7.8876953125 48.359375 46.38671875 c 0
 13.4560546875 84.9833984375 4.3779296875 139.0234375 19.7275390625 205.512695312 c 2
174.065429688 204.552734375 m 2
 167.357421875 175.493164062 166.875 124.873046875 244.950195312 124.873046875 c 0
 275.188476562 124.873046875 298.65234375 132.485351562 317.057617188 146.157226562 c 0
 335.309570312 159.71484375 347.50390625 178.208007812 353.5859375 204.551757812 c 2
 357.575195312 221.83203125 l 2
 363.661132812 248.19140625 359.908203125 266.219726562 347.958007812 279.083007812 c 0
 335.759765625 292.212890625 315.631835938 299.592773438 285.288085938 299.592773438 c 0
 258.416992188 299.592773438 194.618164062 293.572265625 178.27734375 222.79296875 c 2
 174.065429688 204.552734375 l 2
EndSplineSet
EndChar

StartChar: seven
Encoding: 55 55 26
Width: 513
GlyphClass: 2
Flags: MW
HStem: 0.0742188 21G<16.7637 175.775 16.7637 16.7637> 553.034 138.24<115.556 379.625 83.6406 573.476>
LayerCount: 2
Fore
SplineSet
573.475585938 691.274414062 m 1
 544.2109375 564.515625 l 1
 175.775390625 0.07421875 l 1
 16.763671875 0.07421875 l 1
 379.625 553.034179688 l 1
 83.640625 553.034179688 l 1
 115.555664062 691.274414062 l 1
 573.475585938 691.274414062 l 1
EndSplineSet
EndChar

StartChar: eight
Encoding: 56 56 27
Width: 583
GlyphClass: 2
Flags: MW
HStem: -10.4863 135.361<211.694 254.593> 293.835 132.479<282.523 314.953> 566.474 135.36<339.991 365.947>
VStem: 60.6211 152.64 75.0205 151.68 383.18 152.642 396.622 151.68
LayerCount: 2
Fore
SplineSet
383.912109375 701.833984375 m 0xe8
 531.947265625 701.833984375 594.543945312 616.205078125 568.65625 504.07421875 c 2
 566.217773438 493.513671875 l 2xec
 559 462.25 544.420898438 433.389648438 522.680664062 407.732421875 c 0
 507.301757812 389.58203125 489.655273438 374.337890625 470.064453125 362.256835938 c 1
 488.192382812 347.958007812 501.586914062 330.009765625 509.866210938 308.583007812 c 0
 520.734375 280.458984375 522.333007812 249.369140625 514.646484375 216.07421875 c 2
 511.543945312 202.633789062 l 2
 496.576171875 137.802734375 461.879882812 84.68359375 407.98046875 46.2392578125 c 0
 354.362304688 7.9970703125 290.684570312 -10.486328125 218.500976562 -10.486328125 c 0
 146.317382812 -10.486328125 91.173828125 7.9970703125 55.21484375 46.2392578125 c 0
 19.0966796875 84.6513671875 8.810546875 137.435546875 23.6416015625 201.673828125 c 2
 26.744140625 215.114257812 l 2xf2
 33.5654296875 244.657226562 57.98828125 316.203125 139.735351562 362.4765625 c 1
 127.142578125 373.393554688 86.8505859375 413.09375 105.416992188 493.513671875 c 2
 107.85546875 504.07421875 l 2
 133.74609375 616.219726562 235.893554688 701.833984375 383.912109375 701.833984375 c 0xe8
320.302734375 426.314453125 m 0
 334.9453125 426.314453125 398.229492188 427.038085938 413.35546875 492.5546875 c 2
 415.79296875 503.115234375 l 2
 420.634765625 524.0859375 417.392578125 538.4296875 407.083984375 549.220703125 c 0
 396.638671875 560.157226562 379.232421875 566.473632812 352.661132812 566.473632812 c 0
 327.321289062 566.473632812 272.58984375 560.62109375 259.313476562 503.114257812 c 2
 256.875976562 492.553710938 l 2
 253.161132812 476.466796875 244.463867188 426.314453125 320.302734375 426.314453125 c 0
250.709960938 124.875 m 0
 286.517578125 124.875 344.440429688 135.826171875 360.0859375 203.594726562 c 2
 363.41015625 217.995117188 l 2
 376.119140625 273.04296875 340.186523438 293.834960938 289.719726562 293.834960938 c 0
 275.326171875 293.834960938 197.479492188 293.495117188 180.048828125 217.995117188 c 2
 176.724609375 203.594726562 l 2xf2
 169.091796875 170.532226562 172.677734375 124.875 250.709960938 124.875 c 0
EndSplineSet
EndChar

StartChar: nine
Encoding: 57 57 28
Width: 574
GlyphClass: 2
Flags: MW
HStem: 0.0742188 21G<66.4277 234.996 66.4277 66.4277> 258.314 133.439<208.047 314.273> 566.474 135.36<341.431 385.338>
VStem: 55.8223 154.56 388.941 155.521
LayerCount: 2
Fore
SplineSet
238.318359375 258.314453125 m 0
 177.775390625 258.314453125 131.504882812 276.762695312 101.954101562 314.280273438 c 0
 72.3486328125 351.866210938 65.1357421875 402.192382812 79.126953125 462.793945312 c 2
 83.78125 482.954101562 l 2
 99.28515625 550.108398438 133.798828125 604.775390625 187.276367188 643.991210938 c 0
 240.528320312 683.043945312 304.708007812 701.833984375 378.153320312 701.833984375 c 0
 452.767578125 701.833984375 508.8203125 683.456054688 543.94140625 644.999023438 c 0
 579.149414062 606.447265625 588.52734375 552.71875 573.307617188 486.793945312 c 2
 568.653320312 466.633789062 l 2
 556.521484375 414.0859375 526.518554688 359.228515625 479.748046875 301.986328125 c 0
 479.700195312 301.926757812 240.826171875 7.2666015625 240.826171875 7.2666015625 c 1
 234.99609375 0.07421875 l 1
 66.427734375 0.07421875 l 1
 277.508789062 261.690429688 l 1
 264.853515625 259.423828125 251.78125 258.314453125 238.318359375 258.314453125 c 0
306.56640625 391.75390625 m 0
 321.979492188 391.75390625 395.987304688 392.369140625 413.797851562 469.513671875 c 2
 418.008789062 487.75390625 l 2
 425.139648438 518.641601562 423.7734375 566.473632812 346.903320312 566.473632812 c 0
 331.663085938 566.473632812 257.509765625 565.985351562 239.227539062 486.793945312 c 2
 235.459960938 470.473632812 l 2
 228.329101562 439.586914062 229.6953125 391.75390625 306.56640625 391.75390625 c 0
EndSplineSet
EndChar

StartChar: colon
Encoding: 58 58 29
Width: 230
GlyphClass: 2
Flags: MW
HStem: 0.0742188 165.12<-1.09961 123.02 -39.2207 161.141> 324.554 165.12<73.8125 197.932 35.6914 236.053>
VStem: 44.3018 162.24
LayerCount: 2
Fore
SplineSet
73.8125 489.673828125 m 1
 236.052734375 489.673828125 l 1
 197.931640625 324.553710938 l 1
 35.69140625 324.553710938 l 1
 73.8125 489.673828125 l 1
-1.099609375 165.194335938 m 1
 161.140625 165.194335938 l 1
 123.01953125 0.07421875 l 1
 -39.220703125 0.07421875 l 1
 -1.099609375 165.194335938 l 1
EndSplineSet
EndChar

StartChar: semicolon
Encoding: 59 59 30
Width: 230
GlyphClass: 2
Flags: MW
HStem: 324.554 165.12<73.8125 197.932 35.6914 236.053>
VStem: 44.3018 162.24 63.502 141.12
LayerCount: 2
Fore
SplineSet
73.8125 489.673828125 m 1xc0
 236.052734375 489.673828125 l 1
 197.931640625 324.553710938 l 1
 35.69140625 324.553710938 l 1
 73.8125 489.673828125 l 1xc0
16.9921875 160.393554688 m 1xa0
 158.112304688 160.393554688 l 1
 108.919921875 -52.681640625 l 1
 -59.767578125 -172.090820312 l 1
 16.9921875 160.393554688 l 1xa0
EndSplineSet
EndChar

StartChar: less
Encoding: 60 60 31
Width: 535
GlyphClass: 2
Flags: W
LayerCount: 2
Fore
SplineSet
20.8623046875 218.743164062 m 1
 48.2255859375 337.265625 l 1
 531.803710938 510.772460938 l 1
 499.153320312 369.350585938 l 1
 237.278320312 277.578125 l 1
 456.978515625 186.670898438 l 1
 424.088867188 44.2099609375 l 1
 20.8623046875 218.743164062 l 1
EndSplineSet
Substitution2: "'rtla' Right to Left Alternates lookup 0 subtable" greater
EndChar

StartChar: equal
Encoding: 61 61 32
Width: 535
GlyphClass: 2
Flags: MW
HStem: 110.474 137.28<28.5215 439.387 -3.17285 471.081> 311.114 137.279<74.8428 485.709 43.1494 517.402>
LayerCount: 2
Fore
SplineSet
74.8427734375 448.393554688 m 1
 517.40234375 448.393554688 l 1
 485.708984375 311.114257812 l 1
 43.1494140625 311.114257812 l 1
 74.8427734375 448.393554688 l 1
28.521484375 247.75390625 m 1
 471.081054688 247.75390625 l 1
 439.38671875 110.473632812 l 1
 -3.1728515625 110.473632812 l 1
 28.521484375 247.75390625 l 1
EndSplineSet
EndChar

StartChar: greater
Encoding: 62 62 33
Width: 535
GlyphClass: 2
Flags: W
LayerCount: 2
Fore
SplineSet
55.6328125 369.350585938 m 1
 88.283203125 510.772460938 l 1
 491.74609375 337.265625 l 1
 464.3828125 218.743164062 l 1
 -19.431640625 44.2099609375 l 1
 13.4580078125 186.670898438 l 1
 275.1328125 277.578125 l 1
 55.6328125 369.350585938 l 1
EndSplineSet
Substitution2: "'rtla' Right to Left Alternates lookup 0 subtable" less
EndChar

StartChar: question
Encoding: 63 63 34
Width: 507
GlyphClass: 2
Flags: MW
HStem: 0.0751953 149.76<127.836 247.82 93.2607 282.396> 563.594 137.28<271.975 337.926>
VStem: 176.783 154.56 332.302 151.68
LayerCount: 2
Fore
SplineSet
366.245117188 508.875 m 0
 370.49609375 527.288085938 374.733398438 563.59375 301.118164062 563.59375 c 0
 242.83203125 563.59375 220.888671875 540.418945312 211.004882812 501.788085938 c 2
 207.4140625 487.75390625 l 1
 62.3515625 487.75390625 l 1
 78.08984375 547.795898438 118.213867188 700.874023438 335.69140625 700.874023438 c 0
 404.366210938 700.874023438 456.3203125 685.202148438 489.489257812 652.057617188 c 0
 522.806640625 618.763671875 532.475585938 571.903320312 519.25390625 514.633789062 c 0
 506.09375 457.62890625 471.174804688 408.384765625 418.393554688 366.224609375 c 0
 394.901367188 347.458984375 373.184570312 326.399414062 349.84765625 307.428710938 c 0
 317.2578125 280.935546875 306.01171875 264.606445312 297.909179688 229.513671875 c 2
 287.71484375 185.354492188 l 1
 139.875 185.354492188 l 1
 153.39453125 243.9140625 l 2
 169.21484375 312.44140625 191.557617188 343.1875 244.98046875 384.787109375 c 0
 265.887695312 401.067382812 285.174804688 419.520507812 306.005859375 435.908203125 c 0
 350.245117188 470.709960938 361.370117188 487.759765625 366.245117188 508.875 c 0
127.8359375 149.834960938 m 1
 282.395507812 149.834960938 l 1
 247.8203125 0.0751953125 l 1
 93.2607421875 0.0751953125 l 1
 127.8359375 149.834960938 l 1
EndSplineSet
EndChar

StartChar: at
Encoding: 64 64 35
Width: 870
GlyphClass: 2
Flags: MW
HStem: -130.486 124.802<330.983 395.024> 51.9141 119.039<301.276 403.556> 394.633 119.041<437.836 453.395 374.419 455.401> 574.157 124.796<482.712 518.612>
VStem: 51.9834 136.318 252.621 136.322 488.784 135.357 696.142 136.32
LayerCount: 2
Fore
SplineSet
612.267578125 169.03515625 m 0
 623.825195312 169.03515625 651.626953125 169.03515625 671.3515625 254.474609375 c 2
 686.866210938 321.674804688 l 2
 695.212890625 357.826171875 720.596679688 481.443359375 621.237304688 543.258789062 c 0
 588.443359375 563.661132812 545.5078125 574.157226562 491.716796875 574.157226562 c 0
 410.630859375 574.157226562 343.8203125 551.181640625 289.01171875 506.411132812 c 0
 234.138671875 461.588867188 197.154296875 400.193359375 178.583984375 319.756835938 c 2
 162.84765625 251.596679688 l 2
 154.392578125 214.971679688 129.051757812 89.279296875 228.168945312 26.11328125 c 0
 261.141601562 5.099609375 304.116210938 -5.6845703125 357.849609375 -5.6845703125 c 0
 451.770507812 -5.6845703125 511.391601562 19.091796875 575.220703125 48.205078125 c 1
 605.74609375 -58.23828125 l 1
 543.587890625 -90.33203125 461.01171875 -130.486328125 329.037109375 -130.486328125 c 0
 253.400390625 -130.486328125 189.302734375 -114.65625 137.411132812 -82.689453125 c 0
 85.5927734375 -50.7666015625 49.53125 -5.6572265625 29.8564453125 51.9765625 c 0
 10.142578125 109.723632812 9.1171875 176.174804688 26.306640625 250.6328125 c 2
 41.8212890625 317.833007812 l 2
 59.01171875 392.291015625 90.7197265625 458.7421875 137.09765625 516.490234375 c 0
 183.383789062 574.123046875 240.275390625 619.233398438 306.834960938 651.15625 c 0
 373.486328125 683.123046875 444.893554688 698.953125 520.530273438 698.953125 c 0
 749.747070312 698.953125 874.5 543.938476562 823.408203125 322.633789062 c 2
 807.893554688 255.43359375 l 2
 793.178710938 191.6953125 765.422851562 140.709960938 723.091796875 104.876953125 c 0
 681.549804688 69.712890625 634.487304688 51.9140625 584.267578125 51.9140625 c 0
 545.439453125 51.9140625 499.278320312 61.6611328125 475.452148438 102.272460938 c 1
 441.564453125 68.232421875 395.182617188 51.9140625 340.42578125 51.9140625 c 0
 262.126953125 51.9140625 189.516601562 88.5126953125 224.506835938 240.07421875 c 2
 244.010742188 324.553710938 l 2
 260.93359375 397.856445312 308.525390625 513.673828125 440.313476562 513.673828125 c 0
 466.4765625 513.673828125 496.962890625 508.1484375 519.7265625 487.5703125 c 1
 523.315429688 503.115234375 l 1
 656.754882812 503.115234375 l 1
 590.265625 215.115234375 l 2
 583.458007812 185.630859375 589.665039062 169.03515625 612.267578125 169.03515625 c 0
395.750976562 170.953125 m 0
 411.361328125 170.953125 445.083007812 172.559570312 461.334960938 242.953125 c 2
 479.952148438 323.592773438 l 2
 495.915039062 392.73828125 463.411132812 394.6328125 447.391601562 394.6328125 c 0
 428.28125 394.6328125 415.840820312 388.80859375 405.954101562 378.211914062 c 0
 394.998046875 366.469726562 385.961914062 348.934570312 380.333007812 324.552734375 c 2
 362.159179688 245.833007812 l 2
 355.87890625 218.631835938 356.479492188 199.447265625 361.657226562 187.56640625 c 0
 366.284179688 176.947265625 375.94140625 170.953125 395.750976562 170.953125 c 0
EndSplineSet
EndChar

StartChar: A
Encoding: 65 65 36
Width: 682
GlyphClass: 2
Flags: MW
HStem: 0.0742188 21G<-78.9336 -78.9336 -78.9336 86.9385 444.22 444.22 444.22 610.092> 128.714 133.44<245.562 406.54 245.562 425.918 164.637 406.54> 671.274 20G<364.135 486.176 486.176 486.176>
LayerCount: 2
Fore
SplineSet
-78.93359375 0.07421875 m 1
 364.134765625 691.274414062 l 1
 486.17578125 691.274414062 l 1
 610.091796875 0.07421875 l 1
 444.219726562 0.07421875 l 1
 425.91796875 128.713867188 l 1
 164.63671875 128.713867188 l 1
 86.9384765625 0.07421875 l 1
 -78.93359375 0.07421875 l 1
245.561523438 262.154296875 m 1
 406.540039062 262.154296875 l 1
 375.163085938 476.538085938 l 1
 245.561523438 262.154296875 l 1
EndSplineSet
EndChar

StartChar: B
Encoding: 66 66 37
Width: 656
GlyphClass: 2
Flags: MW
HStem: 0.0742188 138.239<167.415 294.86> 282.313 138.239<232.575 357.141 200.66 380.415> 553.033 138.241<263.16 415.801 263.16 263.16>
VStem: 64.4629 154.56 457.103 154.561 467.663 153.6
LayerCount: 2
Fore
SplineSet
533.803710938 356.038085938 m 1xf8
 579.946289062 326.282226562 601.40625 275.84375 584.947265625 204.552734375 c 0xf4
 570.17578125 140.567382812 537.098632812 88.9189453125 485.725585938 52.869140625 c 0
 434.54296875 16.9541015625 370.497070312 0.07421875 294.860351562 0.07421875 c 2
 -19.0595703125 0.07421875 l 1
 140.516601562 691.274414062 l 1
 441.956054688 691.274414062 l 2
 518.743164062 691.274414062 575.80078125 675.138671875 611.07421875 640.612304688 c 0
 646.555664062 605.883789062 656.341796875 555.375976562 641.838867188 492.553710938 c 0
 634.806640625 462.09765625 611.26171875 398.7578125 533.803710938 356.038085938 c 1xf8
485.504882812 484.873046875 m 0xf8
 492.323242188 514.40625 492.5859375 553.033203125 415.80078125 553.033203125 c 2
 263.16015625 553.033203125 l 1
 232.575195312 420.552734375 l 1
 380.415039062 420.552734375 l 2
 465.762695312 420.552734375 480.165039062 461.74609375 485.504882812 484.873046875 c 0xf8
328.6953125 138.313476562 m 2
 403.614257812 138.313476562 424.899414062 176.620117188 433.342773438 213.193359375 c 0xf4
 439.610351562 240.341796875 442.28515625 282.313476562 357.140625 282.313476562 c 2
 200.66015625 282.313476562 l 1
 167.415039062 138.313476562 l 1
 328.6953125 138.313476562 l 2
EndSplineSet
EndChar

StartChar: C
Encoding: 67 67 38
Width: 675
GlyphClass: 2
Flags: MW
HStem: -10.4863 142.08<260.968 313.423> 564.554 139.2<391.377 425.967>
VStem: 60.623 155.52 484.942 153.601
LayerCount: 2
Fore
SplineSet
201.104492188 296.713867188 m 2
 173.20703125 175.876953125 215.913085938 131.59375 306.0234375 131.59375 c 0
 348 131.59375 380.979492188 141.467773438 406.36328125 159.401367188 c 0
 431.634765625 177.255859375 447.856445312 201.211914062 455.498046875 234.314453125 c 2
 459.930664062 253.513671875 l 1
 613.53125 253.513671875 l 1
 609.098632812 234.314453125 l 2
 591.502929688 158.095703125 551.799804688 96.71875 490.176757812 53.3642578125 c 0
 428.990234375 10.3154296875 355.544921875 -10.486328125 271.301757812 -10.486328125 c 0
 179.74609375 -10.486328125 112.099609375 14.71875 71.1767578125 66.59375 c 0
 29.9814453125 118.814453125 22.2900390625 195.813476562 45.1416015625 294.79296875 c 2
 69.078125 398.47265625 l 2
 91.93359375 497.470703125 135.362304688 574.494140625 201.00390625 626.70703125 c 0
 266.176757812 678.547851562 345.59765625 703.75390625 437.157226562 703.75390625 c 0
 520.768554688 703.75390625 584.436523438 683.106445312 626.116210938 640.451171875 c 0
 668.080078125 597.502929688 679.995117188 537.239257812 662.807617188 462.793945312 c 2
 657.709960938 440.713867188 l 1
 503.149414062 440.713867188 l 1
 507.360351562 458.954101562 l 2
 515.154296875 492.711914062 509.969726562 517.366210938 492.702148438 535.8671875 c 0
 475.37890625 554.4296875 446.913085938 564.553710938 405.020507812 564.553710938 c 0
 323.35546875 564.553710938 254.301757812 527.133789062 223.046875 391.75390625 c 2
 201.104492188 296.713867188 l 2
EndSplineSet
EndChar

StartChar: D
Encoding: 68 68 39
Width: 664
GlyphClass: 2
Flags: MW
HStem: 0.0742188 138.241<167.413 248.779> 553.035 138.239<263.159 380.279 263.159 263.159>
VStem: 64.4619 154.559 474.381 154.56
LayerCount: 2
Fore
SplineSet
634.736328125 386.955078125 m 2
 615.897460938 305.354492188 l 2
 592.627929688 204.561523438 549.51171875 127.018554688 484.555664062 75.6455078125 c 0
 420.163085938 24.7197265625 340.884765625 0.07421875 248.779296875 0.07421875 c 2
 -19.060546875 0.07421875 l 1
 140.515625 691.274414062 l 1
 413.154296875 691.274414062 l 2
 504 691.274414062 570.856445312 666.76953125 610.83984375 616.118164062 c 0
 651.169921875 565.028320312 657.993164062 487.689453125 634.736328125 386.955078125 c 2
284.533203125 138.315429688 m 2
 333.784179688 138.315429688 370.499023438 151.94140625 397.71875 176.959960938 c 0
 425.079101562 202.107421875 447.245117188 244.311523438 461.337890625 305.354492188 c 2
 478.625 380.235351562 l 2
 493.330078125 443.926757812 490.962890625 487.826171875 475.326171875 513.549804688 c 0
 459.754882812 539.168945312 429.454101562 553.03515625 380.279296875 553.03515625 c 2
 263.159179688 553.03515625 l 1
 167.413085938 138.315429688 l 1
 284.533203125 138.315429688 l 2
EndSplineSet
EndChar

StartChar: E
Encoding: 69 69 40
Width: 591
GlyphClass: 2
Flags: MW
HStem: 0.0742188 138.24<167.414 483.02> 279.434 138.24<231.909 498.555 199.994 530.47> 553.034 138.24<263.16 610.681 263.16 263.16>
VStem: 64.4619 154.56
LayerCount: 2
Fore
SplineSet
167.4140625 138.314453125 m 1
 514.934570312 138.314453125 l 1
 483.01953125 0.07421875 l 1
 -19.060546875 0.07421875 l 1
 140.515625 691.274414062 l 1
 642.595703125 691.274414062 l 1
 610.680664062 553.034179688 l 1
 263.16015625 553.034179688 l 1
 231.909179688 417.673828125 l 1
 530.469726562 417.673828125 l 1
 498.5546875 279.43359375 l 1
 199.994140625 279.43359375 l 1
 167.4140625 138.314453125 l 1
EndSplineSet
EndChar

StartChar: F
Encoding: 70 70 41
Width: 586
GlyphClass: 2
Flags: MW
HStem: 0.0742188 21G<-19.0605 135.499 -19.0605 -19.0605> 273.674 138.24<198.664 531.061 230.58 499.145> 553.034 138.24<263.16 610.681 263.16 263.16>
VStem: 64.4619 154.56
LayerCount: 2
Fore
SplineSet
198.6640625 273.673828125 m 1
 135.499023438 0.07421875 l 1
 -19.060546875 0.07421875 l 1
 140.515625 691.274414062 l 1
 642.595703125 691.274414062 l 1
 610.680664062 553.034179688 l 1
 263.16015625 553.034179688 l 1
 230.580078125 411.9140625 l 1
 531.060546875 411.9140625 l 1
 499.14453125 273.673828125 l 1
 198.6640625 273.673828125 l 1
EndSplineSet
EndChar

StartChar: G
Encoding: 71 71 42
Width: 675
GlyphClass: 2
Flags: MW
HStem: -10.4863 142.079<258.965 314.108> 251.593 132.48<346.072 460.446 315.486 644.633> 564.553 139.2<391.376 425.966>
VStem: 60.6221 155.52 485.901 153.601
LayerCount: 2
Fore
SplineSet
306.022460938 131.592773438 m 0
 398.875976562 131.592773438 441.958984375 171.513671875 458.23046875 241.993164062 c 2
 460.446289062 251.592773438 l 1
 315.486328125 251.592773438 l 1
 346.072265625 384.073242188 l 1
 644.6328125 384.073242188 l 1
 616.041992188 260.233398438 l 2
 595.647460938 171.897460938 555.0078125 103.05859375 492.787109375 57.0087890625 c 0
 431.313476562 11.513671875 356.916015625 -10.486328125 271.30078125 -10.486328125 c 0
 180.35546875 -10.486328125 112.90234375 14.7421875 71.6826171875 66.5615234375 c 0
 30.150390625 118.774414062 22.28515625 195.793945312 45.140625 294.791992188 c 2
 69.0771484375 398.471679688 l 2
 91.9326171875 497.470703125 135.361328125 574.493164062 201.001953125 626.706054688 c 0
 266.17578125 678.546875 345.596679688 703.752929688 437.15625 703.752929688 c 0
 475.782226562 703.752929688 612.581054688 700.541015625 657.541992188 593.513671875 c 0
 672.870117188 557.026367188 674.650390625 514.09375 663.471679688 465.672851562 c 2
 658.374023438 443.592773438 l 1
 503.813476562 443.592773438 l 1
 508.024414062 461.833007812 l 2
 515.3203125 493.43359375 510.123046875 517.200195312 492.701171875 535.866210938 c 0
 475.376953125 554.428710938 446.912109375 564.552734375 405.01953125 564.552734375 c 0
 319.23828125 564.552734375 253.48046875 523.583984375 223.266601562 392.712890625 c 2
 201.325195312 297.672851562 l 2
 173.5859375 177.521484375 211.907226562 131.592773438 306.022460938 131.592773438 c 0
EndSplineSet
EndChar

StartChar: H
Encoding: 72 72 43
Width: 673
GlyphClass: 2
Flags: MW
HStem: 0.0742188 21G<-19.0605 135.499 -19.0605 -19.0605 386.06 540.619 386.06 386.06> 280.394 138.24<232.131 450.776 200.216 482.691> 671.274 20G<140.516 295.075 295.075 295.075 545.636 700.195 700.195 700.195>
VStem: 64.4619 154.56 469.582 154.56
LayerCount: 2
Fore
SplineSet
700.1953125 691.274414062 m 1
 540.619140625 0.07421875 l 1
 386.059570312 0.07421875 l 1
 450.776367188 280.393554688 l 1
 200.215820312 280.393554688 l 1
 135.499023438 0.07421875 l 1
 -19.060546875 0.07421875 l 1
 140.515625 691.274414062 l 1
 295.075195312 691.274414062 l 1
 232.130859375 418.633789062 l 1
 482.69140625 418.633789062 l 1
 545.635742188 691.274414062 l 1
 700.1953125 691.274414062 l 1
EndSplineSet
EndChar

StartChar: I
Encoding: 73 73 44
Width: 275
GlyphClass: 2
Flags: MW
HStem: 0.0742188 21G<-13.3008 141.26 -13.3008 -13.3008> 671.274 20G<146.275 300.836 300.836 300.836>
VStem: 70.2217 154.561
LayerCount: 2
Fore
SplineSet
146.275390625 691.274414062 m 1
 300.8359375 691.274414062 l 1
 141.259765625 0.07421875 l 1
 -13.30078125 0.07421875 l 1
 146.275390625 691.274414062 l 1
EndSplineSet
EndChar

StartChar: J
Encoding: 74 74 45
Width: 373
GlyphClass: 2
Flags: MW
HStem: 0.0742188 139.2<-20.5234 52.4365 52.4365 52.9395 -52.6602 52.4365> 671.274 20G<242.275 397.796 397.796 397.796>
VStem: 166.222 155.521
LayerCount: 2
Fore
SplineSet
279.88671875 180.553710938 m 2
 261.299804688 100.044921875 207.168945312 0.07421875 52.939453125 0.07421875 c 2
 -52.66015625 0.07421875 l 1
 -20.5234375 139.274414062 l 1
 52.4365234375 139.274414062 l 2
 80.5576171875 139.274414062 97.669921875 145.227539062 105.458007812 151.704101562 c 0
 113.537109375 158.424804688 122.912109375 174.254882812 129.2421875 201.673828125 c 2
 242.275390625 691.274414062 l 1
 397.795898438 691.274414062 l 1
 279.88671875 180.553710938 l 2
EndSplineSet
EndChar

StartChar: K
Encoding: 75 75 46
Width: 680
GlyphClass: 2
Flags: MW
HStem: 0.0742188 21G<-19.0605 135.499 -19.0605 -19.0605 423.351 610.852 423.351 423.351> 671.274 20G<140.516 295.075 295.075 295.075 556.397 757.114 757.114 757.114>
VStem: 64.4619 154.56
LayerCount: 2
Fore
SplineSet
423.350585938 0.07421875 m 1
 299.80078125 296.407226562 l 1
 180.072265625 193.143554688 l 1
 135.499023438 0.07421875 l 1
 -19.060546875 0.07421875 l 1
 140.515625 691.274414062 l 1
 295.075195312 691.274414062 l 1
 226.330078125 393.508789062 l 1
 556.397460938 691.274414062 l 1
 757.114257812 691.274414062 l 1
 430.51171875 408.581054688 l 1
 610.8515625 0.07421875 l 1
 423.350585938 0.07421875 l 1
EndSplineSet
EndChar

StartChar: L
Encoding: 76 76 47
Width: 575
GlyphClass: 2
Flags: MW
HStem: 0.0742188 138.24<167.414 477.26> 671.274 20G<140.516 295.075 295.075 295.075>
VStem: 64.4619 154.56
LayerCount: 2
Fore
SplineSet
140.515625 691.274414062 m 1
 295.075195312 691.274414062 l 1
 167.4140625 138.314453125 l 1
 509.174804688 138.314453125 l 1
 477.259765625 0.07421875 l 1
 -19.060546875 0.07421875 l 1
 140.515625 691.274414062 l 1
EndSplineSet
EndChar

StartChar: M
Encoding: 77 77 48
Width: 806
GlyphClass: 2
Flags: MW
HStem: 0.0742188 21G<-19.0605 135.499 -19.0605 -19.0605 518.539 673.1 518.539 518.539> 671.274 20G<140.516 289.214 289.214 289.214 683.92 832.676 832.676 832.676>
VStem: 64.4619 154.56 602.062 154.561
LayerCount: 2
Fore
SplineSet
832.67578125 691.274414062 m 1
 673.099609375 0.07421875 l 1
 518.5390625 0.07421875 l 1
 605.89453125 378.453125 l 1
 408.647460938 127.75390625 l 1
 307.2578125 127.75390625 l 1
 223.606445312 381.708984375 l 1
 135.499023438 0.07421875 l 1
 -19.060546875 0.07421875 l 1
 140.515625 691.274414062 l 1
 289.213867188 691.274414062 l 1
 404.043945312 327.850585938 l 1
 683.919921875 691.274414062 l 1
 832.67578125 691.274414062 l 1
EndSplineSet
EndChar

StartChar: N
Encoding: 78 78 49
Width: 700
GlyphClass: 2
Flags: MW
HStem: 0.0742188 21G<-19.0605 135.499 -19.0605 -19.0605 419.831 567.499 419.831 419.831> 671.274 20G<140.516 288.193 288.193 288.193 572.516 727.075 727.075 727.075>
VStem: 64.4619 154.56 496.462 154.56
LayerCount: 2
Fore
SplineSet
727.075195312 691.274414062 m 1
 567.499023438 0.07421875 l 1
 419.831054688 0.07421875 l 1
 229.5390625 407.408203125 l 1
 135.499023438 0.07421875 l 1
 -19.060546875 0.07421875 l 1
 140.515625 691.274414062 l 1
 288.193359375 691.274414062 l 1
 478.272460938 283.061523438 l 1
 572.515625 691.274414062 l 1
 727.075195312 691.274414062 l 1
EndSplineSet
EndChar

StartChar: O
Encoding: 79 79 50
Width: 675
GlyphClass: 2
Flags: MW
HStem: -10.4863 142.079<260.147 305.957> 564.553 139.202<385.887 427.276>
VStem: 60.6211 155.519 484.94 154.562
LayerCount: 2
Fore
SplineSet
45.1396484375 294.793945312 m 2
 69.076171875 398.473632812 l 2
 91.9189453125 497.416992188 134.798828125 574.373046875 199.438476562 626.608398438 c 0
 263.603515625 678.461914062 341.338867188 703.754882812 430.435546875 703.754882812 c 0
 518.305664062 703.754882812 583.56640625 678.416015625 623.438476562 626.575195312 c 0
 663.62109375 574.33203125 670.795898438 497.3984375 647.95703125 398.473632812 c 2
 624.020507812 294.793945312 l 2
 601.310546875 196.42578125 558.083007812 119.61328125 492.768554688 67.107421875 c 0
 427.963867188 15.01171875 350.212890625 -10.486328125 261.701171875 -10.486328125 c 0
 173.2265625 -10.486328125 107.907226562 14.828125 68.646484375 66.76171875 c 0
 29.142578125 119.01953125 22.3095703125 195.90625 45.1396484375 294.793945312 c 2
298.341796875 131.592773438 m 0
 359.493164062 131.592773438 436.942382812 153.946289062 469.90234375 296.712890625 c 2
 491.84375 391.752929688 l 2
 526.997070312 544.016601562 456.25390625 564.552734375 398.298828125 564.552734375 c 0
 325.737304688 564.552734375 255.736328125 533.36328125 223.04296875 391.752929688 c 2
 201.1015625 296.712890625 l 2
 170.696289062 165.012695312 221.952148438 131.592773438 298.341796875 131.592773438 c 0
EndSplineSet
EndChar

StartChar: P
Encoding: 80 80 51
Width: 631
GlyphClass: 2
Flags: MW
HStem: 0.0742188 21G<-19.0605 135.499 -19.0605 -19.0605> 251.594 139.2<225.704 334.687 193.566 376.425> 553.034 138.24<263.16 413.881 263.16 263.16>
VStem: 64.4619 154.56 461.901 154.561
LayerCount: 2
Fore
SplineSet
641.318359375 469.513671875 m 0
 625.793945312 402.26953125 590.71875 347.671875 536.28515625 308.805664062 c 0
 481.916015625 269.985351562 414.248046875 251.59375 334.686523438 251.59375 c 2
 193.56640625 251.59375 l 1
 135.499023438 0.07421875 l 1
 -19.060546875 0.07421875 l 1
 140.515625 691.274414062 l 1
 440.995117188 691.274414062 l 2
 517.48828125 691.274414062 575.037109375 672.770507812 611.375976562 634.0625 c 0
 647.98046875 595.0703125 657.393554688 539.146484375 641.318359375 469.513671875 c 0
376.424804688 390.793945312 m 2
 454.811523438 390.793945312 477.8671875 431.006835938 486.979492188 470.473632812 c 0
 492.672851562 495.134765625 502.677734375 553.034179688 413.880859375 553.034179688 c 2
 263.16015625 553.034179688 l 1
 225.704101562 390.793945312 l 1
 376.424804688 390.793945312 l 2
EndSplineSet
EndChar

StartChar: Q
Encoding: 81 81 52
Width: 675
GlyphClass: 2
Flags: MW
HStem: -10.4873 142.08<260.148 274.84> 564.553 139.202<385.887 427.277>
VStem: 60.6211 155.52 484.941 154.561
LayerCount: 2
Fore
SplineSet
261.700195312 -10.4873046875 m 0
 173.225585938 -10.4873046875 107.90625 14.8271484375 68.6455078125 66.7607421875 c 0
 29.140625 119.018554688 22.3095703125 195.90625 45.1396484375 294.793945312 c 2
 69.076171875 398.473632812 l 2
 91.9189453125 497.416992188 134.798828125 574.373046875 199.438476562 626.608398438 c 0
 263.603515625 678.461914062 341.338867188 703.754882812 430.435546875 703.754882812 c 0
 518.305664062 703.754882812 583.56640625 678.416015625 623.438476562 626.575195312 c 0
 663.62109375 574.33203125 670.795898438 497.3984375 647.95703125 398.473632812 c 2
 624.020507812 294.793945312 l 2
 599.765625 189.731445312 550.963867188 108.643554688 476.616210938 55.0703125 c 1
 520.991210938 -86.2724609375 l 1
 384.374023438 -152.946289062 l 1
 337.354492188 -3.7626953125 l 1
 313.198242188 -8.2666015625 287.98046875 -10.4873046875 261.700195312 -10.4873046875 c 0
201.102539062 296.712890625 m 2
 170.697265625 165.012695312 221.953125 131.592773438 298.342773438 131.592773438 c 0
 359.494140625 131.592773438 436.943359375 153.946289062 469.903320312 296.712890625 c 2
 491.844726562 391.752929688 l 2
 526.998046875 544.016601562 456.254882812 564.552734375 398.299804688 564.552734375 c 0
 325.73828125 564.552734375 255.737304688 533.36328125 223.043945312 391.752929688 c 2
 201.102539062 296.712890625 l 2
EndSplineSet
EndChar

StartChar: R
Encoding: 82 82 53
Width: 666
GlyphClass: 2
Flags: MW
HStem: 0.0742188 21G<389.118 572.682 389.118 389.118> 260.233 136.319<195.562 378.714> 553.033 138.24<263.159 414.84 263.159 263.159>
VStem: 64.4619 154.56 461.901 153.601
LayerCount: 2
Fore
SplineSet
641.6875 475.2734375 m 0
 631.251953125 430.069335938 599.05859375 328.72265625 469.688476562 282.284179688 c 1
 572.681640625 0.07421875 l 1
 389.118164062 0.07421875 l 1
 304.220703125 260.234375 l 1
 268.000976562 260.234375 231.78125 260.233398438 195.561523438 260.233398438 c 1
 135.499023438 0.0732421875 l 1
 -19.060546875 0.0732421875 l 1
 140.515625 691.2734375 l 1
 442.916015625 691.2734375 l 2
 517.477539062 691.2734375 574.09765625 673.416992188 610.700195312 636.1484375 c 0
 647.719726562 598.455078125 657.484375 543.697265625 641.6875 475.2734375 c 0
378.713867188 396.552734375 m 2
 456.401367188 396.552734375 479.107421875 436.377929688 488.086914062 475.2734375 c 0
 494.515625 503.116210938 490.634765625 521.259765625 478.87109375 533.294921875 c 0
 466.610351562 545.838867188 445.985351562 553.033203125 414.83984375 553.033203125 c 2
 263.159179688 553.033203125 l 1
 227.033203125 396.552734375 l 1
 378.713867188 396.552734375 l 2
EndSplineSet
EndChar

StartChar: S
Encoding: 83 83 54
Width: 611
GlyphClass: 2
Flags: MW
HStem: -5.68555 136.322<202.337 267.646> 566.474 134.401<354.461 414.328>
VStem: 51.0205 150.722 437.901 152.641
LayerCount: 2
Fore
SplineSet
360.342773438 566.473632812 m 0
 302.348632812 566.473632812 245.526367188 551.501953125 232.803710938 496.393554688 c 0
 226.935546875 470.973632812 227.4296875 438.260742188 321.221679688 426.188476562 c 2
 398.466796875 415.627929688 l 2
 465.078125 406.512695312 593.258789062 373.619140625 556.665039062 215.114257812 c 0
 540.46875 144.958007812 501.932617188 88.8837890625 441.840820312 50.466796875 c 0
 382.389648438 12.458984375 309.922851562 -5.685546875 225.369140625 -5.685546875 c 0
 142.712890625 -5.685546875 80.9677734375 12.462890625 42.1884765625 50.7685546875 c 0
 -15.7177734375 107.966796875 -3.48828125 187.03515625 3.2314453125 230.4765625 c 1
 151.455078125 230.4765625 l 1
 146.833984375 185.861328125 141.11328125 130.63671875 263.560546875 130.63671875 c 0
 381.274414062 130.63671875 396.623046875 183.053710938 401.80859375 205.516601562 c 0
 407.081054688 228.353515625 403.303710938 243.336914062 391.783203125 254.087890625 c 0
 379.9375 265.142578125 354.868164062 273.665039062 316.291992188 278.560546875 c 2
 248.0078125 287.225585938 l 2
 183.274414062 295.475585938 42.3916015625 324.475585938 79.8662109375 486.794921875 c 0
 95.046875 552.547851562 131.748046875 606.158203125 188.935546875 644.484375 c 0
 245.836914062 682.618164062 314.669921875 700.875 394.251953125 700.875 c 0
 471.23046875 700.875 529.3046875 683.456054688 566.459960938 646.828125 c 0
 622.028320312 592.05078125 610.669921875 516.76171875 604.265625 474.315429688 c 1
 454.412109375 474.315429688 l 1
 460.862304688 517.078125 468.3125 566.473632812 360.342773438 566.473632812 c 0
EndSplineSet
EndChar

StartChar: T
Encoding: 84 84 55
Width: 562
GlyphClass: 2
Flags: MW
HStem: 0.0742188 21G<128.779 283.34 128.779 128.779> 553.034 138.24<89.6357 256.44 57.7207 641.636 411.001 411.001 411.001 609.721>
VStem: 212.302 154.561
LayerCount: 2
Fore
SplineSet
256.440429688 553.034179688 m 1
 57.720703125 553.034179688 l 1
 89.6357421875 691.274414062 l 1
 641.635742188 691.274414062 l 1
 609.720703125 553.034179688 l 1
 411.000976562 553.034179688 l 1
 283.33984375 0.07421875 l 1
 128.779296875 0.07421875 l 1
 256.440429688 553.034179688 l 1
EndSplineSet
EndChar

StartChar: U
Encoding: 85 85 56
Width: 678
GlyphClass: 2
Flags: MW
HStem: -5.68555 138.237<234.11 321.854 234.11 346.391> 671.273 20G<140.517 295.076 295.076 295.076 550.436 704.995 704.995 704.995>
VStem: 64.4629 154.56 474.382 154.56
LayerCount: 2
Fore
SplineSet
260.889648438 -5.685546875 m 0
 91.89453125 -5.685546875 2.8525390625 94.984375 39.2294921875 252.552734375 c 2
 140.516601562 691.2734375 l 1
 295.076171875 691.2734375 l 1
 194.67578125 256.393554688 l 2
 185.444335938 216.407226562 175.416015625 132.551757812 292.8046875 132.551757812 c 0
 350.90234375 132.551757812 426.326171875 153.698242188 450.03515625 256.393554688 c 2
 550.435546875 691.2734375 l 1
 704.995117188 691.2734375 l 1
 603.708007812 252.552734375 l 2
 567.293945312 94.8271484375 431.892578125 -5.685546875 260.889648438 -5.685546875 c 0
EndSplineSet
EndChar

StartChar: V
Encoding: 86 86 57
Width: 626
GlyphClass: 2
Flags: MW
HStem: 0.0742188 21G<176.333 297.198 176.333 176.333> 671.274 20G<81.4668 246.871 246.871 246.871 547.779 713.22 713.22 713.22>
LayerCount: 2
Fore
SplineSet
81.466796875 691.274414062 m 1
 246.87109375 691.274414062 l 1
 293.810546875 244.8515625 l 1
 547.779296875 691.274414062 l 1
 713.219726562 691.274414062 l 1
 297.198242188 0.07421875 l 1
 176.333007812 0.07421875 l 1
 81.466796875 691.274414062 l 1
EndSplineSet
EndChar

StartChar: W
Encoding: 87 87 58
Width: 929
GlyphClass: 2
Flags: MW
HStem: 0.0742188 21G<122.742 258.737 122.742 122.742 522.001 659.067 522.001 522.001> 671.274 20G<82.9727 241.899 241.899 241.899 461.315 639.297 639.297 639.297 857.729 1011.98 1011.98 1011.98>
LayerCount: 2
Fore
SplineSet
522.000976562 0.07421875 m 1
 499.478515625 470.756835938 l 1
 258.737304688 0.07421875 l 1
 122.7421875 0.07421875 l 1
 82.97265625 691.274414062 l 1
 241.899414062 691.274414062 l 1
 254.447265625 251.571289062 l 1
 461.315429688 691.274414062 l 1
 639.296875 691.274414062 l 1
 653.579101562 251.797851562 l 1
 857.729492188 691.274414062 l 1
 1011.97851562 691.274414062 l 1
 659.067382812 0.07421875 l 1
 522.000976562 0.07421875 l 1
EndSplineSet
EndChar

StartChar: X
Encoding: 88 88 59
Width: 668
GlyphClass: 2
Flags: MW
HStem: 0.0742188 21G<-85.0156 -85.0156 -85.0156 102.093 411.962 411.962 411.962 601.701> 671.274 20G<91.835 281.633 281.633 281.633 550.149 737.368 737.368 737.368>
LayerCount: 2
Fore
SplineSet
-85.015625 0.07421875 m 1
 246.708007812 358.15234375 l 1
 91.8349609375 691.274414062 l 1
 281.6328125 691.274414062 l 1
 372.67578125 484.443359375 l 1
 550.149414062 691.274414062 l 1
 737.368164062 691.274414062 l 1
 433.821289062 363.890625 l 1
 601.701171875 0.07421875 l 1
 411.961914062 0.07421875 l 1
 308.484375 236.817382812 l 1
 102.092773438 0.07421875 l 1
 -85.015625 0.07421875 l 1
EndSplineSet
EndChar

StartChar: Y
Encoding: 89 89 60
Width: 611
GlyphClass: 2
Flags: MW
HStem: 0.0742188 21G<153.739 308.3 153.739 153.739> 671.274 20G<77.1416 252.894 252.894 252.894 527.338 703.066 703.066 703.066>
VStem: 237.262 154.561
LayerCount: 2
Fore
SplineSet
527.337890625 691.274414062 m 1
 703.06640625 691.274414062 l 1
 373.8984375 284.212890625 l 1
 308.299804688 0.07421875 l 1
 153.739257812 0.07421875 l 1
 219.115234375 283.247070312 l 1
 77.1416015625 691.274414062 l 1
 252.893554688 691.274414062 l 1
 329.880859375 430.37109375 l 1
 527.337890625 691.274414062 l 1
EndSplineSet
EndChar

StartChar: Z
Encoding: 90 90 61
Width: 566
GlyphClass: 2
Flags: MW
HStem: 0.0742188 139.2<173.257 465.739> 553.034 138.24<119.396 396.69 87.4805 615.716>
LayerCount: 2
Fore
SplineSet
497.875976562 139.274414062 m 1
 465.739257812 0.07421875 l 1
 -46.900390625 0.07421875 l 1
 -16.9853515625 129.651367188 l 1
 396.690429688 553.034179688 l 1
 87.48046875 553.034179688 l 1
 119.395507812 691.274414062 l 1
 615.715820312 691.274414062 l 1
 586.024414062 562.66796875 l 1
 173.256835938 139.274414062 l 1
 497.875976562 139.274414062 l 1
EndSplineSet
EndChar

StartChar: bracketleft
Encoding: 91 91 62
Width: 352
GlyphClass: 2
Flags: MW
HStem: -80.5664 139.2<142.299 218.643> 601.034 139.2<267.521 376.002 267.521 267.521>
VStem: 64.4619 147.84 64.4619 256.32
LayerCount: 2
Fore
SplineSet
151.818359375 740.234375 m 1xd0
 408.138671875 740.234375 l 1
 376.001953125 601.034179688 l 1xd0
 267.521484375 601.034179688 l 1
 142.298828125 58.6337890625 l 1xe0
 250.779296875 58.6337890625 l 1
 218.642578125 -80.56640625 l 1
 -37.677734375 -80.56640625 l 1
 151.818359375 740.234375 l 1xd0
EndSplineSet
Substitution2: "'rtla' Right to Left Alternates lookup 0 subtable" bracketright
EndChar

StartChar: backslash
Encoding: 92 92 63
Width: 453
GlyphClass: 2
Flags: MW
HStem: -9.52637 21G<210.468 340.87 210.468 210.468> 676.074 20G<123.156 253.559 253.559 253.559>
LayerCount: 2
Fore
SplineSet
123.15625 696.07421875 m 1
 253.55859375 696.07421875 l 1
 340.870117188 -9.5263671875 l 1
 210.467773438 -9.5263671875 l 1
 123.15625 696.07421875 l 1
EndSplineSet
EndChar

StartChar: bracketright
Encoding: 93 93 64
Width: 354
GlyphClass: 2
Flags: MW
HStem: -80.5664 139.2<-18.0215 90.459 -18.0215 206.162 -50.1582 90.459> 600.074 138.24<138.896 215.46 106.979 395.216>
VStem: 51.9814 256.32 160.462 147.84
LayerCount: 2
Fore
SplineSet
215.459960938 600.07421875 m 1xd0
 106.979492188 600.07421875 l 1
 138.895507812 738.314453125 l 1
 395.215820312 738.314453125 l 1
 206.162109375 -80.56640625 l 1
 -50.158203125 -80.56640625 l 1
 -18.021484375 58.6337890625 l 1xe0
 90.458984375 58.6337890625 l 1
 215.459960938 600.07421875 l 1xd0
EndSplineSet
Substitution2: "'rtla' Right to Left Alternates lookup 0 subtable" bracketleft
EndChar

StartChar: asciicircum
Encoding: 94 94 65
Width: 535
GlyphClass: 2
Flags: MW
HStem: 676.074 20G<293.16 412.487 412.487 412.487>
LayerCount: 2
Fore
SplineSet
293.16015625 696.07421875 m 1
 412.487304688 696.07421875 l 1
 486.612304688 260.234375 l 1
 356.612304688 260.234375 l 1
 313.78125 526.962890625 l 1
 147.791992188 260.234375 l 1
 17.791015625 260.234375 l 1
 293.16015625 696.07421875 l 1
EndSplineSet
EndChar

StartChar: underscore
Encoding: 95 95 66
Width: 568
GlyphClass: 2
Flags: MW
HStem: -116.086 106.56<-77.917 466.762 -102.518 491.362>
LayerCount: 2
Fore
SplineSet
-77.9169921875 -9.5263671875 m 1
 491.362304688 -9.5263671875 l 1
 466.76171875 -116.0859375 l 1
 -102.517578125 -116.0859375 l 1
 -77.9169921875 -9.5263671875 l 1
EndSplineSet
EndChar

StartChar: grave
Encoding: 96 96 67
Width: 507
GlyphClass: 2
Flags: MW
HStem: 564.554 156.48<278.273 310.818 107.328 429.996 278.273 278.273>
LayerCount: 2
Fore
SplineSet
107.328125 721.034179688 m 1
 310.818359375 721.034179688 l 1
 429.99609375 564.553710938 l 1
 278.2734375 564.553710938 l 1
 107.328125 721.034179688 l 1
EndSplineSet
EndChar

StartChar: a
Encoding: 97 97 68
Width: 559
GlyphClass: 2
Flags: MW
HStem: -5.68555 123.839<186.116 188.34> 213.193 110.4<195.605 359.95 240.91 334.461> 413.834 120<287.485 329.75>
VStem: 43.3418 143.999 368.781 146.88
LayerCount: 2
Fore
SplineSet
289.583007812 413.833984375 m 0
 273.025390625 413.833984375 212.688476562 413.421875 201.923828125 366.793945312 c 2
 197.934570312 349.513671875 l 1
 55.8544921875 349.513671875 l 1
 59.84375 366.793945312 l 2
 71.7294921875 418.27734375 102.58203125 460.501953125 150.463867188 490.291992188 c 0
 197.9453125 519.83203125 254.801757812 533.833984375 320.16796875 533.833984375 c 0
 393.259765625 533.833984375 447.711914062 517.421875 481.243164062 482.462890625 c 0
 514.963867188 447.305664062 523.647460938 396.44140625 509.044921875 333.193359375 c 2
 432.138671875 0.0732421875 l 1
 288.138671875 0.0732421875 l 1
 295.10546875 30.2529296875 l 1
 260.692382812 9.4248046875 220.430664062 -5.685546875 156.249023438 -5.685546875 c 0
 94.083984375 -5.685546875 47.888671875 8.1201171875 20.1494140625 38.1455078125 c 0
 -7.580078125 68.1591796875 -14.5908203125 110.915039062 -2.5029296875 163.274414062 c 0
 10.712890625 220.520507812 59.673828125 323.59375 240.91015625 323.59375 c 2
 359.950195312 323.59375 l 1
 363.49609375 338.954101562 l 2
 371.3671875 373.048828125 369.91796875 413.833984375 289.583007812 413.833984375 c 0
210.758789062 118.153320312 m 0
 302.90234375 118.153320312 323.134765625 164.131835938 330.693359375 196.873046875 c 2
 334.4609375 213.193359375 l 1
 237.500976562 213.193359375 l 2
 153.709960938 213.193359375 145.734375 181.631835938 142.161132812 166.153320312 c 0
 134.275390625 131.999023438 161.473632812 118.153320312 210.758789062 118.153320312 c 0
EndSplineSet
EndChar

StartChar: b
Encoding: 98 98 69
Width: 576
GlyphClass: 2
Flags: MW
HStem: -8.56641 135.36<233.834 269.811 233.834 306.188> 0.0742188 21G<-23.8604 121.1 -23.8604 -23.8604> 402.314 134.399<278.646 404.033> 671.274 20G<135.716 283.556 283.556 283.556>
VStem: 59.6621 147.84 393.742 147.841
LayerCount: 2
Fore
SplineSet
237.719726562 492.73828125 m 1x7c
 271.067382812 516.39453125 316.162109375 536.713867188 372.672851562 536.713867188 c 0
 435.393554688 536.713867188 482.431640625 516.084960938 510.9921875 474.439453125 c 0
 539.734375 432.528320312 544.200195312 373.1875 526.98828125 298.633789062 c 2
 512.58203125 236.234375 l 2
 476.712890625 80.8681640625 366.551757812 -8.56640625 245.82421875 -8.56640625 c 0xbc
 196.073242188 -8.56640625 156.451171875 4.84765625 128.423828125 31.80078125 c 1
 121.099609375 0.07421875 l 1
 -23.8603515625 0.07421875 l 1
 135.715820312 691.274414062 l 1
 283.555664062 691.274414062 l 1
 237.719726562 492.73828125 l 1x7c
249.235351562 126.793945312 m 0
 290.38671875 126.793945312 343.2578125 143.178710938 365.849609375 241.034179688 c 2
 377.817382812 292.874023438 l 2
 399.55078125 387.009765625 354.813476562 402.314453125 310.923828125 402.314453125 c 0
 246.368164062 402.314453125 206.770507812 358.681640625 192.020507812 294.793945312 c 2
 177.392578125 231.43359375 l 2
 169.572265625 197.560546875 172.844726562 172.583007812 185.521484375 154.329101562 c 0
 198.142578125 136.158203125 218.43359375 126.793945312 249.235351562 126.793945312 c 0
EndSplineSet
EndChar

StartChar: c
Encoding: 99 99 70
Width: 564
GlyphClass: 2
Flags: MW
HStem: -8.56641 135.36<227.349 244.043> 402.313 134.399<297.454 321.08>
VStem: 51.9814 146.881 385.103 144.96
LayerCount: 2
Fore
SplineSet
306.125 402.313476562 m 0
 234.842773438 402.313476562 199.481445312 364.530273438 182.9375 292.873046875 c 2
 169.861328125 236.233398438 l 2
 160.241210938 194.5625 163.33984375 167.29296875 175.025390625 151.76953125 c 0
 186.959960938 135.915039062 209.301757812 126.793945312 245.395507812 126.793945312 c 0
 274.033203125 126.793945312 296.227539062 133.224609375 313.077148438 144.384765625 c 0
 329.735351562 155.416992188 339.694335938 169.327148438 344.28125 189.194335938 c 2
 348.4921875 207.43359375 l 1
 493.452148438 207.43359375 l 1
 489.241210938 189.194335938 l 2
 475.295898438 128.79296875 442.659179688 79.2939453125 391.927734375 43.7421875 c 0
 341.342773438 8.2919921875 279.702148438 -8.56640625 208.383789062 -8.56640625 c 0
 134.72265625 -8.56640625 79.6220703125 11.857421875 45.787109375 54.0498046875 c 0
 11.712890625 96.541015625 4.892578125 157.885742188 22.7587890625 235.2734375 c 2
 36.5 294.79296875 l 2
 54.224609375 371.568359375 89.291015625 432.459960938 142.926757812 474.619140625 c 0
 196.171875 516.47265625 260.635742188 536.712890625 334.271484375 536.712890625 c 0
 406.202148438 536.712890625 460.383789062 519.87890625 494.624023438 484.405273438 c 0
 528.973632812 448.817382812 538.635742188 398.984375 524.5546875 337.993164062 c 2
 519.900390625 317.833007812 l 1
 374.940429688 317.833007812 l 1
 379.151367188 336.073242188 l 2
 384.052734375 357.30078125 380.34375 372.176757812 368.298828125 383.8046875 c 0
 356.116210938 395.567382812 336.03515625 402.313476562 306.125 402.313476562 c 0
EndSplineSet
EndChar

StartChar: d
Encoding: 100 100 71
Width: 576
GlyphClass: 2
Flags: MW
HStem: -8.56641 135.36<200.188 201.053> 0.0742188 21G<304.459 449.419 304.459 304.459> 402.314 134.399<279.691 324.462 279.691 346.641> 671.274 20G<462.115 608.995 608.995 608.995>
VStem: 51.9824 147.841 386.062 146.88
LayerCount: 2
Fore
SplineSet
22.31640625 233.354492188 m 2xbc
 36.72265625 295.754882812 l 2
 48.1826171875 345.392578125 66.56640625 388.543945312 92.4267578125 424.865234375 c 0
 118.102539062 460.926757812 149.29296875 489.103515625 185.388671875 508.247070312 c 0
 221.314453125 527.302734375 259.669921875 536.713867188 299.711914062 536.713867188 c 0
 349.211914062 536.713867188 388.647460938 522.524414062 416.635742188 494.28125 c 1
 462.115234375 691.274414062 l 1
 608.995117188 691.274414062 l 1
 449.418945312 0.07421875 l 1
 304.458984375 0.07421875 l 1x7c
 312.014648438 32.8017578125 l 1
 272.326171875 5.1455078125 226.362304688 -8.56640625 175.744140625 -8.56640625 c 0
 113.55078125 -8.56640625 66.7724609375 12.478515625 38.099609375 54.708984375 c 0
 9.2041015625 97.267578125 4.814453125 157.543945312 22.31640625 233.354492188 c 2xbc
171.265625 238.154296875 m 2
 156.732421875 175.204101562 166.499023438 126.793945312 233.875976562 126.793945312 c 0xbc
 265.444335938 126.793945312 290.609375 136.1171875 311.823242188 154.012695312 c 0
 332.993164062 171.872070312 347.98046875 196.899414062 355.953125 231.43359375 c 2
 370.581054688 294.793945312 l 2
 375.764648438 317.247070312 392.91796875 402.314453125 300.364257812 402.314453125 c 0
 237.143554688 402.314453125 200.200195312 363.482421875 183.234375 289.994140625 c 2
 171.265625 238.154296875 l 2
EndSplineSet
EndChar

StartChar: e
Encoding: 101 101 72
Width: 576
GlyphClass: 2
Flags: MW
HStem: -8.56641 132.48<212.841 250.407> 217.034 110.399<165.797 385.597 192.47 385.597 192.47 508.148> 406.154 130.56<299.949 322.783>
VStem: 51.9795 147.251
LayerCount: 2
Fore
SplineSet
165.796875 217.034179688 m 1
 156.649414062 163.0859375 173.2734375 123.9140625 252.409179688 123.9140625 c 0
 268.701171875 123.9140625 330.552734375 126.229492188 346.716796875 170.056640625 c 0
 347.040039062 171.083984375 347.040039062 171.083984375 355.091796875 185.354492188 c 1
 496.034179688 185.354492188 l 1
 491.267578125 164.70703125 l 2
 482.9453125 136.741210938 461.233398438 81.4833984375 392.310546875 37.9306640625 c 0
 342.552734375 6.4892578125 283.790039062 -8.56640625 217.0234375 -8.56640625 c 0
 140.809570312 -8.56640625 83.7958984375 12.4892578125 48.6552734375 55.935546875 c 0
 13.2548828125 99.703125 6.0693359375 162.991210938 24.5302734375 242.954101562 c 2
 34.50390625 286.154296875 l 2
 52.66796875 364.833007812 88.4482421875 427.52734375 143.01171875 471.57421875 c 0
 197.297851562 515.397460938 262.74609375 536.713867188 337.151367188 536.713867188 c 0
 411.529296875 536.713867188 467.155273438 515.58203125 501.29296875 472.094726562 c 0
 535.588867188 428.405273438 542.653320312 366.491210938 524.771484375 289.034179688 c 2
 508.1484375 217.034179688 l 1
 165.796875 217.034179688 l 1
307.009765625 406.154296875 m 0
 251.189453125 406.154296875 213.40625 382.690429688 192.469726562 327.43359375 c 1
 385.596679688 327.43359375 l 1
 390.245117188 353.606445312 385.7265625 371.612304688 373.7734375 384.090820312 c 0
 360.111328125 398.35546875 338.556640625 406.154296875 307.009765625 406.154296875 c 0
EndSplineSet
EndChar

StartChar: f
Encoding: 102 102 73
Width: 379
GlyphClass: 2
Flags: MW
HStem: 0.0742188 21G<26.0596 172.939 26.0596 26.0596> 415.754 112.32<80.7578 122.026 54.8262 147.958 294.838 376.426> 581.834 109.44<347.876 356.209 356.209 414.769>
VStem: 109.582 146.88
LayerCount: 2
Fore
SplineSet
149.288085938 533.833984375 m 2
 158.119140625 572.087890625 191.421875 691.274414062 347.875976562 691.274414062 c 2
 440.03515625 691.274414062 l 1
 414.768554688 581.833984375 l 1
 356.208984375 581.833984375 l 2
 334.686523438 581.833984375 321.325195312 577.229492188 314.86328125 572.267578125 c 0
 308.364257812 567.276367188 301.548828125 557.14453125 297.275390625 538.633789062 c 2
 294.837890625 528.07421875 l 1
 402.357421875 528.07421875 l 1
 376.42578125 415.75390625 l 1
 268.90625 415.75390625 l 1
 172.939453125 0.07421875 l 1
 26.0595703125 0.07421875 l 1
 122.026367188 415.75390625 l 1
 54.826171875 415.75390625 l 1
 80.7578125 528.07421875 l 1
 147.958007812 528.07421875 l 1
 149.288085938 533.833984375 l 2
EndSplineSet
EndChar

StartChar: g
Encoding: 103 103 74
Width: 576
GlyphClass: 2
Flags: MW
HStem: -157.366 122.88<185.243 202.379> 27.9141 135.36<153.103 258.136> 402.314 134.399<269.242 314.889> 508.074 20G<425.397 571.317 571.317 571.317>
VStem: 51.9814 147.841 387.021 145.92
LayerCount: 2
Fore
SplineSet
198.559570312 -34.486328125 m 0xdc
 278.202148438 -34.486328125 304.997070312 6.5634765625 315.688476562 52.8740234375 c 2
 319.404296875 68.96875 l 1
 280.185546875 41.509765625 234.5546875 27.9140625 184.166992188 27.9140625 c 0
 122.0390625 27.9140625 75.212890625 48.576171875 46.3603515625 90.140625 c 0
 17.29296875 132.016601562 12.552734375 191.06640625 29.6298828125 265.034179688 c 2
 38.4951171875 303.43359375 l 2
 55.0087890625 374.963867188 86.8232421875 432.725585938 135.09375 474.487304688 c 0
 183.052734375 515.978515625 238.771484375 536.713867188 299.711914062 536.713867188 c 0xec
 349.112304688 536.713867188 388.784179688 522.303710938 417.470703125 493.741210938 c 1
 425.397460938 528.07421875 l 1
 571.317382812 528.07421875 l 1
 463.381835938 60.5537109375 l 2
 448.008789062 -6.03515625 413.33984375 -60.388671875 359.578125 -99.560546875 c 0
 305.904296875 -138.668945312 240.326171875 -157.366210938 164.431640625 -157.366210938 c 0
 99.8671875 -157.366210938 50.18359375 -144.596679688 16.736328125 -117.418945312 c 0
 -17.2216796875 -89.8251953125 -29.134765625 -48.41796875 -19.2578125 3.3291015625 c 2
 -16.3974609375 18.314453125 l 1
 123.869140625 18.314453125 l 1
 124.616210938 -1.1494140625 125.013671875 -11.5 141.723632812 -22.439453125 c 0
 153.21484375 -29.9599609375 171.926757812 -34.486328125 198.559570312 -34.486328125 c 0xdc
178.579101562 269.833984375 m 2
 158.55859375 183.1171875 196.920898438 163.274414062 242.296875 163.274414062 c 0
 273.974609375 163.274414062 299.17578125 172.379882812 320.215820312 189.693359375 c 0
 341.262695312 207.01171875 355.778320312 230.6796875 363.266601562 263.114257812 c 2
 372.353515625 302.473632812 l 2
 379.853515625 334.9609375 376.389648438 358.67578125 363.622070312 375.977539062 c 0
 350.862304688 393.26953125 330.374023438 402.314453125 299.403320312 402.314453125 c 0
 222.67578125 402.314453125 196.26953125 346.461914062 185.005859375 297.673828125 c 2
 178.579101562 269.833984375 l 2
EndSplineSet
EndChar

StartChar: h
Encoding: 104 104 75
Width: 577
GlyphClass: 2
Flags: MW
HStem: 0.0742188 21G<-23.8604 123.979 -23.8604 -23.8604 302.539 302.539 302.539 450.379> 399.434 134.4<285.223 407.027> 671.274 20G<135.716 283.556 283.556 283.556>
VStem: 59.6621 147.84 386.062 147.84
LayerCount: 2
Fore
SplineSet
310.258789062 399.43359375 m 0
 260.186523438 399.43359375 210.926757812 376.685546875 192.463867188 296.713867188 c 2
 123.979492188 0.07421875 l 1
 -23.8603515625 0.07421875 l 1
 135.715820312 691.274414062 l 1
 283.555664062 691.274414062 l 1
 237.905273438 493.540039062 l 1
 251.125 502.038085938 302.188476562 533.833984375 376.807617188 533.833984375 c 0
 437.24609375 533.833984375 482.294921875 515.7578125 508.891601562 478.431640625 c 0
 535.458007812 441.145507812 540.26171875 389.3984375 525.512695312 325.513671875 c 2
 450.37890625 0.07421875 l 1
 302.5390625 0.07421875 l 1
 372.131835938 301.513671875 l 2
 391.346679688 384.7421875 351.965820312 399.43359375 310.258789062 399.43359375 c 0
EndSplineSet
EndChar

StartChar: i
Encoding: 105 105 76
Width: 256
GlyphClass: 2
Flags: MW
HStem: 0.0742188 21G<-19.0605 127.819 -19.0605 -19.0605> 508.074 20G<102.838 249.718 249.718 249.718> 570.314 123.84<141.181 259.47 112.59 288.061>
VStem: 64.4619 146.88
LayerCount: 2
Fore
SplineSet
141.180664062 694.154296875 m 1
 288.060546875 694.154296875 l 1
 259.469726562 570.314453125 l 1
 112.58984375 570.314453125 l 1
 141.180664062 694.154296875 l 1
102.837890625 528.07421875 m 1
 249.717773438 528.07421875 l 1
 127.819335938 0.07421875 l 1
 -19.060546875 0.07421875 l 1
 102.837890625 528.07421875 l 1
EndSplineSet
EndChar

StartChar: j
Encoding: 106 106 77
Width: 256
GlyphClass: 2
Flags: MW
HStem: -149.686 131.52<-137.512 -91.0762 -167.876 -77.9893> 508.073 20G<102.839 249.719 249.719 249.719> 570.314 123.84<141.181 259.47 112.59 288.061>
VStem: 64.4629 146.88
LayerCount: 2
Fore
SplineSet
141.180664062 694.154296875 m 1
 288.060546875 694.154296875 l 1
 259.469726562 570.314453125 l 1
 112.58984375 570.314453125 l 1
 141.180664062 694.154296875 l 1
133.803710938 25.9931640625 m 2
 102.298828125 -110.469726562 12.3173828125 -149.685546875 -91.076171875 -149.685546875 c 2
 -167.875976562 -149.685546875 l 1
 -137.51171875 -18.166015625 l 1
 -77.9892578125 -18.166015625 l 2
 -53.0419921875 -18.166015625 -37.908203125 -12.9892578125 -31.373046875 -7.8203125 c 0
 -24.8623046875 -2.6689453125 -16.73046875 10.1650390625 -11.302734375 33.6728515625 c 2
 102.838867188 528.073242188 l 1
 249.71875 528.073242188 l 1
 133.803710938 25.9931640625 l 2
EndSplineSet
EndChar

StartChar: k
Encoding: 107 107 78
Width: 582
GlyphClass: 2
Flags: MW
HStem: 0.0742188 21G<-23.8604 123.979 -23.8604 -23.8604 320.717 506.985 320.717 320.717> 508.074 20G<427.9 622.167 622.167 622.167> 671.274 20G<135.716 283.556 283.556 283.556>
VStem: 59.6621 147.84
LayerCount: 2
Fore
SplineSet
320.716796875 0.07421875 m 1
 227.978515625 215.708007812 l 1
 161.583984375 162.95703125 l 1
 123.979492188 0.07421875 l 1
 -23.8603515625 0.07421875 l 1
 135.715820312 691.274414062 l 1
 283.555664062 691.274414062 l 1
 202.0625 338.288085938 l 1
 427.900390625 528.07421875 l 1
 622.166992188 528.07421875 l 1
 356.18359375 317.046875 l 1
 506.985351562 0.07421875 l 1
 320.716796875 0.07421875 l 1
EndSplineSet
EndChar

StartChar: l
Encoding: 108 108 79
Width: 326
GlyphClass: 2
Flags: MW
HStem: 0.0742188 131.52<113.663 267.623 208.103 237.26> 671.273 20G<135.716 283.556 283.556 283.556>
VStem: 59.6621 147.84
LayerCount: 2
Fore
SplineSet
156.619140625 0.07421875 m 2
 70.70703125 0.07421875 -17.087890625 29.41015625 16.6982421875 175.752929688 c 2
 135.715820312 691.2734375 l 1
 283.555664062 691.2734375 l 1
 166.310546875 183.432617188 l 2
 161.060546875 160.690429688 163.135742188 147.881835938 167.463867188 142.25390625 c 0
 171.662109375 136.797851562 183.919921875 131.59375 208.102539062 131.59375 c 2
 267.623046875 131.59375 l 1
 237.259765625 0.07421875 l 1
 156.619140625 0.07421875 l 2
EndSplineSet
EndChar

StartChar: m
Encoding: 109 109 80
Width: 891
GlyphClass: 2
Flags: MW
HStem: 0.0742188 21G<-23.8604 123.979 -23.8604 -23.8604 294.859 294.859 294.859 442.699> 399.434 134.399<285.418 392.082>
VStem: 59.6621 147.84 378.382 147.84 697.102 147.84
CounterMasks: 1 38
LayerCount: 2
Fore
SplineSet
306.418945312 399.43359375 m 0
 264.41796875 399.43359375 211.939453125 381.072265625 192.463867188 296.713867188 c 2
 123.979492188 0.07421875 l 1
 -23.8603515625 0.07421875 l 1
 98.0380859375 528.07421875 l 1
 242.998046875 528.07421875 l 1
 234.822265625 492.66015625 l 1
 272.986328125 517.356445312 321.90234375 533.833007812 371.046875 533.833007812 c 0
 413.1171875 533.833007812 470.459960938 522.986328125 503.225585938 473.622070312 c 1
 555.58984375 513.654296875 613.904296875 533.833007812 676.327148438 533.833007812 c 0
 740.416992188 533.833007812 788.208984375 515.774414062 816.752929688 478.205078125 c 0
 845.241210938 440.708984375 851.204101562 388.977539062 836.552734375 325.512695312 c 2
 761.418945312 0.0732421875 l 1
 613.579101562 0.0732421875 l 1
 683.171875 301.512695312 l 2
 702.845703125 386.732421875 660.2421875 399.43359375 624.178710938 399.43359375 c 0
 589.889648438 399.43359375 531.759765625 385.83984375 511.626953125 298.633789062 c 2
 442.69921875 0.07421875 l 1
 294.859375 0.07421875 l 1
 365.560546875 306.314453125 l 2
 381.629882812 375.91796875 354.416015625 399.43359375 306.418945312 399.43359375 c 0
EndSplineSet
EndChar

StartChar: n
Encoding: 110 110 81
Width: 577
GlyphClass: 2
Flags: MW
HStem: 0.0742188 21G<-23.8604 123.979 -23.8604 -23.8604 302.539 302.539 302.539 450.379> 399.434 134.4<285.223 407.043>
VStem: 59.6621 147.84 386.062 147.84
LayerCount: 2
Fore
SplineSet
310.258789062 399.43359375 m 0
 260.186523438 399.43359375 210.926757812 376.685546875 192.463867188 296.713867188 c 2
 123.979492188 0.07421875 l 1
 -23.8603515625 0.07421875 l 1
 98.0380859375 528.07421875 l 1
 242.998046875 528.07421875 l 1
 234.701171875 492.137695312 l 1
 260.474609375 508.630859375 309.9765625 533.833984375 376.807617188 533.833984375 c 0
 437.279296875 533.833984375 482.310546875 515.567382812 508.81640625 477.901367188 c 0
 535.240234375 440.350585938 540.123046875 388.80078125 525.512695312 325.513671875 c 2
 450.37890625 0.07421875 l 1
 302.5390625 0.07421875 l 1
 372.131835938 301.513671875 l 2
 391.346679688 384.7421875 351.965820312 399.43359375 310.258789062 399.43359375 c 0
EndSplineSet
EndChar

StartChar: o
Encoding: 111 111 82
Width: 568
GlyphClass: 2
Flags: MW
HStem: -8.56641 135.36<215.907 244.909> 402.314 134.399<297.454 339.567>
VStem: 51.9814 146.881 387.021 146.88
LayerCount: 2
Fore
SplineSet
22.7587890625 235.274414062 m 2
 36.5 294.793945312 l 2
 54.2255859375 371.569335938 89.291015625 432.4609375 142.926757812 474.620117188 c 0
 196.171875 516.473632812 260.635742188 536.713867188 334.271484375 536.713867188 c 0
 407.321289062 536.713867188 461.961914062 516.264648438 495.461914062 474.05859375 c 0
 529.153320312 431.611328125 536 370.940429688 518.419921875 294.793945312 c 2
 504.678710938 235.274414062 l 2
 486.818359375 157.911132812 451.864257812 96.591796875 398.504882812 54.08984375 c 0
 345.516601562 11.8837890625 281.43359375 -8.56640625 208.383789062 -8.56640625 c 0
 134.72265625 -8.56640625 79.6220703125 11.857421875 45.787109375 54.0498046875 c 0
 11.712890625 96.541015625 4.892578125 157.88671875 22.7587890625 235.274414062 c 2
239.634765625 126.793945312 m 0
 284.6953125 126.793945312 336.434570312 142.732421875 358.020507812 236.234375 c 2
 371.096679688 292.874023438 l 2
 385.396484375 354.8125 375.890625 402.314453125 303.243164062 402.314453125 c 0
 255.780273438 402.314453125 204.22265625 385.06640625 182.9375 292.874023438 c 2
 169.861328125 236.234375 l 2
 148.576171875 144.03515625 192.178710938 126.793945312 239.634765625 126.793945312 c 0
EndSplineSet
EndChar

StartChar: p
Encoding: 112 112 83
Width: 576
GlyphClass: 2
Flags: MW
HStem: -8.56641 135.36<233.835 269.812 233.835 306.188> 402.314 134.399<278.647 404.033> 508.074 20G<98.0381 242.999 242.999 242.999>
VStem: 59.6621 147.84 393.743 147.84
LayerCount: 2
Fore
SplineSet
512.58203125 236.234375 m 2xd8
 476.712890625 80.8681640625 366.551757812 -8.56640625 245.82421875 -8.56640625 c 0
 196.724609375 -8.56640625 157.948242188 4.5224609375 131.102539062 30.9296875 c 1
 89.404296875 -149.685546875 l 1
 -58.435546875 -149.685546875 l 1
 98.0380859375 528.07421875 l 1
 242.999023438 528.07421875 l 1xb8
 234.588867188 491.645507812 l 1
 277.03515625 521.516601562 323.526367188 536.713867188 372.672851562 536.713867188 c 0
 435.393554688 536.713867188 482.431640625 516.084960938 510.9921875 474.439453125 c 0
 539.734375 432.528320312 544.200195312 373.1875 526.98828125 298.633789062 c 2
 512.58203125 236.234375 l 2xd8
249.236328125 126.793945312 m 0
 290.387695312 126.793945312 343.258789062 143.178710938 365.850585938 241.034179688 c 2
 377.818359375 292.874023438 l 2
 399.551757812 387.009765625 354.814453125 402.314453125 310.924804688 402.314453125 c 0xd8
 246.369140625 402.314453125 206.771484375 358.681640625 192.021484375 294.793945312 c 2
 177.393554688 231.43359375 l 2
 169.573242188 197.560546875 172.845703125 172.583007812 185.522460938 154.329101562 c 0
 198.143554688 136.158203125 218.434570312 126.793945312 249.236328125 126.793945312 c 0
EndSplineSet
EndChar

StartChar: q
Encoding: 113 113 84
Width: 576
GlyphClass: 2
Flags: MW
HStem: -8.56738 135.36<200.185 200.691> 402.313 134.4<270.797 325.929 270.797 346.639> 508.074 20G<426.357 571.317 571.317 571.317>
VStem: 51.9814 147.84 386.062 146.88
LayerCount: 2
Fore
SplineSet
418.380859375 493.5234375 m 1xd8
 426.357421875 528.07421875 l 1
 571.317382812 528.07421875 l 1xb8
 414.84375 -149.685546875 l 1
 267.963867188 -149.685546875 l 1
 310.013671875 32.4501953125 l 1
 270.942382812 5.037109375 225.638671875 -8.5673828125 175.744140625 -8.5673828125 c 0
 113.55078125 -8.5673828125 66.7724609375 12.4775390625 38.099609375 54.7080078125 c 0
 9.2041015625 97.2666015625 4.8134765625 157.54296875 22.3154296875 233.354492188 c 2
 36.7216796875 295.75390625 l 2
 53.8095703125 369.766601562 86.1416015625 429.37109375 134.986328125 472.440429688 c 0
 183.538085938 515.251953125 239.961914062 536.713867188 301.631835938 536.713867188 c 0
 350.2265625 536.713867188 389.520507812 522.182617188 418.380859375 493.5234375 c 1xd8
171.263671875 238.153320312 m 2
 156.73046875 175.203125 166.49609375 126.79296875 233.873046875 126.79296875 c 0
 265.44140625 126.79296875 290.607421875 136.116210938 311.821289062 154.01171875 c 0
 332.991210938 171.87109375 347.978515625 196.8984375 355.951171875 231.432617188 c 2
 370.579101562 294.79296875 l 2
 375.762695312 317.24609375 392.916015625 402.313476562 300.362304688 402.313476562 c 0xd8
 237.141601562 402.313476562 200.198242188 363.481445312 183.231445312 289.993164062 c 2
 171.263671875 238.153320312 l 2
EndSplineSet
EndChar

StartChar: r
Encoding: 114 114 85
Width: 404
GlyphClass: 2
Flags: MW
HStem: 0.0742188 21G<-23.8604 123.979 -23.8604 -23.8604> 405.194 133.439<306.312 386.16> 508.074 20G<98.0381 242.999 242.999 242.999>
VStem: 59.6621 147.84
LayerCount: 2
Fore
SplineSet
322.1484375 405.194335938 m 0xd0
 290.474609375 405.194335938 215.724609375 397.466796875 191.134765625 290.954101562 c 2
 123.979492188 0.07421875 l 1
 -23.8603515625 0.07421875 l 1
 98.0380859375 528.07421875 l 1
 242.999023438 528.07421875 l 1xb0
 235.051757812 493.65234375 l 1
 260.357421875 511.88671875 309.0546875 538.633789062 376.955078125 538.633789062 c 0
 395.365234375 538.633789062 406.235351562 538.633789062 436.911132812 532.201171875 c 1
 403.201171875 386.188476562 l 1
 373.278320312 398.737304688 357.8828125 405.194335938 322.1484375 405.194335938 c 0xd0
EndSplineSet
EndChar

StartChar: s
Encoding: 115 115 86
Width: 532
GlyphClass: 2
Flags: MW
HStem: -5.68555 124.8<205.922 223.411> 411.914 121.92<280.166 300.965>
VStem: 51.0215 140.16 368.783 142.079
LayerCount: 2
Fore
SplineSet
-1.3935546875 168.07421875 m 2
 2.595703125 185.354492188 l 1
 142.755859375 185.354492188 l 1
 138.98828125 169.034179688 l 2
 135.583007812 154.288085938 139.010742188 143.629882812 151.973632812 134.23828125 c 0
 164.827148438 124.923828125 188.381835938 119.114257812 223.462890625 119.114257812 c 0
 256.10546875 119.114257812 280.733398438 123.989257812 296.783203125 131.764648438 c 0
 312.3125 139.288085938 319.420898438 148.040039062 322.495117188 161.354492188 c 0
 324.946289062 171.971679688 329.625976562 192.243164062 264.416015625 199.8515625 c 2
 192.379882812 208.505859375 l 2
 100.716796875 220.303710938 26.5087890625 255.673828125 51.7197265625 364.874023438 c 0
 63.9921875 418.030273438 94.6904296875 461.163085938 142.435546875 490.78515625 c 0
 189.619140625 520.057617188 246.883789062 533.833984375 313.448242188 533.833984375 c 0
 381.8671875 533.833984375 434.001953125 520.106445312 468.341796875 490.852539062 c 0
 502.91796875 461.3984375 514.521484375 419.283203125 502.625 367.75390625 c 2
 498.4140625 349.513671875 l 1
 359.213867188 349.513671875 l 1
 363.203125 366.793945312 l 2
 366.506835938 381.104492188 363.336914062 390.560546875 351.690429688 398.556640625 c 0
 339.842773438 406.690429688 317.58984375 411.9140625 284.340820312 411.9140625 c 0
 252.940429688 411.9140625 230.079101562 407.1015625 216.426757812 399.993164062 c 0
 202.8671875 392.931640625 196.501953125 384.895507812 193.65234375 372.553710938 c 0
 191.171875 361.806640625 188.625976562 343.768554688 243.5234375 336.96484375 c 2
 321.141601562 327.345703125 l 2
 372.870117188 321.446289062 496.883789062 301.303710938 466.34765625 169.034179688 c 0
 453.456054688 113.194335938 420.758789062 68.333984375 369.87109375 38.1220703125 c 0
 319.741210938 8.359375 258.892578125 -5.685546875 187.9296875 -5.685546875 c 0
 118.209960938 -5.685546875 65.4404296875 8.52734375 31.2841796875 38.876953125 c 0
 -3.150390625 69.4736328125 -13.9521484375 113.6796875 -1.3935546875 168.07421875 c 2
EndSplineSet
EndChar

StartChar: t
Encoding: 116 116 87
Width: 405
GlyphClass: 2
Flags: MW
HStem: 0.0742188 129.6<180.036 315.18 258.539 285.26> 415.754 112.32<70.1982 131.626 44.2666 157.558 304.438 391.786>
VStem: 119.182 146.879
LayerCount: 2
Fore
SplineSet
304.4375 528.07421875 m 1
 417.717773438 528.07421875 l 1
 391.786132812 415.75390625 l 1
 278.505859375 415.75390625 l 1
 260.037109375 335.75390625 241.56640625 255.754882812 223.096679688 175.754882812 c 0
 218.470703125 155.713867188 220.448242188 144.509765625 224.3984375 139.374023438 c 0
 228.348632812 134.23828125 238.499023438 129.673828125 258.5390625 129.673828125 c 2
 315.1796875 129.673828125 l 1
 285.259765625 0.07421875 l 1
 206.5390625 0.07421875 l 2
 153.533203125 0.07421875 113.823242188 14.1123046875 90.41796875 44.072265625 c 0
 67.037109375 74.0029296875 62.474609375 116.225585938 74.4453125 168.07421875 c 2
 131.625976562 415.75390625 l 1
 44.2666015625 415.75390625 l 1
 70.1982421875 528.07421875 l 1
 157.557617188 528.07421875 l 1
 179.200195312 621.817382812 l 1
 337.934570312 673.166015625 l 1
 304.4375 528.07421875 l 1
EndSplineSet
EndChar

StartChar: u
Encoding: 117 117 88
Width: 577
GlyphClass: 2
Flags: MW
HStem: -8.56641 135.36<225.485 259.935 225.485 307.916> 508.074 20G<98.0371 245.877 245.877 245.877 424.438 572.277 572.277 572.277>
VStem: 59.6611 147.84 386.062 147.84
LayerCount: 2
Fore
SplineSet
211.264648438 -8.56640625 m 0
 104.612304688 -8.56640625 -16.7548828125 30.8544921875 27.779296875 223.75390625 c 2
 98.037109375 528.07421875 l 1
 245.876953125 528.07421875 l 1
 176.948242188 229.513671875 l 2
 168.521484375 193.01171875 170.510742188 167.4921875 180.095703125 151.29296875 c 0
 189.193359375 135.91796875 208.456054688 126.793945312 242.514648438 126.793945312 c 0
 277.35546875 126.793945312 300.94140625 135.89453125 316.59375 150.79296875 c 0
 333.166992188 166.568359375 346.911132812 192.272460938 355.508789062 229.513671875 c 2
 424.4375 528.07421875 l 1
 572.27734375 528.07421875 l 1
 502.01953125 223.75390625 l 2
 476.514648438 113.280273438 404.567382812 -8.56640625 211.264648438 -8.56640625 c 0
EndSplineSet
EndChar

StartChar: v
Encoding: 118 118 89
Width: 544
GlyphClass: 2
Flags: MW
HStem: 0.0742188 21G<138.245 255.616 138.245 138.245> 508.074 20G<47.9277 208.004 208.004 208.004 430.605 590.746 590.746 590.746>
LayerCount: 2
Fore
SplineSet
47.927734375 528.07421875 m 1
 208.00390625 528.07421875 l 1
 248.0390625 217.487304688 l 1
 430.60546875 528.07421875 l 1
 590.74609375 528.07421875 l 1
 255.616210938 0.07421875 l 1
 138.245117188 0.07421875 l 1
 47.927734375 528.07421875 l 1
EndSplineSet
EndChar

StartChar: w
Encoding: 119 119 90
Width: 823
GlyphClass: 2
Flags: MW
HStem: 0.0742188 21G<107.926 229.299 107.926 107.926 440.071 561.455 440.071 440.071> 508.074 20G<49.085 205.697 205.697 205.697 401.716 511.424 511.424 511.424 707.439 865.106 865.106 865.106>
LayerCount: 2
Fore
SplineSet
49.0849609375 528.07421875 m 1
 205.697265625 528.07421875 l 1
 227.083007812 226.239257812 l 1
 401.715820312 528.07421875 l 1
 511.423828125 528.07421875 l 1
 548.421875 226.245117188 l 1
 707.439453125 528.07421875 l 1
 865.106445312 528.07421875 l 1
 561.455078125 0.07421875 l 1
 440.071289062 0.07421875 l 1
 406.1953125 307.923828125 l 1
 229.298828125 0.07421875 l 1
 107.92578125 0.07421875 l 1
 49.0849609375 528.07421875 l 1
EndSplineSet
EndChar

StartChar: x
Encoding: 120 120 91
Width: 520
GlyphClass: 2
Flags: MW
HStem: 0.0742188 21G<-79.6777 85.9092 -79.6777 -79.6777 286.23 450.598 286.23 286.23> 508.074 20G<51.7549 217.076 217.076 217.076 398.228 563.336 563.336 563.336>
LayerCount: 2
Fore
SplineSet
286.23046875 0.07421875 m 1
 217.828125 154.989257812 l 1
 85.9091796875 0.07421875 l 1
 -79.677734375 0.07421875 l 1
 165.5 271.736328125 l 1
 51.7548828125 528.07421875 l 1
 217.076171875 528.07421875 l 1
 278.51171875 388.455078125 l 1
 398.227539062 528.07421875 l 1
 563.3359375 528.07421875 l 1
 328.631835938 274.518554688 l 1
 450.59765625 0.07421875 l 1
 286.23046875 0.07421875 l 1
EndSplineSet
EndChar

StartChar: y
Encoding: 121 121 92
Width: 545
GlyphClass: 2
Flags: MW
HStem: -147.765 135.359<3.01855 32.2471 -28.2324 69.2588> 508.074 20G<47.6387 207.74 207.74 207.74 436.359 591.455 591.455 591.455>
LayerCount: 2
Fore
SplineSet
32.2470703125 -147.764648438 m 2
 -28.232421875 -147.764648438 l 1
 3.0185546875 -12.4052734375 l 1
 69.2587890625 -12.4052734375 l 2
 91.16015625 -12.4052734375 106.4609375 -9.10546875 114.153320312 -5.1962890625 c 0
 119.633789062 -2.4111328125 130.186523438 5.0888671875 141.124023438 24.474609375 c 1
 47.638671875 528.07421875 l 1
 207.740234375 528.07421875 l 1
 255.986328125 220.89453125 l 1
 436.359375 528.07421875 l 1
 591.455078125 528.07421875 l 1
 241.89453125 -33.9033203125 l 2
 194.228515625 -111.17578125 127.778320312 -147.764648438 32.2470703125 -147.764648438 c 2
EndSplineSet
EndChar

StartChar: z
Encoding: 122 122 93
Width: 508
GlyphClass: 2
Flags: MW
HStem: 0.0742188 128.64<180.227 390.859> 399.434 128.641<60.6582 512.758 90.3574 300.105>
LayerCount: 2
Fore
SplineSet
60.658203125 399.43359375 m 1
 90.357421875 528.07421875 l 1
 512.7578125 528.07421875 l 1
 485.15234375 408.501953125 l 1
 180.2265625 128.713867188 l 1
 420.557617188 128.713867188 l 1
 390.859375 0.07421875 l 1
 -31.541015625 0.07421875 l 1
 -3.939453125 119.630859375 l 1
 300.10546875 399.43359375 l 1
 60.658203125 399.43359375 l 1
EndSplineSet
EndChar

StartChar: braceleft
Encoding: 123 123 94
Width: 410
GlyphClass: 2
Flags: MW
HStem: -80.5664 124.801<166.805 304.095 251.295 275.282> 265.994 130.56<29.8525 74.3945 29.8525 74.3945> 614.474 124.801<374.317 382.944 382.944 435.744>
VStem: 138.382 141.12
LayerCount: 2
Fore
SplineSet
185.041992188 -80.56640625 m 2
 148.567382812 -80.56640625 37.2001953125 -76.4169921875 67.935546875 56.7138671875 c 2
 101.845703125 203.59375 l 2
 107.75390625 229.185546875 105.115234375 244.236328125 98.4619140625 252.0625 c 0
 91.875 259.80859375 74.8662109375 265.994140625 44.2529296875 265.994140625 c 2
 29.8525390625 265.994140625 l 1
 59.994140625 396.553710938 l 1
 74.39453125 396.553710938 l 2
 105.0078125 396.553710938 124.874023438 402.739257812 135.037109375 410.486328125 c 0
 145.303710938 418.311523438 154.891601562 433.362304688 160.799804688 458.954101562 c 2
 194.044921875 602.954101562 l 2
 208.795898438 666.845703125 252.403320312 739.274414062 374.317382812 739.274414062 c 2
 464.557617188 739.274414062 l 1
 435.744140625 614.473632812 l 1
 382.944335938 614.473632812 l 2
 362.4296875 614.473632812 349.451171875 610.595703125 344.021484375 606.985351562 c 0
 339.268554688 603.82421875 333.776367188 596.936523438 330.2890625 581.833984375 c 2
 300.590820312 453.194335938 l 2
 285.358398438 387.21875 261.881835938 353.334960938 223.079101562 331.274414062 c 1
 251.6796875 309.224609375 259.534179688 275.360351562 244.295898438 209.354492188 c 2
 213.709960938 76.875 l 2
 210.224609375 61.771484375 212.536132812 54.8837890625 215.829101562 51.72265625 c 0
 219.591796875 48.1123046875 230.780273438 44.234375 251.294921875 44.234375 c 2
 304.094726562 44.234375 l 1
 275.282226562 -80.56640625 l 1
 185.041992188 -80.56640625 l 2
EndSplineSet
Substitution2: "'rtla' Right to Left Alternates lookup 0 subtable" braceright
EndChar

StartChar: bar
Encoding: 124 124 95
Width: 309
GlyphClass: 2
Flags: MW
VStem: 95.1816 139.2
LayerCount: 2
Fore
SplineSet
182.317382812 739.274414062 m 1
 321.517578125 739.274414062 l 1
 132.2421875 -80.56640625 l 1
 -6.9580078125 -80.56640625 l 1
 182.317382812 739.274414062 l 1
EndSplineSet
EndChar

StartChar: braceright
Encoding: 125 125 96
Width: 410
GlyphClass: 2
Flags: MW
HStem: -80.5664 124.801<-21.3457 30.4932 30.4932 40.082 -50.1582 30.4932> 265.994 130.56<325.257 385.434 340.892 385.434> 614.474 124.801<139.117 162.145 110.304 229.357>
VStem: 149.901 140.16
LayerCount: 2
Fore
SplineSet
219.615234375 56.7138671875 m 2
 204.762695312 -7.6181640625 161.21484375 -80.56640625 40.08203125 -80.56640625 c 2
 -50.158203125 -80.56640625 l 1
 -21.345703125 44.234375 l 1
 30.4931640625 44.234375 l 2
 50.9150390625 44.234375 63.9970703125 48.173828125 69.9462890625 52.162109375 c 0
 75.509765625 55.8916015625 80.8447265625 62.732421875 84.109375 76.8740234375 c 2
 114.6953125 209.354492188 l 2
 129.926757812 275.329101562 153.40234375 309.212890625 192.206054688 331.274414062 c 1
 163.604492188 353.323242188 155.750976562 387.1875 170.990234375 453.194335938 c 2
 200.688476562 581.833984375 l 2
 204.17578125 596.936523438 201.862304688 603.82421875 198.568359375 606.985351562 c 0
 194.883789062 610.522460938 183.362304688 614.473632812 162.14453125 614.473632812 c 2
 110.303710938 614.473632812 l 1
 139.1171875 739.274414062 l 1
 229.357421875 739.274414062 l 2
 265.36328125 739.274414062 376.271484375 735.264648438 345.724609375 602.954101562 c 2
 312.479492188 458.954101562 l 2
 306.745117188 434.115234375 309.286132812 419.107421875 316.084960938 410.833984375 c 0
 322.586914062 402.921875 339.763671875 396.553710938 371.033203125 396.553710938 c 2
 385.43359375 396.553710938 l 1
 355.291992188 265.994140625 l 1
 340.891601562 265.994140625 l 2
 309.622070312 265.994140625 289.504882812 259.626953125 279.349609375 251.713867188 c 0
 268.73046875 243.440429688 259.259765625 228.432617188 253.525390625 203.59375 c 2
 219.615234375 56.7138671875 l 2
EndSplineSet
Substitution2: "'rtla' Right to Left Alternates lookup 0 subtable" braceleft
EndChar

StartChar: asciitilde
Encoding: 126 126 97
Width: 535
GlyphClass: 2
Flags: MW
HStem: 187.273 127.68<301.494 348.457> 241.994 126.719<160.102 212.89>
LayerCount: 2
Fore
SplineSet
198.524414062 368.712890625 m 0x40
 227.254882812 368.712890625 248.981445312 363.27734375 290.177734375 336.17578125 c 0
 322.26171875 316.165039062 329.762695312 314.953125 340.673828125 314.953125 c 0
 356.240234375 314.953125 373.203125 319.099609375 403.635742188 360.739257812 c 2
 413.905273438 374.790039062 l 1
 500.499023438 313.016601562 l 1
 482.401367188 285.794921875 456.750976562 247.212890625 410.890625 217.561523438 c 0
 379.939453125 197.549804688 347.575195312 187.2734375 315.037109375 187.2734375 c 0x80
 287.950195312 187.2734375 265.177734375 192.266601562 223.536132812 220.8125 c 0
 191.389648438 240.700195312 184.873046875 241.994140625 174.071289062 241.994140625 c 0
 146.131835938 241.994140625 128.018554688 218.328125 100.540039062 182.37109375 c 1
 14.0986328125 244.03515625 l 1
 32.8359375 271.439453125 59.0771484375 309.822265625 104.25 338.922851562 c 0
 134.779296875 358.58984375 166.612304688 368.712890625 198.524414062 368.712890625 c 0x40
EndSplineSet
EndChar

StartChar: exclamdown
Encoding: 161 161 99
Width: 264
GlyphClass: 2
Flags: MW
HStem: 373.514 154.561<101.878 222.674 66.1943 258.357>
VStem: 63.502 156.479 83.4551 116.573
LayerCount: 2
Fore
SplineSet
101.877929688 528.07421875 m 1xc0
 258.357421875 528.07421875 l 1
 222.673828125 373.513671875 l 1
 66.1943359375 373.513671875 l 1
 101.877929688 528.07421875 l 1xc0
70.85546875 307.274414062 m 1xa0
 187.428710938 307.274414062 l 1
 106.520507812 -149.685546875 l 1
 -59.2314453125 -149.685546875 l 1
 70.85546875 307.274414062 l 1xa0
EndSplineSet
EndChar

StartChar: cent
Encoding: 162 162 100
Width: 564
GlyphClass: 2
Flags: MW
HStem: -95.9258 222.72<227.349 240.057 142.137 259.714> 402.313 219.841<307.917 321.08>
VStem: 51.9805 146.882 247.822 97.9199 384.142 144.96
LayerCount: 2
Fore
SplineSet
162.880859375 -6.0712890625 m 1
 112.025390625 0.9296875 -23.8583984375 33.3564453125 22.7578125 235.274414062 c 2
 36.4990234375 294.793945312 l 2
 52.85546875 365.639648438 84.0546875 422.990234375 131.26953125 464.741210938 c 0
 174.962890625 503.377929688 227.6484375 526.37109375 287.612304688 534.205078125 c 1
 307.916992188 622.154296875 l 1
 405.836914062 622.154296875 l 1
 385.301757812 533.206054688 l 1
 438.106445312 525.809570312 477.983398438 506.551757812 503.26953125 474.516601562 c 0
 530.6484375 439.831054688 537.370117188 393.505859375 524.553710938 337.994140625 c 2
 519.899414062 317.833984375 l 1
 374.936523438 317.833984375 l 1
 379.147460938 336.073242188 l 2
 384.048828125 357.30078125 380.34375 372.176757812 368.298828125 383.8046875 c 0
 356.116210938 395.567382812 336.03515625 402.313476562 306.125 402.313476562 c 0
 234.842773438 402.313476562 199.481445312 364.530273438 182.9375 292.873046875 c 2
 169.861328125 236.233398438 l 2
 160.241210938 194.5625 163.33984375 167.29296875 175.025390625 151.76953125 c 0
 186.959960938 135.915039062 209.301757812 126.793945312 245.395507812 126.793945312 c 0
 274.033203125 126.793945312 296.227539062 133.224609375 313.077148438 144.384765625 c 0
 329.735351562 155.416992188 339.694335938 169.327148438 344.28125 189.194335938 c 2
 348.4921875 207.43359375 l 1
 493.452148438 207.43359375 l 1
 489.241210938 189.194335938 l 2
 476.561523438 134.274414062 448.48828125 88.279296875 405.140625 53.6318359375 c 0
 365.12890625 21.6494140625 316.68359375 2.3759765625 261.0390625 -5.0400390625 c 1
 240.056640625 -95.92578125 l 1
 142.13671875 -95.92578125 l 1
 162.880859375 -6.0712890625 l 1
EndSplineSet
EndChar

StartChar: sterling
Encoding: 163 163 101
Width: 524
GlyphClass: 2
Flags: MW
HStem: 0.0751953 137.279<185.754 429.259> 265.034 138.24<266.025 389.63 234.11 421.545> 565.514 135.361<357.149 384.705>
VStem: 101.901 154.561
LayerCount: 2
Fore
SplineSet
360.12109375 565.513671875 m 0
 316.395507812 565.513671875 298.029296875 541.896484375 290.848632812 510.793945312 c 2
 266.025390625 403.274414062 l 1
 421.544921875 403.274414062 l 1
 389.629882812 265.034179688 l 1
 234.110351562 265.034179688 l 1
 223.693359375 219.9140625 l 2
 214.375 179.549804688 199.85546875 154.70703125 185.75390625 137.354492188 c 1
 460.952148438 137.354492188 l 1
 429.258789062 0.0751953125 l 1
 -29.62109375 0.0751953125 l 1
 -0.1240234375 127.83984375 l 1
 30.548828125 139.26171875 52.390625 147.39453125 66.251953125 207.434570312 c 2
 79.5498046875 265.03515625 l 1
 12.349609375 265.03515625 l 1
 44.2646484375 403.275390625 l 1
 111.46484375 403.275390625 l 1
 132.963867188 496.39453125 l 2
 147.473632812 559.245117188 177.189453125 610.274414062 222.891601562 646.83203125 c 0
 268.618164062 683.411132812 324.84765625 700.875 389.451171875 700.875 c 0
 450.013671875 700.875 496.081054688 685.833984375 525.36328125 654.166992188 c 0
 554.838867188 622.291992188 562.526367188 577.315429688 549.828125 522.315429688 c 2
 546.50390625 507.915039062 l 1
 400.583984375 507.915039062 l 1
 403.908203125 522.315429688 l 2
 407.8125 539.2265625 409.288085938 565.513671875 360.12109375 565.513671875 c 0
EndSplineSet
EndChar

StartChar: currency
Encoding: 164 164 102
Width: 599
GlyphClass: 2
Flags: MW
HStem: 107.594 122.88<264.686 266.413> 404.234 122.88<328.253 329.853>
VStem: 98.0615 125.762 391.822 125.76
LayerCount: 2
Fore
SplineSet
248.642578125 107.59375 m 0
 213.1015625 107.59375 181.946289062 115.385742188 155.7265625 130.994140625 c 1
 75.865234375 66.11328125 l 1
 6.3046875 156.553710938 l 1
 87.4150390625 222.450195312 l 1
 79.501953125 250.700195312 79.7822265625 282.674804688 87.8994140625 317.833984375 c 0
 95.611328125 351.237304688 110.573242188 383.13671875 132.502929688 413.104492188 c 1
 80.9951171875 480.07421875 l 1
 192.315429688 570.514648438 l 1
 243.08984375 504.499023438 l 1
 276.715820312 519.547851562 311.009765625 527.114257812 345.49609375 527.114257812 c 0
 380.010742188 527.114257812 410.833984375 519.53515625 437.526367188 504.461914062 c 1
 519.821289062 570.5078125 l 1
 588.1328125 480.080078125 l 1
 506.786132812 413.1796875 l 1
 514.8984375 383.189453125 515.138671875 351.264648438 507.419921875 317.833984375 c 0
 499.384765625 283.030273438 484.75 250.794921875 463.547851562 221.61328125 c 1
 514.32421875 155.59375 l 1
 403.00390625 65.1533203125 l 1
 352.364257812 130.994140625 l 1
 318.936523438 115.385742188 284.18359375 107.59375 248.642578125 107.59375 c 0
381.66015625 317.833984375 m 0
 387.565429688 343.411132812 384.272460938 363.393554688 372.1796875 379.829101562 c 0
 360.174804688 396.145507812 342.579101562 404.234375 317.126953125 404.234375 c 0
 292.408203125 404.234375 271.389648438 396.215820312 251.765625 379.829101562 c 0
 232.084960938 363.393554688 219.56640625 343.411132812 213.661132812 317.833984375 c 0
 207.756835938 292.258789062 211.006835938 272.060546875 223.092773438 255.272460938 c 0
 235.104492188 238.588867188 252.360351562 230.473632812 277.010742188 230.473632812 c 0
 302.396484375 230.473632812 323.7109375 238.661132812 343.340820312 255.272460938 c 0
 363.178710938 272.060546875 375.755859375 292.258789062 381.66015625 317.833984375 c 0
EndSplineSet
EndChar

StartChar: yen
Encoding: 165 165 103
Width: 563
GlyphClass: 2
Flags: MW
HStem: 0.0742188 21G<129.739 283.34 129.739 129.739> 112.394 113.28<33.9834 155.67 7.83008 181.823 335.424 457.11> 249.674 113.28<65.6768 182.635 65.6768 187.364 39.5244 182.635 397.999 488.805> 671.274 20G<80.833 250.377 250.377 250.377 481.675 651.397 651.397 651.397>
VStem: 213.262 153.601
LayerCount: 2
Fore
SplineSet
309.270507812 112.393554688 m 1
 283.33984375 0.07421875 l 1
 129.739257812 0.07421875 l 1
 155.669921875 112.393554688 l 1
 7.830078125 112.393554688 l 1
 33.9833984375 225.673828125 l 1
 181.823242188 225.673828125 l 1
 187.364257812 249.673828125 l 1
 39.5244140625 249.673828125 l 1
 65.6767578125 362.954101562 l 1
 182.634765625 362.954101562 l 1
 80.8330078125 691.274414062 l 1
 250.376953125 691.274414062 l 1
 311.803710938 444.853515625 l 1
 481.674804688 691.274414062 l 1
 651.397460938 691.274414062 l 1
 397.999023438 362.954101562 l 1
 514.95703125 362.954101562 l 1
 488.8046875 249.673828125 l 1
 340.96484375 249.673828125 l 1
 335.423828125 225.673828125 l 1
 483.263671875 225.673828125 l 1
 457.110351562 112.393554688 l 1
 309.270507812 112.393554688 l 1
EndSplineSet
EndChar

StartChar: brokenbar
Encoding: 166 166 104
Width: 309
GlyphClass: 2
Flags: MW
VStem: 95.1816 139.2
LayerCount: 2
Fore
SplineSet
182.317382812 739.274414062 m 1
 321.517578125 739.274414062 l 1
 236.852539062 372.553710938 l 1
 97.65234375 372.553710938 l 1
 182.317382812 739.274414062 l 1
78.1494140625 288.07421875 m 1
 217.349609375 288.07421875 l 1
 132.2421875 -80.56640625 l 1
 -6.9580078125 -80.56640625 l 1
 78.1494140625 288.07421875 l 1
EndSplineSet
EndChar

StartChar: section
Encoding: 167 167 105
Width: 565
GlyphClass: 2
Flags: MW
HStem: -161.206 126.721<162.828 196.998> 523.273 21G<399.329 535.649 399.329 399.329> 589.513 126.722<335.232 377.052>
VStem: 64.4619 144.001 88.4619 143.04 353.422 143.04 373.583 143.999
LayerCount: 2
Fore
SplineSet
384.6875 132.899414062 m 1xea
 400.857421875 119.58984375 433.266601562 88.1201171875 414.93359375 8.712890625 c 0
 403.109375 -42.50390625 373.4609375 -85.0087890625 327.4296875 -115.85546875 c 0
 281.658203125 -146.529296875 227.5703125 -161.206054688 166.424804688 -161.206054688 c 0
 102.826171875 -161.206054688 54.9951171875 -146.302734375 25.2734375 -114.54296875 c 0
 -4.5732421875 -82.646484375 -12.3310546875 -37.3115234375 0.5107421875 18.3154296875 c 2
 3.8349609375 32.71484375 l 1
 141.114257812 32.71484375 l 1
 137.790039062 18.3154296875 l 2
 133.850585938 1.25 129.015625 -34.4853515625 196.640625 -34.4853515625 c 0
 228.46875 -34.4853515625 263.879882812 -26 272.116210938 9.6748046875 c 0
 276.368164062 28.0947265625 272.301757812 40.40625 258.598632812 50.1884765625 c 0
 238.489257812 64.544921875 208.53515625 72.8056640625 170.323242188 83.0732421875 c 0
 114.5546875 98.0595703125 12.990234375 138.90234375 44.76953125 276.5546875 c 0xf4
 49.6826171875 297.83203125 68.9208984375 377.40234375 159.75 427.282226562 c 1
 129.078125 455.244140625 119.4765625 496.188476562 131.270507812 547.275390625 c 0
 153.12109375 641.918945312 247.803710938 716.234375 376.678710938 716.234375 c 0
 439.706054688 716.234375 486.822265625 700.954101562 515.42578125 668.369140625 c 0
 543.901367188 635.9296875 551.384765625 591.431640625 538.973632812 537.672851562 c 2
 535.649414062 523.2734375 l 1
 399.329101562 523.2734375 l 1
 402.653320312 537.672851562 l 2
 407.50390625 558.681640625 407.643554688 589.512695312 346.4609375 589.512695312 c 0
 324.00390625 589.512695312 307.296875 584.833007812 295.575195312 577.44140625 c 0
 284.366210938 570.37109375 277.5234375 561.190429688 274.088867188 546.313476562 c 0
 269.95703125 528.41796875 273.823242188 517.065429688 286.565429688 508.306640625 c 0
 300.719726562 498.578125 330.403320312 487.192382812 374.64453125 475.7890625 c 0
 429.663085938 460.91015625 531.090820312 420.361328125 499.663085938 284.233398438 c 0
 490.709960938 245.453125 473.577148438 211.381835938 447.931640625 183.071289062 c 0
 429.439453125 162.658203125 408.228515625 145.858398438 384.6875 132.899414062 c 1xea
256.775390625 209.354492188 m 0
 302.719726562 209.354492188 342.318359375 226.4296875 354.555664062 279.434570312 c 0xf2
 361.000976562 307.350585938 362.396484375 349.514648438 289.134765625 349.514648438 c 0
 213.005859375 349.514648438 195.54296875 305.888671875 189.435546875 279.434570312 c 0
 180.396484375 240.282226562 193.334960938 209.354492188 256.775390625 209.354492188 c 0
EndSplineSet
EndChar

StartChar: dieresis
Encoding: 168 168 106
Width: 507
GlyphClass: 2
Flags: MW
HStem: 563.594 140.16<165.477 264.638 133.118 296.996 165.477 352.958 385.316 484.478>
VStem: 86.542 131.52 306.382 131.52
LayerCount: 2
Fore
SplineSet
165.4765625 703.75390625 m 1
 296.99609375 703.75390625 l 1
 264.637695312 563.59375 l 1
 133.118164062 563.59375 l 1
 165.4765625 703.75390625 l 1
385.31640625 703.75390625 m 1
 516.8359375 703.75390625 l 1
 484.477539062 563.59375 l 1
 352.958007812 563.59375 l 1
 385.31640625 703.75390625 l 1
EndSplineSet
EndChar

StartChar: copyright
Encoding: 169 169 107
Width: 782
GlyphClass: 2
Flags: MW
HStem: -8.56641 102.721<303.965 379.115 303.965 421.891> 142.154 104.64<359.716 377.766> 437.834 105.599<419.541 433.178> 592.394 101.761<419.006 494.131>
VStem: 60.6221 106.562 230.54 114.241 460.941 112.32 639.502 106.562
LayerCount: 2
Fore
SplineSet
317.825195312 -8.56640625 m 0
 109.693359375 -8.56640625 7.8681640625 133.348632812 56.22265625 342.793945312 c 0
 105.178710938 554.844726562 272.370117188 694.154296875 480.061523438 694.154296875 c 0
 688.193359375 694.154296875 790.018554688 552.239257812 741.6640625 342.793945312 c 0
 693.309570312 133.348632812 525.95703125 -8.56640625 317.825195312 -8.56640625 c 0
635.102539062 342.793945312 m 0
 653.262695312 421.453125 645.837890625 481.7421875 614.55859375 525.900390625 c 0
 583.373046875 569.928710938 531.693359375 592.393554688 456.568359375 592.393554688 c 0
 381.443359375 592.393554688 319.390625 569.928710938 267.875 525.900390625 c 0
 216.20703125 481.7421875 180.944335938 421.453125 162.784179688 342.793945312 c 0
 144.624023438 264.131835938 152.091796875 204.02734375 183.413085938 160.203125 c 0
 214.66015625 116.482421875 266.390625 94.154296875 341.540039062 94.154296875 c 0
 416.689453125 94.154296875 478.73046875 116.482421875 530.165039062 160.203125 c 0
 581.720703125 204.02734375 616.942382812 264.131835938 635.102539062 342.793945312 c 0
381.579101562 246.793945312 m 0
 398.2421875 246.793945312 435.36328125 251.060546875 443.909179688 288.07421875 c 2
 447.8984375 305.354492188 l 1
 560.21875 305.354492188 l 1
 556.229492188 288.07421875 l 2
 545.986328125 243.708984375 521.901367188 206.852539062 484.495117188 180.55859375 c 0
 447.34765625 154.447265625 402.91015625 142.154296875 352.62109375 142.154296875 c 0
 301.176757812 142.154296875 261.9296875 157.294921875 237.532226562 188.555664062 c 0
 212.849609375 220.177734375 208.28515625 265.452148438 221.264648438 321.672851562 c 2
 231.016601562 363.913085938 l 2
 243.99609375 420.133789062 269.463867188 465.409179688 308.747070312 497.03125 c 0
 347.580078125 528.291992188 393.818359375 543.432617188 445.262695312 543.432617188 c 0
 495.586914062 543.432617188 534.34765625 530.951171875 559.352539062 504.485351562 c 0
 584.481445312 477.887695312 591.515625 440.919921875 581.272460938 396.552734375 c 2
 576.83984375 377.353515625 l 1
 464.51953125 377.353515625 l 1
 468.508789062 394.6328125 l 2
 471.8359375 409.041992188 469.512695312 418.379882812 462.24609375 425.737304688 c 0
 454.74609375 433.328125 442.59375 437.833984375 423.762695312 437.833984375 c 0
 382.900390625 437.833984375 357.829101562 418.368164062 345.036132812 362.954101562 c 2
 335.505859375 321.673828125 l 2
 323.125 268.046875 337.852539062 246.793945312 381.579101562 246.793945312 c 0
EndSplineSet
EndChar

StartChar: ordfeminine
Encoding: 170 170 108
Width: 388
GlyphClass: 2
Flags: MW
HStem: 409.034 96<162.585 246.783> 538.634 84.4805<223.296 302.285 239.021 282.652> 654.794 92.1602<264.469 284.618>
VStem: 244.942 111.359
LayerCount: 2
Fore
SplineSet
286.809570312 746.954101562 m 0
 320.69921875 746.954101562 444.852539062 745.407226562 414.403320312 613.513671875 c 2
 368.08203125 412.874023438 l 1
 256.72265625 412.874023438 l 1
 259.962890625 426.911132812 l 1
 241.124023438 416.913085938 218.307617188 409.034179688 181.916015625 409.034179688 c 0
 143.254882812 409.034179688 113.405273438 418.1953125 94.787109375 438.4921875 c 0
 76.201171875 458.752929688 71.2841796875 487.034179688 78.9853515625 520.393554688 c 0
 86.6962890625 553.793945312 113.27734375 610.288085938 204.694335938 621.194335938 c 1
 111.85546875 621.194335938 l 1
 115.623046875 637.513671875 l 2
 123.204101562 670.349609375 143.07421875 698.1640625 173.430664062 718.041992188 c 0
 204.069335938 738.104492188 242.12890625 746.954101562 286.809570312 746.954101562 c 0
302.28515625 623.114257812 m 1
 305.04296875 638.442382812 304.662109375 654.793945312 264.57421875 654.793945312 c 0
 253.350585938 654.793945312 226.748046875 653.123046875 223.143554688 637.513671875 c 2
 219.686523438 622.538085938 l 1
 225.965820312 622.92578125 232.411132812 623.114257812 239.020507812 623.114257812 c 2
 302.28515625 623.114257812 l 1
230.076171875 538.633789062 m 2
 216.515625 538.633789062 206.5390625 536.65234375 200.713867188 534.150390625 c 0
 194.134765625 531.323242188 192.354492188 529.094726562 191.010742188 523.274414062 c 0
 189.681640625 517.517578125 190.541015625 514.59765625 194.771484375 511.263671875 c 0
 199.0703125 507.875976562 208.1796875 505.034179688 223.279296875 505.034179688 c 0
 270.286132812 505.034179688 279.059570312 527.163085938 282.65234375 538.633789062 c 1
 230.076171875 538.633789062 l 2
EndSplineSet
EndChar

StartChar: guillemotleft
Encoding: 171 171 109
Width: 586
GlyphClass: 2
Flags: W
LayerCount: 2
Fore
SplineSet
334.735351562 517.928710938 m 1
 298.119140625 359.32421875 l 1
 173.05859375 267.9140625 l 1
 255.911132812 176.50390625 l 1
 219.294921875 17.8994140625 l 1
 -3.837890625 267.9140625 l 1
 334.735351562 517.928710938 l 1
579.53515625 517.928710938 m 1
 542.91015625 359.287109375 l 1
 417.004882812 267.9140625 l 1
 500.719726562 176.541015625 l 1
 464.094726562 17.8994140625 l 1
 240.961914062 267.9140625 l 1
 579.53515625 517.928710938 l 1
EndSplineSet
EndChar

StartChar: logicalnot
Encoding: 172 172 110
Width: 535
GlyphClass: 2
Flags: MW
HStem: 243.914 135.36<59.8447 321.395 28.5947 499.524>
VStem: 348.622 146.88
LayerCount: 2
Fore
SplineSet
321.39453125 243.9140625 m 1
 28.5947265625 243.9140625 l 1
 59.8447265625 379.274414062 l 1
 499.524414062 379.274414062 l 1
 438.575195312 115.274414062 l 1
 291.6953125 115.274414062 l 1
 321.39453125 243.9140625 l 1
EndSplineSet
EndChar

StartChar: uni00AD
Encoding: 173 173 111
Width: 410
GlyphClass: 2
Flags: MW
HStem: 276.554 139.2<64.4258 357.729 32.2891 389.866>
VStem: 51.9814 325.44
LayerCount: 2
Fore
SplineSet
64.42578125 415.75390625 m 1
 389.866210938 415.75390625 l 1
 357.729492188 276.553710938 l 1
 32.2890625 276.553710938 l 1
 64.42578125 415.75390625 l 1
EndSplineSet
EndChar

StartChar: registered
Encoding: 174 174 112
Width: 502
GlyphClass: 2
Flags: MW
HStem: 295.754 67.1992<240.781 278.763 240.781 301.623> 540.553 71.04<290.998 308.277 290.998 290.998> 625.033 67.2002<301.264 338.939>
VStem: 64.4619 69.1191 171.021 78.7207 385.101 70.0811
LayerCount: 2
Fore
SplineSet
244.08203125 295.75390625 m 0
 127.934570312 295.75390625 69.8544921875 385.206054688 95.080078125 494.47265625 c 0
 121.431640625 608.611328125 225.547851562 692.233398438 335.6171875 692.233398438 c 0
 452.366210938 692.233398438 510.762695312 602.598632812 485.799804688 494.473632812 c 0
 460.12109375 383.24609375 359.1640625 295.75390625 244.08203125 295.75390625 c 0
415.71875 494.47265625 m 0
 424.921875 534.333007812 420.134765625 565.1171875 402.29296875 589.056640625 c 0
 384.41015625 613.049804688 357.776367188 625.033203125 320.1015625 625.033203125 c 0
 282.426757812 625.033203125 250.259765625 613.049804688 221.298828125 589.056640625 c 0
 192.40234375 565.1171875 173.40234375 534.333007812 164.19921875 494.47265625 c 0
 154.998046875 454.616210938 159.741210938 423.630859375 177.561523438 399.34765625 c 0
 195.388671875 375.053710938 221.966796875 362.953125 259.595703125 362.953125 c 0
 297.9296875 362.953125 330.206054688 375.096679688 358.838867188 399.283203125 c 0
 387.572265625 423.5546875 406.5078125 454.573242188 415.71875 494.47265625 c 0
228.677734375 611.592773438 m 1
 327.55859375 611.592773438 l 2
 353.341796875 611.592773438 373.944335938 605.6953125 387.0390625 591.84765625 c 0
 400.334960938 577.782226562 403.35546875 557.348632812 397.92578125 533.833007812 c 0
 391.766601562 507.15234375 375.825195312 485.157226562 352.171875 470.654296875 c 1
 375.703125 379.2734375 l 1
 289.774414062 379.2734375 l 1
 271.541015625 454.153320312 l 1
 271.05078125 454.153320312 l 1
 253.763671875 379.2734375 l 1
 175.04296875 379.2734375 l 1
 228.677734375 611.592773438 l 1
304.731445312 525.193359375 m 2
 311.030273438 525.193359375 314.64453125 526.490234375 315.884765625 527.197265625 c 0
 316.788085938 527.712890625 317.858398438 527.994140625 318.984375 532.873046875 c 0
 320.111328125 537.751953125 319.170898438 538.033203125 318.504882812 538.548828125 c 0
 317.591796875 539.255859375 314.576171875 540.552734375 308.27734375 540.552734375 c 2
 290.998046875 540.552734375 l 1
 287.452148438 525.193359375 l 1
 304.731445312 525.193359375 l 2
EndSplineSet
EndChar

StartChar: macron
Encoding: 175 175 113
Width: 507
GlyphClass: 2
Flags: MW
HStem: 566.474 134.4<173.451 476.503 142.423 507.531>
LayerCount: 2
Fore
SplineSet
173.451171875 700.874023438 m 1
 507.53125 700.874023438 l 1
 476.502929688 566.473632812 l 1
 142.422851562 566.473632812 l 1
 173.451171875 700.874023438 l 1
EndSplineSet
EndChar

StartChar: degree
Encoding: 176 176 114
Width: 404
GlyphClass: 2
Flags: MW
HStem: 390.794 100.801<237.78 253.971 237.78 268.195> 601.034 100.8<263.045 279.236>
VStem: 60.6211 103.679 267.98 103.681
LayerCount: 2
Fore
SplineSet
414.248046875 546.315429688 m 0
 394.440429688 460.51953125 313.565429688 390.793945312 222.82421875 390.793945312 c 0
 179.15234375 390.793945312 144.8984375 405.7265625 122.125976562 435.333984375 c 0
 99.3544921875 464.94140625 93.1259765625 502.642578125 103.208007812 546.315429688 c 0
 124.158203125 637.061523438 208.84375 701.833984375 294.6328125 701.833984375 c 0
 382.125 701.833984375 434.446289062 633.803710938 414.248046875 546.315429688 c 0
310.567382812 546.314453125 m 0
 314.424804688 563.024414062 312.369140625 575.520507812 304.938476562 585.83203125 c 0
 297.5625 596.072265625 287.112304688 601.034179688 271.360351562 601.034179688 c 0
 254.73046875 601.034179688 241.891601562 596.048828125 230.403320312 586.319335938 c 0
 218.798828125 576.4921875 210.94140625 563.876953125 206.88671875 546.314453125 c 0
 202.831054688 528.74609375 204.865234375 516.130859375 211.930664062 506.309570312 c 0
 218.927734375 496.581054688 229.46484375 491.594726562 246.094726562 491.594726562 c 0
 261.846679688 491.594726562 274.586914062 496.555664062 286.690429688 506.795898438 c 0
 298.88671875 517.114257812 306.7109375 529.608398438 310.567382812 546.314453125 c 0
EndSplineSet
EndChar

StartChar: plusminus
Encoding: 177 177 115
Width: 535
GlyphClass: 2
Flags: MW
HStem: -34.4863 138.24<-5.68457 406.88 -37.6006 438.796> 269.834 138.24<64.5732 186.259 32.6582 218.174 356.414 477.139 64.5732 324.499>
VStem: 207.502 138.24
LayerCount: 2
Fore
SplineSet
324.499023438 269.833984375 m 1
 289.037109375 116.234375 l 1
 150.796875 116.234375 l 1
 186.258789062 269.833984375 l 1
 32.658203125 269.833984375 l 1
 64.5732421875 408.07421875 l 1
 218.173828125 408.07421875 l 1
 253.634765625 561.673828125 l 1
 391.875 561.673828125 l 1
 356.4140625 408.07421875 l 1
 509.053710938 408.07421875 l 1
 477.138671875 269.833984375 l 1
 324.499023438 269.833984375 l 1
-5.6845703125 103.75390625 m 1
 438.795898438 103.75390625 l 1
 406.879882812 -34.486328125 l 1
 -37.6005859375 -34.486328125 l 1
 -5.6845703125 103.75390625 l 1
EndSplineSet
EndChar

StartChar: uni00B2
Encoding: 178 178 116
Width: 400
GlyphClass: 2
Flags: MW
HStem: 412.874 114.24<281.452 378.643> 739.274 111.359<298.475 308.016>
VStem: 55.8223 311.04 237.261 129.601
LayerCount: 2
Fore
SplineSet
293.676757812 739.274414062 m 0xd0
 264.661132812 739.274414062 259.461914062 724.137695312 257.416015625 715.274414062 c 2
 252.76171875 695.114257812 l 1
 128.920898438 695.114257812 l 1
 134.240234375 718.154296875 l 2
 143.455078125 758.0703125 165.3359375 791.52734375 199.272460938 815.55078125 c 0
 233.225585938 839.584960938 274.684570312 850.633789062 322.265625 850.633789062 c 0
 368.74609375 850.633789062 404.6875 839.115234375 427.897460938 814.569335938 c 0
 450.982421875 790.157226562 458.198242188 757.47265625 449.341796875 719.114257812 c 2
 447.569335938 711.43359375 l 2xd0
 436.084960938 661.689453125 406.388671875 631.688476562 347.049804688 582.020507812 c 2
 281.452148438 527.114257812 l 1
 405.016601562 527.114257812 l 1
 378.642578125 412.874023438 l 1
 67.6025390625 412.874023438 l 1
 90.02734375 510.0078125 l 1xe0
 152.733398438 561.202148438 215.40234375 612.442382812 278.131835938 663.607421875 c 0
 307.62890625 685.481445312 314.86328125 697.984375 317.303710938 708.553710938 c 2
 318.633789062 714.314453125 l 2
 321.314453125 725.92578125 322.354492188 739.274414062 293.676757812 739.274414062 c 0xd0
EndSplineSet
EndChar

StartChar: uni00B3
Encoding: 179 179 117
Width: 394
GlyphClass: 2
Flags: MW
HStem: 406.154 109.44<220.918 255.965 220.918 263.473> 577.994 110.399<232.972 244.923 207.483 269.451> 741.194 109.439<272.041 303.439>
VStem: 49.1025 118.08 238.223 124.799
LayerCount: 2
Fore
SplineSet
404.721679688 542.473632812 m 2
 385.885742188 460.885742188 311.135742188 406.154296875 215.810546875 406.154296875 c 0
 167.231445312 406.154296875 130.625 416.161132812 108.157226562 438.658203125 c 0
 85.486328125 461.360351562 79.8203125 494.904296875 89.251953125 535.754882812 c 2
 94.349609375 557.834960938 l 1
 212.4296875 557.834960938 l 1
 207.775390625 537.674804688 l 2
 206.094726562 530.397460938 202.677734375 515.594726562 239.158203125 515.594726562 c 0
 272.771484375 515.594726562 277.815429688 533.345703125 279.701171875 541.513671875 c 2
 281.252929688 548.234375 l 2
 283.458984375 557.788085938 288.123046875 577.994140625 244.922851562 577.994140625 c 2
 207.483398438 577.994140625 l 1
 232.971679688 688.393554688 l 1
 269.451171875 688.393554688 l 2
 306.891601562 688.393554688 310.46484375 703.873046875 312.2109375 711.43359375 c 2
 313.762695312 718.154296875 l 2
 315.850585938 727.19921875 318.516601562 741.194335938 288.361328125 741.194335938 c 0
 255.720703125 741.194335938 252.543945312 727.431640625 250.844726562 720.07421875 c 2
 245.96875 698.954101562 l 1
 128.848632812 698.954101562 l 1
 133.502929688 719.114257812 l 2
 151.859375 798.624023438 213.47265625 850.633789062 317.467773438 850.633789062 c 0
 361.903320312 850.633789062 396.358398438 840.17578125 418.782226562 817.63671875 c 0
 441.305664062 794.998046875 448.047851562 763.399414062 439.375 725.833984375 c 2
 437.823242188 719.114257812 l 2
 434.256835938 703.665039062 422.159179688 668.931640625 382.858398438 643.19140625 c 1
 405.202148438 626.370117188 416.736328125 594.513671875 406.495117188 550.154296875 c 2
 404.721679688 542.473632812 l 2
EndSplineSet
EndChar

StartChar: acute
Encoding: 180 180 118
Width: 507
GlyphClass: 2
Flags: MW
HStem: 564.554 156.48<160.699 497.954>
VStem: 113.901 301.129
LayerCount: 2
Fore
SplineSet
323.891601562 721.034179688 m 1
 497.954101562 721.034179688 l 1
 299.46484375 564.553710938 l 1
 160.69921875 564.553710938 l 1
 323.891601562 721.034179688 l 1
EndSplineSet
EndChar

StartChar: uni00B5
Encoding: 181 181 119
Width: 577
GlyphClass: 2
Flags: MW
HStem: -5.68555 134.399<210.033 218.755> 508.074 20G<98.0381 245.878 245.878 245.878 424.438 572.277 572.277 572.277>
VStem: 59.6621 147.84 386.062 147.84
LayerCount: 2
Fore
SplineSet
312.603515625 31.1923828125 m 1
 288.251953125 14.53515625 245.740234375 -5.685546875 191.76953125 -5.685546875 c 0
 166.666015625 -5.685546875 144.408203125 -1.95703125 125.276367188 5.6923828125 c 1
 89.404296875 -149.685546875 l 1
 -58.435546875 -149.685546875 l 1
 98.0380859375 528.07421875 l 1
 245.877929688 528.07421875 l 1
 176.28515625 226.633789062 l 2
 160.767578125 159.422851562 181.909179688 128.713867188 238.157226562 128.713867188 c 0
 276.842773438 128.713867188 335.762695312 143.982421875 355.952148438 231.43359375 c 2
 424.4375 528.07421875 l 1
 572.27734375 528.07421875 l 1
 450.37890625 0.07421875 l 1
 305.418945312 0.07421875 l 1
 312.603515625 31.1923828125 l 1
EndSplineSet
EndChar

StartChar: paragraph
Encoding: 182 182 120
Width: 699
GlyphClass: 2
Flags: MW
HStem: 566.474 124.801<481.303 481.303 481.303 535.063>
VStem: 64.4629 369.599 299.662 134.399 487.822 133.439
LayerCount: 2
Fore
SplineSet
481.302734375 566.473632812 m 1xb0
 315.963867188 -149.685546875 l 1
 181.564453125 -149.685546875 l 1
 274.467773438 252.721679688 l 1xb0
 204.23046875 254.649414062 151.486328125 273.177734375 118.313476562 309.911132812 c 0
 83.1083984375 348.896484375 74.2119140625 404.077148438 89.9833984375 472.393554688 c 0xd0
 105.754882812 540.70703125 140.103515625 595.760742188 193.286132812 634.439453125 c 0
 246.1640625 672.896484375 310.701171875 691.274414062 385.315429688 691.274414062 c 2
 697.315429688 691.274414062 l 1
 503.1640625 -149.685546875 l 1
 369.724609375 -149.685546875 l 1
 535.063476562 566.473632812 l 1
 481.302734375 566.473632812 l 1xb0
EndSplineSet
EndChar

StartChar: periodcentered
Encoding: 183 183 121
Width: 230
GlyphClass: 2
Flags: MW
HStem: 199.754 165.12<45 169.119 6.87891 207.24>
VStem: 44.3018 162.24
LayerCount: 2
Fore
SplineSet
45 364.874023438 m 1
 207.240234375 364.874023438 l 1
 169.119140625 199.75390625 l 1
 6.87890625 199.75390625 l 1
 45 364.874023438 l 1
EndSplineSet
EndChar

StartChar: cedilla
Encoding: 184 184 122
Width: 507
GlyphClass: 2
Flags: MW
HStem: -149.686 191.04<160.245 165.321 17.7939 287.426>
VStem: 135.892 225.526
LayerCount: 2
Fore
SplineSet
287.42578125 41.3544921875 m 1
 165.321289062 -149.685546875 l 1
 17.7939453125 -149.685546875 l 1
 160.245117188 41.3544921875 l 1
 287.42578125 41.3544921875 l 1
EndSplineSet
EndChar

StartChar: uni00B9
Encoding: 185 185 123
Width: 298
GlyphClass: 2
Flags: MW
VStem: 123.021 127.681
LayerCount: 2
Fore
SplineSet
105.350585938 655.38671875 m 1
 136.415039062 789.94140625 l 1
 244.946289062 843.9140625 l 1
 361.995117188 843.9140625 l 1
 262.482421875 412.874023438 l 1
 134.801757812 412.874023438 l 1
 201.649414062 702.426757812 l 1
 105.350585938 655.38671875 l 1
EndSplineSet
EndChar

StartChar: ordmasculine
Encoding: 186 186 124
Width: 389
GlyphClass: 2
Flags: MW
HStem: 409.034 105.599<221.667 238.252> 641.354 105.599<247.367 289.034>
VStem: 44.3018 114.24 248.782 114.239
LayerCount: 2
Fore
SplineSet
98.19140625 595.2734375 m 2
 121.266601562 695.22265625 197.211914062 746.953125 292.5703125 746.953125 c 0
 340.467773438 746.953125 377.076171875 734.354492188 399.818359375 707.604492188 c 0
 422.756835938 680.626953125 427.745117188 642.19921875 416.911132812 595.2734375 c 2
 409.819335938 564.552734375 l 2
 398.703125 516.403320312 375.651367188 477.056640625 339.805664062 449.412109375 c 0
 304.348632812 422.067382812 261.94921875 409.034179688 214.555664062 409.034179688 c 0
 166.034179688 409.034179688 129.20703125 421.78125 106.829101562 448.991210938 c 0
 84.2705078125 476.418945312 79.8681640625 515.907226562 91.099609375 564.552734375 c 2
 98.19140625 595.2734375 l 2
238.934570312 514.6328125 m 0
 263.782226562 514.6328125 286.809570312 526.56640625 295.801757812 565.513671875 c 2
 302.672851562 595.274414062 l 2
 306.453125 611.649414062 309.877929688 641.354492188 268.190429688 641.354492188 c 0
 226.54296875 641.354492188 216.2265625 611.7109375 212.431640625 595.2734375 c 2
 205.561523438 565.512695312 l 2
 199.091796875 537.4921875 204.3984375 514.6328125 238.934570312 514.6328125 c 0
EndSplineSet
EndChar

StartChar: guillemotright
Encoding: 187 187 125
Width: 586
GlyphClass: 2
Flags: W
LayerCount: 2
Fore
SplineSet
-19.7451171875 17.8994140625 m 1
 16.8798828125 176.541015625 l 1
 142.786132812 267.9140625 l 1
 59.0703125 359.287109375 l 1
 95.6953125 517.928710938 l 1
 318.828125 267.9140625 l 1
 -19.7451171875 17.8994140625 l 1
303.87890625 359.32421875 m 1
 340.495117188 517.928710938 l 1
 563.62890625 267.9140625 l 1
 225.0546875 17.8994140625 l 1
 261.670898438 176.50390625 l 1
 386.732421875 267.9140625 l 1
 303.87890625 359.32421875 l 1
EndSplineSet
EndChar

StartChar: onequarter
Encoding: 188 188 126
Width: 854
GlyphClass: 3
Flags: MW
HStem: 0.0742188 21G<30.5244 30.5244 30.5244 161.627 593.419 593.419 593.419 721.1> 54.7939 114.24<583.538 606.052 760.107 762.532 583.538 733.732> 676.074 20G<634.847 766.95 766.95 766.95>
VStem: 123.021 127.681 676.941 127.681
LayerCount: 2
Fore
SplineSet
30.5244140625 0.07421875 m 1
 634.846679688 696.07421875 l 1
 766.950195312 696.07421875 l 1
 161.626953125 0.07421875 l 1
 30.5244140625 0.07421875 l 1
70.1103515625 502.747070312 m 1
 101.174804688 637.301757812 l 1
 209.70703125 691.274414062 l 1
 326.755859375 691.274414062 l 1
 227.2421875 260.234375 l 1
 99.5615234375 260.234375 l 1
 166.41015625 549.787109375 l 1
 70.1103515625 502.747070312 l 1
760.107421875 169.034179688 m 1
 788.907226562 169.034179688 l 1
 762.532226562 54.7939453125 l 1
 733.732421875 54.7939453125 l 1
 721.099609375 0.07421875 l 1
 593.418945312 0.07421875 l 1
 606.051757812 54.7939453125 l 1
 418.852539062 54.7939453125 l 1
 442.674804688 157.98046875 l 1
 639.798828125 431.114257812 l 1
 772.68359375 431.114257812 l 1
 583.538085938 169.034179688 l 1
 632.426757812 169.034179688 l 1
 651.9296875 253.513671875 l 1
 779.610351562 253.513671875 l 1
 760.107421875 169.034179688 l 1
EndSplineSet
Ligature2: "'frac' Diagonal Fractions lookup 2 subtable" one slash four
EndChar

StartChar: onehalf
Encoding: 189 189 127
Width: 877
GlyphClass: 3
Flags: MW
HStem: 0.0742188 114.24<658.469 755.659> 326.474 111.36<675.493 685.034> 676.074 20G<634.847 766.95 766.95 766.95>
VStem: 123.021 127.681 528.142 311.04 709.582 129.6
LayerCount: 2
Fore
SplineSet
766.950195312 696.07421875 m 1xf0
 161.626953125 0.07421875 l 1
 30.5244140625 0.07421875 l 1
 634.846679688 696.07421875 l 1
 766.950195312 696.07421875 l 1xf0
70.1103515625 502.747070312 m 1
 101.174804688 637.301757812 l 1
 209.70703125 691.274414062 l 1
 326.755859375 691.274414062 l 1
 227.2421875 260.234375 l 1
 99.5615234375 260.234375 l 1
 166.41015625 549.787109375 l 1
 70.1103515625 502.747070312 l 1
670.6953125 326.473632812 m 0
 641.678710938 326.473632812 636.479492188 311.337890625 634.43359375 302.473632812 c 2
 629.779296875 282.314453125 l 1
 505.939453125 282.314453125 l 1
 511.258789062 305.354492188 l 2
 520.473632812 345.270507812 542.354492188 378.727539062 576.291015625 402.750976562 c 0
 610.244140625 426.78515625 651.702148438 437.833984375 699.284179688 437.833984375 c 0
 745.764648438 437.833984375 781.706054688 426.314453125 804.916015625 401.76953125 c 0
 828 377.357421875 835.215820312 344.671875 826.360351562 306.314453125 c 2
 824.586914062 298.633789062 l 2xf8
 813.104492188 248.895507812 783.418945312 218.899414062 724.068359375 169.220703125 c 2
 658.46875 114.314453125 l 1
 782.033203125 114.314453125 l 1xf4
 755.659179688 0.07421875 l 1
 444.619140625 0.07421875 l 1
 467.043945312 97.20703125 l 1xf8
 529.750976562 148.401367188 592.421875 199.642578125 655.150390625 250.807617188 c 0
 684.6484375 272.680664062 691.8828125 285.184570312 694.322265625 295.75390625 c 2
 695.65234375 301.513671875 l 2xf4
 698.333007812 313.125976562 699.373046875 326.473632812 670.6953125 326.473632812 c 0
EndSplineSet
Ligature2: "'frac' Diagonal Fractions lookup 2 subtable" one slash two
EndChar

StartChar: threequarters
Encoding: 190 190 128
Width: 945
GlyphClass: 3
Flags: MW
HStem: 0.0742188 21G<119.806 119.806 119.806 250.908 682.7 682.7 682.7 810.38> 54.7939 114.24<672.819 695.333 849.388 851.813 672.819 823.013> 253.514 109.44<185.678 220.715 185.678 228.233> 425.354 110.399<197.731 209.684 172.244 234.211> 588.554 109.44<236.802 268.2>
VStem: 49.1025 118.08 238.223 124.799 766.223 127.68
LayerCount: 2
Fore
SplineSet
369.482421875 389.833984375 m 2
 350.646484375 308.24609375 275.895507812 253.513671875 180.571289062 253.513671875 c 0
 131.9921875 253.513671875 95.3857421875 263.521484375 72.9189453125 286.017578125 c 0
 50.2490234375 308.719726562 44.580078125 342.262695312 54.01171875 383.114257812 c 2
 59.109375 405.194335938 l 1
 177.189453125 405.194335938 l 1
 172.53515625 385.034179688 l 2
 170.856445312 377.76171875 167.4375 362.954101562 203.91796875 362.954101562 c 0
 237.51171875 362.954101562 242.5703125 380.680664062 244.461914062 388.874023438 c 2
 246.012695312 395.59375 l 2
 248.21875 405.1484375 252.883789062 425.354492188 209.68359375 425.354492188 c 2
 172.244140625 425.354492188 l 1
 197.731445312 535.75390625 l 1
 234.2109375 535.75390625 l 2
 271.651367188 535.75390625 275.225585938 551.233398438 276.970703125 558.793945312 c 2
 278.522460938 565.513671875 l 2
 280.610351562 574.559570312 283.27734375 588.553710938 253.122070312 588.553710938 c 0
 220.481445312 588.553710938 217.303710938 574.791015625 215.60546875 567.43359375 c 2
 210.729492188 546.314453125 l 1
 93.609375 546.314453125 l 1
 98.263671875 566.473632812 l 2
 116.620117188 645.984375 178.232421875 697.994140625 282.227539062 697.994140625 c 0
 326.663085938 697.994140625 361.118164062 687.536132812 383.54296875 664.997070312 c 0
 406.06640625 642.358398438 412.807617188 610.758789062 404.135742188 573.194335938 c 2
 402.583984375 566.473632812 l 2
 399.606445312 553.576171875 387.872070312 516.350585938 347.967773438 490.286132812 c 1
 360.331054688 480.84765625 384.390625 454.411132812 371.254882812 397.513671875 c 2
 369.482421875 389.833984375 l 2
119.805664062 0.07421875 m 1
 724.127929688 696.07421875 l 1
 856.231445312 696.07421875 l 1
 250.908203125 0.07421875 l 1
 119.805664062 0.07421875 l 1
849.387695312 169.034179688 m 1
 878.188476562 169.034179688 l 1
 851.813476562 54.7939453125 l 1
 823.012695312 54.7939453125 l 1
 810.379882812 0.07421875 l 1
 682.700195312 0.07421875 l 1
 695.333007812 54.7939453125 l 1
 508.1328125 54.7939453125 l 1
 531.955078125 157.98046875 l 1
 729.079101562 431.114257812 l 1
 861.96484375 431.114257812 l 1
 672.819335938 169.034179688 l 1
 721.708007812 169.034179688 l 1
 741.2109375 253.513671875 l 1
 868.890625 253.513671875 l 1
 849.387695312 169.034179688 l 1
EndSplineSet
Ligature2: "'frac' Diagonal Fractions lookup 2 subtable" three slash four
EndChar

StartChar: questiondown
Encoding: 191 191 129
Width: 507
GlyphClass: 2
Flags: MW
HStem: -159.286 136.32<142.784 208.99 142.784 256.958> 376.394 151.681<231.478 351.02 196.459 386.038>
VStem: 40.4619 151.68 193.102 154.561
LayerCount: 2
Fore
SplineSet
231.477539062 528.07421875 m 1
 386.038085938 528.07421875 l 1
 351.01953125 376.393554688 l 1
 196.458984375 376.393554688 l 1
 231.477539062 528.07421875 l 1
116.375976562 33.673828125 m 0
 113.020507812 19.1396484375 104.508789062 -22.9658203125 181.059570312 -22.9658203125 c 0
 236.920898438 -22.9658203125 260.927734375 -1.1044921875 271.393554688 39.7998046875 c 2
 274.985351562 53.833984375 l 1
 419.892578125 53.833984375 l 1
 404.841796875 -5.962890625 366.25 -159.286132812 147.666992188 -159.286132812 c 0
 78.9873046875 -159.286132812 26.9013671875 -143.609375 -6.5712890625 -110.5078125 c 0
 -40.18359375 -77.2685546875 -50.171875 -30.728515625 -37.076171875 25.9951171875 c 0
 -17.3408203125 111.478515625 39.275390625 157.563476562 68.1904296875 179.525390625 c 0
 68.322265625 179.625976562 126.704101562 224.719726562 126.704101562 224.719726562 c 2
 146.682617188 239.9609375 159.9296875 253.311523438 166.829101562 263.610351562 c 0
 173.846679688 274.084960938 180.271484375 289.645507812 185.006835938 310.154296875 c 2
 192.098632812 340.874023438 l 1
 339.939453125 340.874023438 l 1
 329.522460938 295.75390625 l 2
 313.5859375 226.725585938 291.610351562 194.524414062 232.73046875 149.888671875 c 0
 232.6015625 149.790039062 176.676757812 106.688476562 176.676757812 106.688476562 c 2
 176.573242188 106.607421875 176.46875 106.528320312 176.362304688 106.450195312 c 0
 134.267578125 75.2890625 121.599609375 56.298828125 116.375976562 33.673828125 c 0
EndSplineSet
EndChar

StartChar: Agrave
Encoding: 192 192 130
Width: 682
GlyphClass: 2
Flags: MW
HStem: 0.0742188 21G<-78.9336 -78.9336 -78.9336 86.9385 444.22 444.22 444.22 610.092> 128.714 133.44<245.562 406.54 245.562 425.918 164.637 406.54> 671.274 20G<364.135 486.176 486.176 486.176>
LayerCount: 2
Fore
SplineSet
-78.93359375 0.07421875 m 1
 364.134765625 691.274414062 l 1
 486.17578125 691.274414062 l 1
 610.091796875 0.07421875 l 1
 444.219726562 0.07421875 l 1
 425.91796875 128.713867188 l 1
 164.63671875 128.713867188 l 1
 86.9384765625 0.07421875 l 1
 -78.93359375 0.07421875 l 1
245.561523438 262.154296875 m 1
 406.540039062 262.154296875 l 1
 375.163085938 476.538085938 l 1
 245.561523438 262.154296875 l 1
257.150390625 884.234375 m 1
 445.862304688 884.234375 l 1
 550.920898438 727.75390625 l 1
 405.7421875 727.75390625 l 1
 257.150390625 884.234375 l 1
EndSplineSet
EndChar

StartChar: Aacute
Encoding: 193 193 131
Width: 682
GlyphClass: 2
Flags: MW
HStem: 0.0742188 21G<-78.9336 -78.9336 -78.9336 86.9385 444.22 444.22 444.22 610.092> 128.714 133.44<245.562 406.54 245.562 425.918 164.637 406.54> 671.274 20G<364.135 486.176 486.176 486.176>
LayerCount: 2
Fore
SplineSet
-78.93359375 0.07421875 m 1
 364.134765625 691.274414062 l 1
 486.17578125 691.274414062 l 1
 610.091796875 0.07421875 l 1
 444.219726562 0.07421875 l 1
 425.91796875 128.713867188 l 1
 164.63671875 128.713867188 l 1
 86.9384765625 0.07421875 l 1
 -78.93359375 0.07421875 l 1
245.561523438 262.154296875 m 1
 406.540039062 262.154296875 l 1
 375.163085938 476.538085938 l 1
 245.561523438 262.154296875 l 1
649.616210938 884.234375 m 1
 428.7734375 727.75390625 l 1
 283.59375 727.75390625 l 1
 460.904296875 884.234375 l 1
 649.616210938 884.234375 l 1
EndSplineSet
EndChar

StartChar: Acircumflex
Encoding: 194 194 132
Width: 682
GlyphClass: 2
Flags: MW
HStem: 0.0742188 21G<-78.9336 -78.9336 -78.9336 86.9385 444.22 444.22 444.22 610.092> 128.714 133.44<245.562 406.54 245.562 425.918 164.637 406.54> 671.274 20G<364.135 486.176 486.176 486.176>
LayerCount: 2
Fore
SplineSet
-78.93359375 0.07421875 m 1
 364.134765625 691.274414062 l 1
 486.17578125 691.274414062 l 1
 610.091796875 0.07421875 l 1
 444.219726562 0.07421875 l 1
 425.91796875 128.713867188 l 1
 164.63671875 128.713867188 l 1
 86.9384765625 0.07421875 l 1
 -78.93359375 0.07421875 l 1
245.561523438 262.154296875 m 1
 406.540039062 262.154296875 l 1
 375.163085938 476.538085938 l 1
 245.561523438 262.154296875 l 1
521.373046875 890.954101562 m 1
 636.606445312 717.194335938 l 1
 498.401367188 717.194335938 l 1
 447.796875 787.5625 l 1
 363.822265625 717.194335938 l 1
 225.673828125 717.194335938 l 1
 421.13671875 890.954101562 l 1
 521.373046875 890.954101562 l 1
EndSplineSet
EndChar

StartChar: Atilde
Encoding: 195 195 133
Width: 682
GlyphClass: 2
Flags: MW
HStem: 0.0742188 21G<-78.9336 -78.9336 -78.9336 86.9385 444.22 444.22 444.22 610.092> 128.714 133.44<245.562 406.54 245.562 425.918 164.637 406.54> 671.274 20G<364.135 486.176 486.176 486.176> 722.954 119.039<509.006 522.275> 759.435 119.038<356.148 436.634>
LayerCount: 2
Fore
SplineSet
-78.93359375 0.07421875 m 1xe0
 364.134765625 691.274414062 l 1
 486.17578125 691.274414062 l 1
 610.091796875 0.07421875 l 1
 444.219726562 0.07421875 l 1
 425.91796875 128.713867188 l 1
 164.63671875 128.713867188 l 1
 86.9384765625 0.07421875 l 1
 -78.93359375 0.07421875 l 1xe0
245.561523438 262.154296875 m 1
 406.540039062 262.154296875 l 1
 375.163085938 476.538085938 l 1
 245.561523438 262.154296875 l 1
403.57421875 878.47265625 m 0xe8
 469.693359375 878.47265625 485.579101562 841.993164062 532.432617188 841.993164062 c 0
 559.642578125 841.993164062 574.05859375 851.657226562 639.891601562 895.791015625 c 1
 611.205078125 771.533203125 l 1
 578.126953125 745.569335938 546.321289062 722.954101562 498.229492188 722.954101562 c 0xf0
 469.653320312 722.954101562 457.788085938 727.212890625 407.758789062 750.499023438 c 0
 399.529296875 754.384765625 386.638671875 759.434570312 370.33203125 759.434570312 c 0
 341.96484375 759.434570312 324.510742188 748.166992188 261.357421875 707.396484375 c 1
 289.638671875 829.895507812 l 1
 324.466796875 857.224609375 355.22265625 878.47265625 403.57421875 878.47265625 c 0xe8
EndSplineSet
EndChar

StartChar: Adieresis
Encoding: 196 196 134
Width: 682
GlyphClass: 2
Flags: MW
HStem: 0.0742188 21G<-78.9336 -78.9336 -78.9336 86.9385 444.22 444.22 444.22 610.092> 128.714 133.44<245.562 406.54 245.562 425.918 164.637 406.54> 671.274 20G<364.135 486.176 486.176 486.176> 726.794 140.16<289.554 388.716 257.195 421.074 289.554 477.996 510.354 609.516>
VStem: 172.941 131.521 393.742 131.52
LayerCount: 2
Fore
SplineSet
-78.93359375 0.07421875 m 1
 364.134765625 691.274414062 l 1
 486.17578125 691.274414062 l 1
 610.091796875 0.07421875 l 1
 444.219726562 0.07421875 l 1
 425.91796875 128.713867188 l 1
 164.63671875 128.713867188 l 1
 86.9384765625 0.07421875 l 1
 -78.93359375 0.07421875 l 1
245.561523438 262.154296875 m 1
 406.540039062 262.154296875 l 1
 375.163085938 476.538085938 l 1
 245.561523438 262.154296875 l 1
289.553710938 866.954101562 m 1
 421.07421875 866.954101562 l 1
 388.715820312 726.793945312 l 1
 257.1953125 726.793945312 l 1
 289.553710938 866.954101562 l 1
510.354492188 866.954101562 m 1
 641.874023438 866.954101562 l 1
 609.515625 726.793945312 l 1
 477.99609375 726.793945312 l 1
 510.354492188 866.954101562 l 1
EndSplineSet
EndChar

StartChar: Aring
Encoding: 197 197 135
Width: 682
GlyphClass: 2
Flags: MW
HStem: 0.0771484 21G<-78.9443 86.9395 -78.9443 -78.9443> 128.717 133.44<164.638 406.541> 793.997 81.5977<452.422 453.975>
VStem: 236.302 83.5205 380.302 82.5605
LayerCount: 2
Fore
SplineSet
555.094726562 761.354492188 m 0
 550.998046875 743.607421875 536.50390625 699.87890625 489.541015625 670.345703125 c 1
 610.103515625 0.07421875 l 1
 444.219726562 0.07421875 l 1
 425.91796875 128.713867188 l 1
 338.82421875 128.713867188 251.731445312 128.716796875 164.637695312 128.716796875 c 1
 86.939453125 0.0771484375 l 1
 -78.9443359375 0.0771484375 l 1
 351.286132812 670.626953125 l 1
 337.494140625 683.444335938 317.087890625 711.771484375 328.534179688 761.354492188 c 0
 335.942382812 793.439453125 353.278320312 821.396484375 379.936523438 843.055664062 c 0
 406.512695312 864.646484375 436.654296875 875.594726562 468.189453125 875.594726562 c 0
 499.724609375 875.594726562 524.811523438 864.646484375 541.416992188 843.055664062 c 0
 558.075195312 821.396484375 562.502929688 793.439453125 555.094726562 761.354492188 c 0
412.055664062 761.356445312 m 0
 409.885742188 751.958984375 411.104492188 745.044921875 415.750976562 738.711914062 c 0
 420.42578125 732.336914062 426.109375 729.677734375 434.501953125 729.677734375 c 0
 443.75 729.677734375 450.951171875 732.493164062 458.381835938 738.709960938 c 0
 465.955078125 745.046875 470.366210938 751.962890625 472.53515625 761.356445312 c 0
 474.896484375 771.583007812 473.602539062 778.772460938 469.060546875 784.96484375 c 0
 464.500976562 791.181640625 458.598632812 793.997070312 449.350585938 793.997070312 c 0
 440.099609375 793.997070312 433.196289062 791.209960938 426.18359375 785.163085938 c 0
 419.043945312 779.005859375 414.448242188 771.720703125 412.055664062 761.356445312 c 0
245.5625 262.157226562 m 1
 406.541015625 262.157226562 l 1
 375.1640625 476.541015625 l 1
 245.5625 262.157226562 l 1
EndSplineSet
EndChar

StartChar: AE
Encoding: 198 198 136
Width: 987
GlyphClass: 2
Flags: MW
HStem: 0.0742188 138.24<563.895 874.699> 135.434 133.44<301.689 407.709 197.32 438.517> 279.434 138.24<628.39 890.234 596.475 922.149> 553.034 138.24<659.641 1002.36 659.641 659.641>
VStem: 459.981 155.521
LayerCount: 2
Fore
SplineSet
-82.421875 0.07421875 m 1xb8
 476.84765625 691.274414062 l 1
 1034.27539062 691.274414062 l 1
 1002.36035156 553.034179688 l 1
 659.640625 553.034179688 l 1
 628.389648438 417.673828125 l 1
 922.149414062 417.673828125 l 1
 890.234375 279.43359375 l 1
 596.474609375 279.43359375 l 1
 563.89453125 138.314453125 l 1
 906.614257812 138.314453125 l 1
 874.69921875 0.07421875 l 1
 376.458984375 0.07421875 l 1xb8
 407.708984375 135.43359375 l 1
 197.3203125 135.43359375 l 1x78
 91.1904296875 0.07421875 l 1
 -82.421875 0.07421875 l 1xb8
438.516601562 268.874023438 m 1x78
 495.48046875 515.61328125 l 1
 301.689453125 268.874023438 l 1
 438.516601562 268.874023438 l 1x78
EndSplineSet
EndChar

StartChar: Ccedilla
Encoding: 199 199 137
Width: 675
GlyphClass: 2
Flags: MW
HStem: 564.554 139.2<391.376 425.967>
VStem: 60.6221 155.521 484.942 153.601
LayerCount: 2
Fore
SplineSet
201.104492188 296.713867188 m 2
 173.20703125 175.876953125 215.913085938 131.59375 306.0234375 131.59375 c 0
 348 131.59375 380.979492188 141.467773438 406.36328125 159.401367188 c 0
 431.634765625 177.255859375 447.856445312 201.211914062 455.498046875 234.314453125 c 2
 459.930664062 253.513671875 l 1
 613.53125 253.513671875 l 1
 609.098632812 234.314453125 l 2
 593.96875 168.779296875 562.182617188 113.944335938 513.526367188 71.8935546875 c 0
 467.138671875 31.8037109375 410.944335938 6.5986328125 346.408203125 -4.201171875 c 1
 253.657226562 -149.685546875 l 1
 106.2109375 -149.685546875 l 1
 212.537109375 -6.2099609375 l 1
 144.376953125 3.427734375 93.9248046875 31.4462890625 63.12109375 78.3623046875 c 0
 29.1103515625 130.163085938 23.947265625 202.9921875 45.140625 294.79296875 c 2
 69.0771484375 398.47265625 l 2
 91.9326171875 497.470703125 135.361328125 574.494140625 201.002929688 626.70703125 c 0
 266.17578125 678.547851562 345.596679688 703.75390625 437.15625 703.75390625 c 0
 520.767578125 703.75390625 584.435546875 683.106445312 626.115234375 640.451171875 c 0
 668.079101562 597.502929688 679.994140625 537.239257812 662.806640625 462.793945312 c 2
 657.708984375 440.713867188 l 1
 503.145507812 440.713867188 l 1
 507.356445312 458.954101562 l 2
 515.150390625 492.711914062 509.969726562 517.366210938 492.702148438 535.8671875 c 0
 475.37890625 554.4296875 446.913085938 564.553710938 405.020507812 564.553710938 c 0
 323.35546875 564.553710938 254.301757812 527.133789062 223.046875 391.75390625 c 2
 201.104492188 296.713867188 l 2
EndSplineSet
EndChar

StartChar: Egrave
Encoding: 200 200 138
Width: 591
GlyphClass: 2
Flags: MW
HStem: 0.0742188 138.24<167.414 483.02> 279.434 138.24<231.909 498.555 199.994 530.47> 553.034 138.24<263.16 610.681 263.16 263.16>
VStem: 64.4619 154.56
LayerCount: 2
Fore
SplineSet
167.4140625 138.314453125 m 1
 514.934570312 138.314453125 l 1
 483.01953125 0.07421875 l 1
 -19.060546875 0.07421875 l 1
 140.515625 691.274414062 l 1
 642.595703125 691.274414062 l 1
 610.680664062 553.034179688 l 1
 263.16015625 553.034179688 l 1
 231.909179688 417.673828125 l 1
 530.469726562 417.673828125 l 1
 498.5546875 279.43359375 l 1
 199.994140625 279.43359375 l 1
 167.4140625 138.314453125 l 1
218.750976562 884.234375 m 1
 407.461914062 884.234375 l 1
 512.521484375 727.75390625 l 1
 367.341796875 727.75390625 l 1
 218.750976562 884.234375 l 1
EndSplineSet
EndChar

StartChar: Eacute
Encoding: 201 201 139
Width: 591
GlyphClass: 2
Flags: MW
HStem: 0.0742188 138.24<167.414 483.02> 279.434 138.24<231.909 498.555 199.994 530.47> 553.034 138.24<263.16 610.681 263.16 263.16>
VStem: 64.4619 154.56
LayerCount: 2
Fore
SplineSet
167.4140625 138.314453125 m 1
 514.934570312 138.314453125 l 1
 483.01953125 0.07421875 l 1
 -19.060546875 0.07421875 l 1
 140.515625 691.274414062 l 1
 642.595703125 691.274414062 l 1
 610.680664062 553.034179688 l 1
 263.16015625 553.034179688 l 1
 231.909179688 417.673828125 l 1
 530.469726562 417.673828125 l 1
 498.5546875 279.43359375 l 1
 199.994140625 279.43359375 l 1
 167.4140625 138.314453125 l 1
647.696289062 884.234375 m 1
 426.853515625 727.75390625 l 1
 281.673828125 727.75390625 l 1
 458.984375 884.234375 l 1
 647.696289062 884.234375 l 1
EndSplineSet
EndChar

StartChar: Ecircumflex
Encoding: 202 202 140
Width: 591
GlyphClass: 2
Flags: MW
HStem: 0.0742188 138.24<167.414 483.02> 279.434 138.24<231.909 498.555 199.994 530.47> 553.034 138.24<263.16 610.681 263.16 263.16>
VStem: 64.4619 154.56
LayerCount: 2
Fore
SplineSet
167.4140625 138.314453125 m 1
 514.934570312 138.314453125 l 1
 483.01953125 0.07421875 l 1
 -19.060546875 0.07421875 l 1
 140.515625 691.274414062 l 1
 642.595703125 691.274414062 l 1
 610.680664062 553.034179688 l 1
 263.16015625 553.034179688 l 1
 231.909179688 417.673828125 l 1
 530.469726562 417.673828125 l 1
 498.5546875 279.43359375 l 1
 199.994140625 279.43359375 l 1
 167.4140625 138.314453125 l 1
382.737304688 890.954101562 m 1
 482.973632812 890.954101562 l 1
 598.206054688 717.194335938 l 1
 460.001953125 717.194335938 l 1
 409.397460938 787.5625 l 1
 325.422851562 717.194335938 l 1
 187.2734375 717.194335938 l 1
 382.737304688 890.954101562 l 1
EndSplineSet
EndChar

StartChar: Edieresis
Encoding: 203 203 141
Width: 591
GlyphClass: 2
Flags: MW
HStem: 0.0742188 138.24<167.414 483.02> 279.434 138.24<231.909 498.555 199.994 530.47> 553.034 138.24<263.16 610.681 263.16 263.16> 726.794 140.16<251.154 350.315 218.796 382.674 251.154 439.596 471.954 571.116>
VStem: 64.4619 154.56 134.542 131.52 355.342 131.521
LayerCount: 2
Fore
SplineSet
167.4140625 138.314453125 m 1xfa
 514.934570312 138.314453125 l 1
 483.01953125 0.07421875 l 1
 -19.060546875 0.07421875 l 1
 140.515625 691.274414062 l 1
 642.595703125 691.274414062 l 1
 610.680664062 553.034179688 l 1
 263.16015625 553.034179688 l 1
 231.909179688 417.673828125 l 1
 530.469726562 417.673828125 l 1
 498.5546875 279.43359375 l 1
 199.994140625 279.43359375 l 1
 167.4140625 138.314453125 l 1xfa
251.154296875 866.954101562 m 1xf6
 382.673828125 866.954101562 l 1
 350.315429688 726.793945312 l 1
 218.795898438 726.793945312 l 1
 251.154296875 866.954101562 l 1xf6
471.954101562 866.954101562 m 1
 603.474609375 866.954101562 l 1
 571.116210938 726.793945312 l 1
 439.595703125 726.793945312 l 1
 471.954101562 866.954101562 l 1
EndSplineSet
EndChar

StartChar: Igrave
Encoding: 204 204 142
Width: 275
GlyphClass: 2
Flags: MW
HStem: 0.0742188 21G<-13.3008 141.26 -13.3008 -13.3008> 671.274 20G<146.275 300.836 300.836 300.836>
VStem: 70.2217 154.561
LayerCount: 2
Fore
SplineSet
146.275390625 691.274414062 m 1
 300.8359375 691.274414062 l 1
 141.259765625 0.07421875 l 1
 -13.30078125 0.07421875 l 1
 146.275390625 691.274414062 l 1
54.5908203125 884.234375 m 1
 243.302734375 884.234375 l 1
 348.361328125 727.75390625 l 1
 203.181640625 727.75390625 l 1
 54.5908203125 884.234375 l 1
EndSplineSet
EndChar

StartChar: Iacute
Encoding: 205 205 143
Width: 275
GlyphClass: 2
Flags: MW
HStem: 0.0742188 21G<-13.3008 141.26 -13.3008 -13.3008> 671.274 20G<146.275 300.836 300.836 300.836>
VStem: 70.2217 154.561
LayerCount: 2
Fore
SplineSet
146.275390625 691.274414062 m 1
 300.8359375 691.274414062 l 1
 141.259765625 0.07421875 l 1
 -13.30078125 0.07421875 l 1
 146.275390625 691.274414062 l 1
294.82421875 884.234375 m 1
 483.536132812 884.234375 l 1
 262.693359375 727.75390625 l 1
 117.513671875 727.75390625 l 1
 294.82421875 884.234375 l 1
EndSplineSet
EndChar

StartChar: Icircumflex
Encoding: 206 206 144
Width: 275
GlyphClass: 2
Flags: MW
HStem: 0.0742188 21G<-13.3008 141.26 -13.3008 -13.3008> 671.274 20G<146.275 300.836 300.836 300.836>
VStem: 70.2217 154.561
LayerCount: 2
Fore
SplineSet
146.275390625 691.274414062 m 1
 300.8359375 691.274414062 l 1
 141.259765625 0.07421875 l 1
 -13.30078125 0.07421875 l 1
 146.275390625 691.274414062 l 1
218.577148438 890.954101562 m 1
 318.813476562 890.954101562 l 1
 434.046875 717.194335938 l 1
 295.841796875 717.194335938 l 1
 245.237304688 787.5625 l 1
 161.262695312 717.194335938 l 1
 23.11328125 717.194335938 l 1
 218.577148438 890.954101562 l 1
EndSplineSet
EndChar

StartChar: Idieresis
Encoding: 207 207 145
Width: 275
GlyphClass: 2
Flags: MW
HStem: 0.0742188 21G<-13.3008 141.26 -13.3008 -13.3008> 671.274 20G<146.275 300.836 300.836 300.836> 726.794 140.16<86.9941 186.155 54.6357 218.514 86.9941 275.436 307.794 406.956>
VStem: -29.6182 131.52 70.2217 154.561 191.182 131.521
LayerCount: 2
Fore
SplineSet
146.275390625 691.274414062 m 1xe8
 300.8359375 691.274414062 l 1
 141.259765625 0.07421875 l 1
 -13.30078125 0.07421875 l 1
 146.275390625 691.274414062 l 1xe8
86.994140625 866.954101562 m 1xf0
 218.513671875 866.954101562 l 1
 186.155273438 726.793945312 l 1
 54.6357421875 726.793945312 l 1
 86.994140625 866.954101562 l 1xf0
307.793945312 866.954101562 m 1xe4
 439.314453125 866.954101562 l 1
 406.956054688 726.793945312 l 1
 275.435546875 726.793945312 l 1
 307.793945312 866.954101562 l 1xe4
EndSplineSet
EndChar

StartChar: Eth
Encoding: 208 208 146
Width: 695
GlyphClass: 2
Flags: MW
HStem: 0.0742188 138.241<198.134 279.499> 282.315 139.2<263.516 382.099 231.379 414.235> 553.036 138.238<293.88 411 293.88 293.88>
VStem: 95.1816 154.56 505.101 154.561
LayerCount: 2
Fore
SplineSet
665.45703125 386.955078125 m 2
 646.618164062 305.354492188 l 2
 623.348632812 204.561523438 580.231445312 127.018554688 515.275390625 75.6455078125 c 0
 450.8828125 24.7197265625 371.604492188 0.07421875 279.499023438 0.07421875 c 2
 11.6591796875 0.07421875 l 1
 76.8193359375 282.314453125 l 1
 15.3798828125 282.314453125 l 1
 47.5166015625 421.513671875 l 1
 108.956054688 421.513671875 l 1
 171.235351562 691.274414062 l 1
 443.875976562 691.274414062 l 2
 534.720703125 691.274414062 601.576171875 666.768554688 641.560546875 616.1171875 c 0
 681.891601562 565.02734375 688.713867188 487.689453125 665.45703125 386.955078125 c 2
509.344726562 380.235351562 m 2
 524.049804688 443.926757812 521.682617188 487.827148438 506.045898438 513.55078125 c 0
 490.474609375 539.169921875 460.174804688 553.036132812 411 553.036132812 c 2
 293.879882812 553.036132812 l 1
 263.515625 421.515625 l 1
 414.235351562 421.515625 l 1
 382.098632812 282.315429688 l 1
 231.37890625 282.315429688 l 1
 198.133789062 138.315429688 l 1
 315.25390625 138.315429688 l 2
 364.50390625 138.315429688 401.21875 151.94140625 428.438476562 176.959960938 c 0
 455.799804688 202.107421875 477.96484375 244.311523438 492.057617188 305.354492188 c 2
 509.344726562 380.235351562 l 2
EndSplineSet
EndChar

StartChar: Ntilde
Encoding: 209 209 147
Width: 700
GlyphClass: 2
Flags: MW
HStem: 0.0742188 21G<-19.0605 135.499 -19.0605 -19.0605 419.831 567.499 419.831 419.831> 671.274 20G<140.516 288.193 288.193 288.193 572.516 727.075 727.075 727.075> 722.954 119.039<517.645 530.914> 759.435 119.038<364.788 445.272>
VStem: 64.4619 154.56 496.462 154.56
LayerCount: 2
Fore
SplineSet
727.075195312 691.274414062 m 1xcc
 567.499023438 0.07421875 l 1
 419.831054688 0.07421875 l 1
 229.5390625 407.408203125 l 1
 135.499023438 0.07421875 l 1
 -19.060546875 0.07421875 l 1
 140.515625 691.274414062 l 1
 288.193359375 691.274414062 l 1
 478.272460938 283.061523438 l 1
 572.515625 691.274414062 l 1
 727.075195312 691.274414062 l 1xcc
412.212890625 878.47265625 m 0xdc
 478.33203125 878.47265625 494.21875 841.993164062 541.071289062 841.993164062 c 0
 568.28125 841.993164062 582.697265625 851.657226562 648.530273438 895.791015625 c 1
 619.84375 771.533203125 l 1
 586.765625 745.569335938 554.959960938 722.954101562 506.868164062 722.954101562 c 0xec
 478.291992188 722.954101562 466.426757812 727.212890625 416.397460938 750.499023438 c 0
 408.168945312 754.384765625 395.279296875 759.434570312 378.971679688 759.434570312 c 0
 350.604492188 759.434570312 333.150390625 748.166992188 269.997070312 707.396484375 c 1
 298.278320312 829.895507812 l 1
 333.106445312 857.224609375 363.860351562 878.47265625 412.212890625 878.47265625 c 0xdc
EndSplineSet
EndChar

StartChar: Ograve
Encoding: 210 210 148
Width: 675
GlyphClass: 2
Flags: MW
HStem: -10.4863 142.079<260.147 305.957> 564.553 139.202<385.887 427.276>
VStem: 60.6211 155.519 484.94 154.562
LayerCount: 2
Fore
SplineSet
45.1396484375 294.793945312 m 2
 69.076171875 398.473632812 l 2
 91.9189453125 497.416992188 134.798828125 574.373046875 199.438476562 626.608398438 c 0
 263.603515625 678.461914062 341.338867188 703.754882812 430.435546875 703.754882812 c 0
 518.305664062 703.754882812 583.56640625 678.416015625 623.438476562 626.575195312 c 0
 663.62109375 574.33203125 670.795898438 497.3984375 647.95703125 398.473632812 c 2
 624.020507812 294.793945312 l 2
 601.310546875 196.42578125 558.083007812 119.61328125 492.768554688 67.107421875 c 0
 427.963867188 15.01171875 350.212890625 -10.486328125 261.701171875 -10.486328125 c 0
 173.2265625 -10.486328125 107.907226562 14.828125 68.646484375 66.76171875 c 0
 29.142578125 119.01953125 22.3095703125 195.90625 45.1396484375 294.793945312 c 2
298.341796875 131.592773438 m 0
 359.493164062 131.592773438 436.942382812 153.946289062 469.90234375 296.712890625 c 2
 491.84375 391.752929688 l 2
 526.997070312 544.016601562 456.25390625 564.552734375 398.298828125 564.552734375 c 0
 325.737304688 564.552734375 255.736328125 533.36328125 223.04296875 391.752929688 c 2
 201.1015625 296.712890625 l 2
 170.696289062 165.012695312 221.952148438 131.592773438 298.341796875 131.592773438 c 0
446.821289062 884.233398438 m 1
 551.879882812 727.752929688 l 1
 406.701171875 727.752929688 l 1
 258.109375 884.233398438 l 1
 446.821289062 884.233398438 l 1
EndSplineSet
EndChar

StartChar: Oacute
Encoding: 211 211 149
Width: 675
GlyphClass: 2
Flags: MW
HStem: -10.4863 142.079<260.147 305.957> 564.553 139.202<385.887 427.276>
VStem: 60.6211 155.519 484.94 154.562
LayerCount: 2
Fore
SplineSet
45.1396484375 294.793945312 m 2
 69.076171875 398.473632812 l 2
 91.9189453125 497.416992188 134.798828125 574.373046875 199.438476562 626.608398438 c 0
 263.603515625 678.461914062 341.338867188 703.754882812 430.435546875 703.754882812 c 0
 518.305664062 703.754882812 583.56640625 678.416015625 623.438476562 626.575195312 c 0
 663.62109375 574.33203125 670.795898438 497.3984375 647.95703125 398.473632812 c 2
 624.020507812 294.793945312 l 2
 601.310546875 196.42578125 558.083007812 119.61328125 492.768554688 67.107421875 c 0
 427.963867188 15.01171875 350.212890625 -10.486328125 261.701171875 -10.486328125 c 0
 173.2265625 -10.486328125 107.907226562 14.828125 68.646484375 66.76171875 c 0
 29.142578125 119.01953125 22.3095703125 195.90625 45.1396484375 294.793945312 c 2
298.341796875 131.592773438 m 0
 359.493164062 131.592773438 436.942382812 153.946289062 469.90234375 296.712890625 c 2
 491.84375 391.752929688 l 2
 526.997070312 544.016601562 456.25390625 564.552734375 398.298828125 564.552734375 c 0
 325.737304688 564.552734375 255.736328125 533.36328125 223.04296875 391.752929688 c 2
 201.1015625 296.712890625 l 2
 170.696289062 165.012695312 221.952148438 131.592773438 298.341796875 131.592773438 c 0
458.0234375 884.233398438 m 1
 646.735351562 884.233398438 l 1
 425.892578125 727.752929688 l 1
 280.712890625 727.752929688 l 1
 458.0234375 884.233398438 l 1
EndSplineSet
EndChar

StartChar: Ocircumflex
Encoding: 212 212 150
Width: 675
GlyphClass: 2
Flags: MW
HStem: -10.4863 142.079<260.147 305.957> 564.553 139.202<385.887 427.276>
VStem: 60.6211 155.519 484.94 154.562
LayerCount: 2
Fore
SplineSet
45.1396484375 294.793945312 m 2
 69.076171875 398.473632812 l 2
 91.9189453125 497.416992188 134.798828125 574.373046875 199.438476562 626.608398438 c 0
 263.603515625 678.461914062 341.338867188 703.754882812 430.435546875 703.754882812 c 0
 518.305664062 703.754882812 583.56640625 678.416015625 623.438476562 626.575195312 c 0
 663.62109375 574.33203125 670.795898438 497.3984375 647.95703125 398.473632812 c 2
 624.020507812 294.793945312 l 2
 601.310546875 196.42578125 558.083007812 119.61328125 492.768554688 67.107421875 c 0
 427.963867188 15.01171875 350.212890625 -10.486328125 261.701171875 -10.486328125 c 0
 173.2265625 -10.486328125 107.907226562 14.828125 68.646484375 66.76171875 c 0
 29.142578125 119.01953125 22.3095703125 195.90625 45.1396484375 294.793945312 c 2
298.341796875 131.592773438 m 0
 359.493164062 131.592773438 436.942382812 153.946289062 469.90234375 296.712890625 c 2
 491.84375 391.752929688 l 2
 526.997070312 544.016601562 456.25390625 564.552734375 398.298828125 564.552734375 c 0
 325.737304688 564.552734375 255.736328125 533.36328125 223.04296875 391.752929688 c 2
 201.1015625 296.712890625 l 2
 170.696289062 165.012695312 221.952148438 131.592773438 298.341796875 131.592773438 c 0
522.33203125 890.953125 m 1
 637.564453125 717.193359375 l 1
 499.359375 717.193359375 l 1
 448.755859375 787.561523438 l 1
 364.780273438 717.193359375 l 1
 226.631835938 717.193359375 l 1
 422.095703125 890.953125 l 1
 522.33203125 890.953125 l 1
EndSplineSet
EndChar

StartChar: Otilde
Encoding: 213 213 151
Width: 675
GlyphClass: 2
Flags: MW
HStem: -10.4863 142.079<260.147 305.957> 564.553 139.202<385.887 427.276> 722.953 119.039<509.964 523.233> 759.434 119.038<357.106 437.592>
VStem: 60.6211 155.519 484.94 154.562
LayerCount: 2
Fore
SplineSet
45.1396484375 294.793945312 m 2xcc
 69.076171875 398.473632812 l 2
 91.9189453125 497.416992188 134.798828125 574.373046875 199.438476562 626.608398438 c 0
 263.603515625 678.461914062 341.338867188 703.754882812 430.435546875 703.754882812 c 0
 518.305664062 703.754882812 583.56640625 678.416015625 623.438476562 626.575195312 c 0
 663.62109375 574.33203125 670.795898438 497.3984375 647.95703125 398.473632812 c 2
 624.020507812 294.793945312 l 2
 601.310546875 196.42578125 558.083007812 119.61328125 492.768554688 67.107421875 c 0
 427.963867188 15.01171875 350.212890625 -10.486328125 261.701171875 -10.486328125 c 0
 173.2265625 -10.486328125 107.907226562 14.828125 68.646484375 66.76171875 c 0
 29.142578125 119.01953125 22.3095703125 195.90625 45.1396484375 294.793945312 c 2xcc
298.341796875 131.592773438 m 0
 359.493164062 131.592773438 436.942382812 153.946289062 469.90234375 296.712890625 c 2
 491.84375 391.752929688 l 2
 526.997070312 544.016601562 456.25390625 564.552734375 398.298828125 564.552734375 c 0
 325.737304688 564.552734375 255.736328125 533.36328125 223.04296875 391.752929688 c 2
 201.1015625 296.712890625 l 2
 170.696289062 165.012695312 221.952148438 131.592773438 298.341796875 131.592773438 c 0
404.532226562 878.471679688 m 0xdc
 470.651367188 878.471679688 486.538085938 841.9921875 533.390625 841.9921875 c 0
 560.600585938 841.9921875 575.016601562 851.65625 640.849609375 895.790039062 c 1
 612.163085938 771.532226562 l 1
 579.083984375 745.568359375 547.279296875 722.953125 499.1875 722.953125 c 0xec
 470.611328125 722.953125 458.74609375 727.211914062 408.716796875 750.498046875 c 0
 400.48828125 754.383789062 387.59765625 759.43359375 371.290039062 759.43359375 c 0
 342.922851562 759.43359375 325.469726562 748.166015625 262.31640625 707.395507812 c 1
 290.59765625 829.89453125 l 1
 325.424804688 857.223632812 356.178710938 878.471679688 404.532226562 878.471679688 c 0xdc
EndSplineSet
EndChar

StartChar: Odieresis
Encoding: 214 214 152
Width: 675
GlyphClass: 2
Flags: MW
HStem: -10.4863 142.079<260.147 305.957> 564.553 139.202<385.887 427.276> 726.793 140.16<290.514 389.675 258.155 422.033 290.514 478.955 511.313 610.475>
VStem: 60.6211 155.519 173.901 131.52 394.701 131.52 484.94 154.562
LayerCount: 2
Fore
SplineSet
45.1396484375 294.793945312 m 2xf2
 69.076171875 398.473632812 l 2
 91.9189453125 497.416992188 134.798828125 574.373046875 199.438476562 626.608398438 c 0
 263.603515625 678.461914062 341.338867188 703.754882812 430.435546875 703.754882812 c 0
 518.305664062 703.754882812 583.56640625 678.416015625 623.438476562 626.575195312 c 0
 663.62109375 574.33203125 670.795898438 497.3984375 647.95703125 398.473632812 c 2
 624.020507812 294.793945312 l 2
 601.310546875 196.42578125 558.083007812 119.61328125 492.768554688 67.107421875 c 0
 427.963867188 15.01171875 350.212890625 -10.486328125 261.701171875 -10.486328125 c 0
 173.2265625 -10.486328125 107.907226562 14.828125 68.646484375 66.76171875 c 0
 29.142578125 119.01953125 22.3095703125 195.90625 45.1396484375 294.793945312 c 2xf2
298.341796875 131.592773438 m 0
 359.493164062 131.592773438 436.942382812 153.946289062 469.90234375 296.712890625 c 2
 491.84375 391.752929688 l 2
 526.997070312 544.016601562 456.25390625 564.552734375 398.298828125 564.552734375 c 0
 325.737304688 564.552734375 255.736328125 533.36328125 223.04296875 391.752929688 c 2
 201.1015625 296.712890625 l 2
 170.696289062 165.012695312 221.952148438 131.592773438 298.341796875 131.592773438 c 0
290.513671875 866.953125 m 1xe8
 422.033203125 866.953125 l 1
 389.674804688 726.79296875 l 1
 258.155273438 726.79296875 l 1
 290.513671875 866.953125 l 1xe8
511.313476562 866.953125 m 1xe4
 642.833007812 866.953125 l 1
 610.474609375 726.79296875 l 1
 478.955078125 726.79296875 l 1
 511.313476562 866.953125 l 1xe4
EndSplineSet
EndChar

StartChar: multiply
Encoding: 215 215 153
Width: 535
GlyphClass: 2
Flags: W
LayerCount: 2
Fore
SplineSet
235.997070312 186.0703125 m 1
 94.171875 70.8466796875 l 1
 22.78125 165.260742188 l 1
 163.366210938 279.4765625 l 1
 75.72265625 394.676757812 l 1
 190.482421875 487.912109375 l 1
 279.30859375 373.671875 l 1
 420.057617188 488.021484375 l 1
 491.448242188 393.607421875 l 1
 350.915039062 279.43359375 l 1
 438.73046875 165.260742188 l 1
 323.692382812 70.8037109375 l 1
 235.997070312 186.0703125 l 1
EndSplineSet
EndChar

StartChar: Oslash
Encoding: 216 216 154
Width: 675
GlyphClass: 2
Flags: MW
HStem: -10.4873 142.079<282.734 306.916> 564.552 139.202<386.847 414.251>
VStem: 61.5811 155.52 485.901 154.561
LayerCount: 2
Fore
SplineSet
262.66015625 -10.4873046875 m 0
 201.733398438 -10.4873046875 151.918945312 1.37890625 114.0703125 25.810546875 c 1
 73.4501953125 -19.126953125 l 1
 -39.763671875 -19.126953125 l 1
 56.60546875 88.65234375 l 1
 29.48828125 140.981445312 26.564453125 210.176757812 46.099609375 294.79296875 c 2
 70.0361328125 398.47265625 l 2
 92.87890625 497.416015625 135.758789062 574.372070312 200.3984375 626.607421875 c 0
 264.563476562 678.4609375 342.298828125 703.75390625 431.395507812 703.75390625 c 0
 489.98046875 703.75390625 538.584960938 692.692382812 576.5078125 670.000976562 c 1
 617.431640625 715.274414062 l 1
 728.723632812 715.274414062 l 1
 635.235351562 610.704101562 l 1
 665.401367188 558.078125 669.298828125 486.756835938 648.916992188 398.473632812 c 2
 624.98046875 294.79296875 l 2
 602.270507812 196.424804688 559.041992188 119.612304688 493.727539062 67.1064453125 c 0
 428.922851562 15.0107421875 351.171875 -10.4873046875 262.66015625 -10.4873046875 c 0
399.259765625 564.551757812 m 0
 326.698242188 564.551757812 256.697265625 533.362304688 224.00390625 391.751953125 c 2
 202.0625 296.711914062 l 2
 197.323242188 276.18359375 194.506835938 257.805664062 193.509765625 241.603515625 c 1
 467.686523438 547.395507812 l 1
 451.681640625 558.578125 429.2421875 564.551757812 399.259765625 564.551757812 c 0
299.302734375 131.591796875 m 0
 360.454101562 131.591796875 437.90234375 153.9453125 470.86328125 296.711914062 c 2
 492.8046875 391.751953125 l 2
 498.815429688 417.7890625 501.833984375 441.079101562 502.009765625 461.638671875 c 1
 225.305664062 150.479492188 l 1
 241.932617188 138.219726562 266.166015625 131.591796875 299.302734375 131.591796875 c 0
EndSplineSet
EndChar

StartChar: Ugrave
Encoding: 217 217 155
Width: 678
GlyphClass: 2
Flags: MW
HStem: -5.68555 138.237<234.11 321.854 234.11 346.391> 671.273 20G<140.517 295.076 295.076 295.076 550.436 704.995 704.995 704.995>
VStem: 64.4629 154.56 474.382 154.56
LayerCount: 2
Fore
SplineSet
260.889648438 -5.685546875 m 0
 91.89453125 -5.685546875 2.8525390625 94.984375 39.2294921875 252.552734375 c 2
 140.516601562 691.2734375 l 1
 295.076171875 691.2734375 l 1
 194.67578125 256.393554688 l 2
 185.444335938 216.407226562 175.416015625 132.551757812 292.8046875 132.551757812 c 0
 350.90234375 132.551757812 426.326171875 153.698242188 450.03515625 256.393554688 c 2
 550.435546875 691.2734375 l 1
 704.995117188 691.2734375 l 1
 603.708007812 252.552734375 l 2
 567.293945312 94.8271484375 431.892578125 -5.685546875 260.889648438 -5.685546875 c 0
254.271484375 884.234375 m 1
 442.983398438 884.234375 l 1
 548.041992188 727.75390625 l 1
 402.862304688 727.75390625 l 1
 254.271484375 884.234375 l 1
EndSplineSet
EndChar

StartChar: Uacute
Encoding: 218 218 156
Width: 678
GlyphClass: 2
Flags: MW
HStem: -5.68555 138.237<234.11 321.854 234.11 346.391> 671.273 20G<140.517 295.076 295.076 295.076 550.436 704.995 704.995 704.995>
VStem: 64.4629 154.56 474.382 154.56
LayerCount: 2
Fore
SplineSet
260.889648438 -5.685546875 m 0
 91.89453125 -5.685546875 2.8525390625 94.984375 39.2294921875 252.552734375 c 2
 140.516601562 691.2734375 l 1
 295.076171875 691.2734375 l 1
 194.67578125 256.393554688 l 2
 185.444335938 216.407226562 175.416015625 132.551757812 292.8046875 132.551757812 c 0
 350.90234375 132.551757812 426.326171875 153.698242188 450.03515625 256.393554688 c 2
 550.435546875 691.2734375 l 1
 704.995117188 691.2734375 l 1
 603.708007812 252.552734375 l 2
 567.293945312 94.8271484375 431.892578125 -5.685546875 260.889648438 -5.685546875 c 0
494.505859375 884.234375 m 1
 683.216796875 884.234375 l 1
 462.374023438 727.75390625 l 1
 317.194335938 727.75390625 l 1
 494.505859375 884.234375 l 1
EndSplineSet
EndChar

StartChar: Ucircumflex
Encoding: 219 219 157
Width: 678
GlyphClass: 2
Flags: MW
HStem: -5.68555 138.237<234.11 321.854 234.11 346.391> 671.273 20G<140.517 295.076 295.076 295.076 550.436 704.995 704.995 704.995>
VStem: 64.4629 154.56 474.382 154.56
LayerCount: 2
Fore
SplineSet
260.889648438 -5.685546875 m 0
 91.89453125 -5.685546875 2.8525390625 94.984375 39.2294921875 252.552734375 c 2
 140.516601562 691.2734375 l 1
 295.076171875 691.2734375 l 1
 194.67578125 256.393554688 l 2
 185.444335938 216.407226562 175.416015625 132.551757812 292.8046875 132.551757812 c 0
 350.90234375 132.551757812 426.326171875 153.698242188 450.03515625 256.393554688 c 2
 550.435546875 691.2734375 l 1
 704.995117188 691.2734375 l 1
 603.708007812 252.552734375 l 2
 567.293945312 94.8271484375 431.892578125 -5.685546875 260.889648438 -5.685546875 c 0
518.494140625 890.954101562 m 1
 633.727539062 717.194335938 l 1
 495.522460938 717.194335938 l 1
 444.91796875 787.5625 l 1
 360.943359375 717.194335938 l 1
 222.793945312 717.194335938 l 1
 418.2578125 890.954101562 l 1
 518.494140625 890.954101562 l 1
EndSplineSet
EndChar

StartChar: Udieresis
Encoding: 220 220 158
Width: 678
GlyphClass: 2
Flags: MW
HStem: -5.68555 138.237<234.11 321.854 234.11 346.391> 671.273 20G<140.517 295.076 295.076 295.076 550.436 704.995 704.995 704.995> 726.794 140.16<286.675 385.837 254.316 418.195 286.675 475.116 507.475 606.637>
VStem: 64.4629 154.56 170.062 131.521 390.862 131.521 474.382 154.56
LayerCount: 2
Fore
SplineSet
260.889648438 -5.685546875 m 0xf2
 91.89453125 -5.685546875 2.8525390625 94.984375 39.2294921875 252.552734375 c 2
 140.516601562 691.2734375 l 1
 295.076171875 691.2734375 l 1
 194.67578125 256.393554688 l 2
 185.444335938 216.407226562 175.416015625 132.551757812 292.8046875 132.551757812 c 0
 350.90234375 132.551757812 426.326171875 153.698242188 450.03515625 256.393554688 c 2
 550.435546875 691.2734375 l 1
 704.995117188 691.2734375 l 1
 603.708007812 252.552734375 l 2
 567.293945312 94.8271484375 431.892578125 -5.685546875 260.889648438 -5.685546875 c 0xf2
286.674804688 866.954101562 m 1xe8
 418.1953125 866.954101562 l 1
 385.836914062 726.793945312 l 1
 254.31640625 726.793945312 l 1
 286.674804688 866.954101562 l 1xe8
507.474609375 866.954101562 m 1xe4
 638.995117188 866.954101562 l 1
 606.63671875 726.793945312 l 1
 475.116210938 726.793945312 l 1
 507.474609375 866.954101562 l 1xe4
EndSplineSet
EndChar

StartChar: Yacute
Encoding: 221 221 159
Width: 611
GlyphClass: 2
Flags: MW
HStem: 0.0742188 21G<153.739 308.3 153.739 153.739> 671.274 20G<77.1416 252.894 252.894 252.894 527.338 703.066 703.066 703.066>
VStem: 237.262 154.561
LayerCount: 2
Fore
SplineSet
527.337890625 691.274414062 m 1
 703.06640625 691.274414062 l 1
 373.8984375 284.212890625 l 1
 308.299804688 0.07421875 l 1
 153.739257812 0.07421875 l 1
 219.115234375 283.247070312 l 1
 77.1416015625 691.274414062 l 1
 252.893554688 691.274414062 l 1
 329.880859375 430.37109375 l 1
 527.337890625 691.274414062 l 1
461.864257812 884.234375 m 1
 650.576171875 884.234375 l 1
 429.733398438 727.75390625 l 1
 284.553710938 727.75390625 l 1
 461.864257812 884.234375 l 1
EndSplineSet
EndChar

StartChar: Thorn
Encoding: 222 222 160
Width: 631
GlyphClass: 2
Flags: MW
HStem: 0.0742188 21G<-19.0605 135.499 -19.0605 -19.0605> 143.114 138.24<200.438 309.643 168.522 351.158> 443.594 138.24<269.809 388.614 237.894 415.729> 671.274 20G<140.516 295.075 295.075 295.075>
VStem: 64.4619 154.56 461.901 154.561
LayerCount: 2
Fore
SplineSet
616.051757812 360.07421875 m 0
 600.528320312 292.83203125 565.479492188 238.362304688 511.071289062 199.803710938 c 0
 456.779296875 161.327148438 389.182617188 143.114257812 309.642578125 143.114257812 c 2
 168.522460938 143.114257812 l 1
 135.499023438 0.07421875 l 1
 -19.060546875 0.07421875 l 1
 140.515625 691.274414062 l 1
 295.075195312 691.274414062 l 1
 269.80859375 581.833984375 l 1
 415.728515625 581.833984375 l 2
 492.198242188 581.833984375 549.760742188 563.509765625 586.181640625 525.14453125 c 0
 622.93359375 486.430664062 632.265625 430.301757812 616.051757812 360.07421875 c 0
351.158203125 281.354492188 m 2
 429.544921875 281.354492188 452.6015625 321.56640625 461.712890625 361.034179688 c 0
 467.40625 385.6953125 477.411132812 443.59375 388.614257812 443.59375 c 2
 237.893554688 443.59375 l 1
 200.4375 281.354492188 l 1
 351.158203125 281.354492188 l 2
EndSplineSet
EndChar

StartChar: germandbls
Encoding: 223 223 161
Width: 582
GlyphClass: 2
Flags: MW
HStem: -3.76562 128.64<220.952 249.812 191.253 269.912> 347.594 127.681<301.849 311.73 272.371 349.849> 570.315 130.56<332.842 395.25>
VStem: 59.6621 147.84 390.862 146.88 400.462 146.88
LayerCount: 2
Fore
SplineSet
518.120117188 235.275390625 m 0xf4
 478.7421875 64.7119140625 406.604492188 -3.765625 249.8125 -3.765625 c 2
 191.252929688 -3.765625 l 1
 220.952148438 124.874023438 l 1
 269.912109375 124.874023438 l 2
 319.197265625 124.874023438 336.317382812 140.983398438 348.244140625 164.666992188 c 0
 356.0703125 180.208984375 364.021484375 204.009765625 371.239257812 235.2734375 c 0xf4
 389.423828125 314.0390625 376.323242188 328.8359375 364.024414062 337.036132812 c 0
 354.4296875 343.43359375 337.208007812 347.59375 311.73046875 347.59375 c 2
 272.37109375 347.59375 l 1
 301.848632812 475.274414062 l 1
 349.848632812 475.274414062 l 2
 415.623046875 475.274414062 424.266601562 506.541992188 427.686523438 521.354492188 c 0
 431.1484375 536.34765625 438.870117188 570.315429688 351.629882812 570.315429688 c 0
 314.0546875 570.315429688 287.724609375 563.138671875 272.106445312 552.426757812 c 0
 257.076171875 542.119140625 244.903320312 523.853515625 237.899414062 493.514648438 c 2
 123.979492188 0.0751953125 l 1
 -23.8603515625 0.0751953125 l 1
 87.62109375 482.955078125 l 2
 131.20703125 671.744140625 272.426757812 700.875 380.8125 700.875 c 0
 453.577148438 700.875 508.084960938 687.103515625 542.811523438 657.400390625 c 0
 577.872070312 627.411132812 588.818359375 583.084960938 576.118164062 528.075195312 c 0xf8
 561.6484375 465.401367188 527.756835938 434.219726562 497.658203125 415.807617188 c 1
 532.532226562 386.12109375 542.694335938 341.720703125 518.120117188 235.275390625 c 0xf4
EndSplineSet
EndChar

StartChar: agrave
Encoding: 224 224 162
Width: 559
GlyphClass: 2
Flags: MW
HStem: -5.68555 123.839<186.116 188.34> 213.193 110.4<195.605 359.95 240.91 334.461> 413.834 120<287.485 329.75>
VStem: 43.3418 143.999 368.781 146.88
LayerCount: 2
Fore
SplineSet
289.583007812 413.833984375 m 0
 273.025390625 413.833984375 212.688476562 413.421875 201.923828125 366.793945312 c 2
 197.934570312 349.513671875 l 1
 55.8544921875 349.513671875 l 1
 59.84375 366.793945312 l 2
 71.7294921875 418.27734375 102.58203125 460.501953125 150.463867188 490.291992188 c 0
 197.9453125 519.83203125 254.801757812 533.833984375 320.16796875 533.833984375 c 0
 393.259765625 533.833984375 447.711914062 517.421875 481.243164062 482.462890625 c 0
 514.963867188 447.305664062 523.647460938 396.44140625 509.044921875 333.193359375 c 2
 432.138671875 0.0732421875 l 1
 288.138671875 0.0732421875 l 1
 295.10546875 30.2529296875 l 1
 260.692382812 9.4248046875 220.430664062 -5.685546875 156.249023438 -5.685546875 c 0
 94.083984375 -5.685546875 47.888671875 8.1201171875 20.1494140625 38.1455078125 c 0
 -7.580078125 68.1591796875 -14.5908203125 110.915039062 -2.5029296875 163.274414062 c 0
 10.712890625 220.520507812 59.673828125 323.59375 240.91015625 323.59375 c 2
 359.950195312 323.59375 l 1
 363.49609375 338.954101562 l 2
 371.3671875 373.048828125 369.91796875 413.833984375 289.583007812 413.833984375 c 0
210.758789062 118.153320312 m 0
 302.90234375 118.153320312 323.134765625 164.131835938 330.693359375 196.873046875 c 2
 334.4609375 213.193359375 l 1
 237.500976562 213.193359375 l 2
 153.709960938 213.193359375 145.734375 181.631835938 142.161132812 166.153320312 c 0
 134.275390625 131.999023438 161.473632812 118.153320312 210.758789062 118.153320312 c 0
149.391601562 721.033203125 m 1
 338.103515625 721.033203125 l 1
 443.162109375 564.552734375 l 1
 297.983398438 564.552734375 l 1
 149.391601562 721.033203125 l 1
EndSplineSet
EndChar

StartChar: aacute
Encoding: 225 225 163
Width: 559
GlyphClass: 2
Flags: MW
HStem: -5.68555 123.839<186.116 188.34> 213.193 110.4<195.605 359.95 240.91 334.461> 413.834 120<287.485 329.75>
VStem: 43.3418 143.999 368.781 146.88
LayerCount: 2
Fore
SplineSet
289.583007812 413.833984375 m 0
 273.025390625 413.833984375 212.688476562 413.421875 201.923828125 366.793945312 c 2
 197.934570312 349.513671875 l 1
 55.8544921875 349.513671875 l 1
 59.84375 366.793945312 l 2
 71.7294921875 418.27734375 102.58203125 460.501953125 150.463867188 490.291992188 c 0
 197.9453125 519.83203125 254.801757812 533.833984375 320.16796875 533.833984375 c 0
 393.259765625 533.833984375 447.711914062 517.421875 481.243164062 482.462890625 c 0
 514.963867188 447.305664062 523.647460938 396.44140625 509.044921875 333.193359375 c 2
 432.138671875 0.0732421875 l 1
 288.138671875 0.0732421875 l 1
 295.10546875 30.2529296875 l 1
 260.692382812 9.4248046875 220.430664062 -5.685546875 156.249023438 -5.685546875 c 0
 94.083984375 -5.685546875 47.888671875 8.1201171875 20.1494140625 38.1455078125 c 0
 -7.580078125 68.1591796875 -14.5908203125 110.915039062 -2.5029296875 163.274414062 c 0
 10.712890625 220.520507812 59.673828125 323.59375 240.91015625 323.59375 c 2
 359.950195312 323.59375 l 1
 363.49609375 338.954101562 l 2
 371.3671875 373.048828125 369.91796875 413.833984375 289.583007812 413.833984375 c 0
210.758789062 118.153320312 m 0
 302.90234375 118.153320312 323.134765625 164.131835938 330.693359375 196.873046875 c 2
 334.4609375 213.193359375 l 1
 237.500976562 213.193359375 l 2
 153.709960938 213.193359375 145.734375 181.631835938 142.161132812 166.153320312 c 0
 134.275390625 131.999023438 161.473632812 118.153320312 210.758789062 118.153320312 c 0
364.666015625 721.033203125 m 1
 553.376953125 721.033203125 l 1
 332.534179688 564.552734375 l 1
 187.354492188 564.552734375 l 1
 364.666015625 721.033203125 l 1
EndSplineSet
EndChar

StartChar: acircumflex
Encoding: 226 226 164
Width: 559
GlyphClass: 2
Flags: MW
HStem: -5.68555 123.839<186.116 188.34> 213.193 110.4<195.605 359.95 240.91 334.461> 413.834 120<287.485 329.75>
VStem: 43.3418 143.999 368.781 146.88
LayerCount: 2
Fore
SplineSet
289.583007812 413.833984375 m 0
 273.025390625 413.833984375 212.688476562 413.421875 201.923828125 366.793945312 c 2
 197.934570312 349.513671875 l 1
 55.8544921875 349.513671875 l 1
 59.84375 366.793945312 l 2
 71.7294921875 418.27734375 102.58203125 460.501953125 150.463867188 490.291992188 c 0
 197.9453125 519.83203125 254.801757812 533.833984375 320.16796875 533.833984375 c 0
 393.259765625 533.833984375 447.711914062 517.421875 481.243164062 482.462890625 c 0
 514.963867188 447.305664062 523.647460938 396.44140625 509.044921875 333.193359375 c 2
 432.138671875 0.0732421875 l 1
 288.138671875 0.0732421875 l 1
 295.10546875 30.2529296875 l 1
 260.692382812 9.4248046875 220.430664062 -5.685546875 156.249023438 -5.685546875 c 0
 94.083984375 -5.685546875 47.888671875 8.1201171875 20.1494140625 38.1455078125 c 0
 -7.580078125 68.1591796875 -14.5908203125 110.915039062 -2.5029296875 163.274414062 c 0
 10.712890625 220.520507812 59.673828125 323.59375 240.91015625 323.59375 c 2
 359.950195312 323.59375 l 1
 363.49609375 338.954101562 l 2
 371.3671875 373.048828125 369.91796875 413.833984375 289.583007812 413.833984375 c 0
210.758789062 118.153320312 m 0
 302.90234375 118.153320312 323.134765625 164.131835938 330.693359375 196.873046875 c 2
 334.4609375 213.193359375 l 1
 237.500976562 213.193359375 l 2
 153.709960938 213.193359375 145.734375 181.631835938 142.161132812 166.153320312 c 0
 134.275390625 131.999023438 161.473632812 118.153320312 210.758789062 118.153320312 c 0
313.377929688 727.752929688 m 1
 413.614257812 727.752929688 l 1
 528.846679688 553.993164062 l 1
 390.641601562 553.993164062 l 1
 340.038085938 624.361328125 l 1
 256.0625 553.993164062 l 1
 117.9140625 553.993164062 l 1
 313.377929688 727.752929688 l 1
EndSplineSet
EndChar

StartChar: atilde
Encoding: 227 227 165
Width: 559
GlyphClass: 2
Flags: MW
HStem: -5.68555 123.839<186.116 188.34> 213.193 110.4<195.605 359.95 240.91 334.461> 413.834 120<287.485 329.75> 559.753 119.04<401.246 414.503> 596.234 119.039<248.39 328.874>
VStem: 43.3418 143.999 368.781 146.88
LayerCount: 2
Fore
SplineSet
289.583007812 413.833984375 m 0xe6
 273.025390625 413.833984375 212.688476562 413.421875 201.923828125 366.793945312 c 2
 197.934570312 349.513671875 l 1
 55.8544921875 349.513671875 l 1
 59.84375 366.793945312 l 2
 71.7294921875 418.27734375 102.58203125 460.501953125 150.463867188 490.291992188 c 0
 197.9453125 519.83203125 254.801757812 533.833984375 320.16796875 533.833984375 c 0
 393.259765625 533.833984375 447.711914062 517.421875 481.243164062 482.462890625 c 0
 514.963867188 447.305664062 523.647460938 396.44140625 509.044921875 333.193359375 c 2
 432.138671875 0.0732421875 l 1
 288.138671875 0.0732421875 l 1
 295.10546875 30.2529296875 l 1
 260.692382812 9.4248046875 220.430664062 -5.685546875 156.249023438 -5.685546875 c 0
 94.083984375 -5.685546875 47.888671875 8.1201171875 20.1494140625 38.1455078125 c 0
 -7.580078125 68.1591796875 -14.5908203125 110.915039062 -2.5029296875 163.274414062 c 0
 10.712890625 220.520507812 59.673828125 323.59375 240.91015625 323.59375 c 2
 359.950195312 323.59375 l 1
 363.49609375 338.954101562 l 2
 371.3671875 373.048828125 369.91796875 413.833984375 289.583007812 413.833984375 c 0xe6
210.758789062 118.153320312 m 0
 302.90234375 118.153320312 323.134765625 164.131835938 330.693359375 196.873046875 c 2
 334.4609375 213.193359375 l 1
 237.500976562 213.193359375 l 2
 153.709960938 213.193359375 145.734375 181.631835938 142.161132812 166.153320312 c 0
 134.275390625 131.999023438 161.473632812 118.153320312 210.758789062 118.153320312 c 0
295.814453125 715.2734375 m 0xee
 361.93359375 715.2734375 377.819335938 678.79296875 424.672851562 678.79296875 c 0
 451.881835938 678.79296875 466.294921875 688.455078125 532.1328125 732.58984375 c 1
 503.446289062 608.333007812 l 1
 470.321289062 582.333984375 438.53515625 559.752929688 390.470703125 559.752929688 c 0xf6
 362.422851562 559.752929688 350.725585938 563.646484375 300.004882812 587.295898438 c 0
 291.514648438 591.299804688 278.705078125 596.234375 262.573242188 596.234375 c 0
 234.206054688 596.234375 216.751953125 584.965820312 153.598632812 544.196289062 c 1
 181.879882812 666.694335938 l 1
 216.70703125 694.0234375 247.459960938 715.2734375 295.814453125 715.2734375 c 0xee
EndSplineSet
EndChar

StartChar: adieresis
Encoding: 228 228 166
Width: 559
GlyphClass: 2
Flags: MW
HStem: -5.68555 123.839<186.116 188.34> 213.193 110.4<195.605 359.95 240.91 334.461> 413.834 120<287.485 329.75> 563.593 140.16<181.796 280.957 149.438 313.315 181.796 370.237 402.596 501.757>
VStem: 43.3418 143.999 102.861 131.52 323.661 131.52 368.781 146.88
LayerCount: 2
Fore
SplineSet
289.583007812 413.833984375 m 0xf9
 273.025390625 413.833984375 212.688476562 413.421875 201.923828125 366.793945312 c 2
 197.934570312 349.513671875 l 1
 55.8544921875 349.513671875 l 1
 59.84375 366.793945312 l 2
 71.7294921875 418.27734375 102.58203125 460.501953125 150.463867188 490.291992188 c 0
 197.9453125 519.83203125 254.801757812 533.833984375 320.16796875 533.833984375 c 0
 393.259765625 533.833984375 447.711914062 517.421875 481.243164062 482.462890625 c 0
 514.963867188 447.305664062 523.647460938 396.44140625 509.044921875 333.193359375 c 2
 432.138671875 0.0732421875 l 1
 288.138671875 0.0732421875 l 1
 295.10546875 30.2529296875 l 1
 260.692382812 9.4248046875 220.430664062 -5.685546875 156.249023438 -5.685546875 c 0
 94.083984375 -5.685546875 47.888671875 8.1201171875 20.1494140625 38.1455078125 c 0
 -7.580078125 68.1591796875 -14.5908203125 110.915039062 -2.5029296875 163.274414062 c 0
 10.712890625 220.520507812 59.673828125 323.59375 240.91015625 323.59375 c 2
 359.950195312 323.59375 l 1
 363.49609375 338.954101562 l 2
 371.3671875 373.048828125 369.91796875 413.833984375 289.583007812 413.833984375 c 0xf9
210.758789062 118.153320312 m 0
 302.90234375 118.153320312 323.134765625 164.131835938 330.693359375 196.873046875 c 2
 334.4609375 213.193359375 l 1
 237.500976562 213.193359375 l 2
 153.709960938 213.193359375 145.734375 181.631835938 142.161132812 166.153320312 c 0
 134.275390625 131.999023438 161.473632812 118.153320312 210.758789062 118.153320312 c 0
181.795898438 703.752929688 m 1xf4
 313.315429688 703.752929688 l 1
 280.95703125 563.592773438 l 1
 149.4375 563.592773438 l 1
 181.795898438 703.752929688 l 1xf4
402.595703125 703.752929688 m 1xf2
 534.115234375 703.752929688 l 1
 501.756835938 563.592773438 l 1
 370.237304688 563.592773438 l 1
 402.595703125 703.752929688 l 1xf2
EndSplineSet
EndChar

StartChar: aring
Encoding: 229 229 167
Width: 559
GlyphClass: 2
Flags: MW
HStem: -5.68555 123.839<186.116 188.34> 213.193 110.4<195.605 359.95 240.91 334.461> 413.834 120<287.485 329.75> 543.433 81.6006<336.065 337.19> 689.353 81.6006<358.183 359.736>
VStem: 43.3418 143.999 166.221 83.5205 310.221 82.5605 368.781 146.88
LayerCount: 2
Fore
SplineSet
289.583007812 413.833984375 m 0xfc80
 273.025390625 413.833984375 212.688476562 413.421875 201.923828125 366.793945312 c 2
 197.934570312 349.513671875 l 1
 55.8544921875 349.513671875 l 1
 59.84375 366.793945312 l 2
 71.7294921875 418.27734375 102.58203125 460.501953125 150.463867188 490.291992188 c 0
 197.9453125 519.83203125 254.801757812 533.833984375 320.16796875 533.833984375 c 0
 393.259765625 533.833984375 447.711914062 517.421875 481.243164062 482.462890625 c 0
 514.963867188 447.305664062 523.647460938 396.44140625 509.044921875 333.193359375 c 2
 432.138671875 0.0732421875 l 1
 288.138671875 0.0732421875 l 1
 295.10546875 30.2529296875 l 1
 260.692382812 9.4248046875 220.430664062 -5.685546875 156.249023438 -5.685546875 c 0
 94.083984375 -5.685546875 47.888671875 8.1201171875 20.1494140625 38.1455078125 c 0
 -7.580078125 68.1591796875 -14.5908203125 110.915039062 -2.5029296875 163.274414062 c 0
 10.712890625 220.520507812 59.673828125 323.59375 240.91015625 323.59375 c 2
 359.950195312 323.59375 l 1
 363.49609375 338.954101562 l 2
 371.3671875 373.048828125 369.91796875 413.833984375 289.583007812 413.833984375 c 0xfc80
210.758789062 118.153320312 m 0
 302.90234375 118.153320312 323.134765625 164.131835938 330.693359375 196.873046875 c 2
 334.4609375 213.193359375 l 1
 237.500976562 213.193359375 l 2
 153.709960938 213.193359375 145.734375 181.631835938 142.161132812 166.153320312 c 0
 134.275390625 131.999023438 161.473632812 118.153320312 210.758789062 118.153320312 c 0
234.294921875 656.712890625 m 0xfb
 241.702148438 688.797851562 259.0390625 716.754882812 285.697265625 738.413085938 c 0
 312.272460938 760.00390625 342.415039062 770.953125 373.950195312 770.953125 c 0
 405.485351562 770.953125 430.571289062 760.00390625 447.177734375 738.413085938 c 0
 463.8359375 716.754882812 468.262695312 688.797851562 460.85546875 656.712890625 c 0
 453.575195312 625.177734375 436.250976562 597.563476562 409.67578125 575.97265625 c 0
 383.099609375 554.381835938 352.958007812 543.432617188 321.422851562 543.432617188 c 0
 289.887695312 543.432617188 264.80078125 554.381835938 248.1953125 575.97265625 c 0
 231.588867188 597.563476562 227.014648438 625.177734375 234.294921875 656.712890625 c 0xfb
378.294921875 656.711914062 m 0
 380.65625 666.938476562 379.362304688 674.127929688 374.8203125 680.319335938 c 0
 370.260742188 686.537109375 364.360351562 689.352539062 355.111328125 689.352539062 c 0
 345.861328125 689.352539062 338.956054688 686.565429688 331.943359375 680.518554688 c 0
 324.803710938 674.361328125 320.208007812 667.076171875 317.815429688 656.711914062 c 0
 315.645507812 647.311523438 316.86328125 640.3984375 321.509765625 634.068359375 c 0
 326.185546875 627.692382812 331.869140625 625.033203125 340.26171875 625.033203125 c 0
 349.510742188 625.033203125 356.7109375 627.84765625 364.141601562 634.065429688 c 0
 371.71484375 640.40234375 376.125976562 647.317382812 378.294921875 656.711914062 c 0
EndSplineSet
EndChar

StartChar: ae
Encoding: 230 230 168
Width: 895
GlyphClass: 2
Flags: MW
HStem: -8.56641 126.719<171.183 211.44> 215.112 110.399<508.646 536.756> 406.152 130.562<621.19 639.558> 413.834 120<287.485 329.75>
VStem: 43.3418 144 368.782 147.373
LayerCount: 2
Fore
SplineSet
289.583007812 413.833984375 m 0xdc
 273.025390625 413.833984375 212.688476562 413.421875 201.923828125 366.793945312 c 2
 197.934570312 349.513671875 l 1
 55.8544921875 349.513671875 l 1
 59.84375 366.793945312 l 2
 71.7294921875 418.27734375 102.58203125 460.501953125 150.463867188 490.291992188 c 0
 197.9453125 519.83203125 254.801757812 533.833984375 320.16796875 533.833984375 c 0xdc
 390.858398438 533.833984375 444.124023438 517.76171875 477.654296875 483.846679688 c 1
 529.153320312 519.313476562 588.427734375 536.713867188 653.952148438 536.713867188 c 0xec
 727.75 536.713867188 783.024414062 515.370117188 817.053710938 471.57421875 c 0
 851.2578125 427.5546875 858.19140625 365.184570312 840.16796875 287.114257812 c 2
 823.544921875 215.114257812 l 1
 809.14453125 215.114257812 l 2
 700.189453125 215.114257812 591.234375 215.112304688 482.278320312 215.112304688 c 1
 473.776367188 161.807617188 491.043945312 123.912109375 568.249023438 123.912109375 c 0
 600.983398438 123.912109375 647.922851562 131.40234375 664.1328125 171.59765625 c 1
 671.891601562 185.352539062 l 1
 815.434570312 185.352539062 l 1
 806.75390625 163.516601562 l 1
 780.184570312 74.603515625 687.046875 -8.56640625 537.6640625 -8.56640625 c 0
 463.821289062 -8.56640625 407.719726562 11.9267578125 371.692382812 53.748046875 c 1
 316.978515625 11.7529296875 250.016601562 -8.56640625 172.864257812 -8.56640625 c 0
 106.829101562 -8.56640625 57.1826171875 6.076171875 26.0576171875 37.3955078125 c 0
 -5.0673828125 68.712890625 -14.2646484375 112.329101562 -2.0595703125 165.194335938 c 0
 12.27734375 227.296875 63.1259765625 325.513671875 241.353515625 325.513671875 c 2
 360.393554688 325.513671875 l 1
 363.49609375 338.954101562 l 2
 371.3671875 373.048828125 369.91796875 413.833984375 289.583007812 413.833984375 c 0xdc
623.809570312 406.15234375 m 0xec
 568.109375 406.15234375 529.609375 382.84765625 508.646484375 325.51171875 c 1
 702.000976562 325.51171875 l 1
 706.938476562 352.23046875 702.499023438 370.74609375 690.380859375 383.6953125 c 0
 676.776367188 398.235351562 655.305664062 406.15234375 623.809570312 406.15234375 c 0xec
210.759765625 118.15234375 m 0
 294.432617188 118.15234375 321.615234375 157.546875 331.359375 199.751953125 c 2
 334.905273438 215.112304688 l 1
 237.9453125 215.112304688 l 2
 205.249023438 215.112304688 181.565429688 210.112304688 167.604492188 202.754882812 c 0
 154.642578125 195.923828125 146.803710938 186.26171875 142.826171875 169.032226562 c 0
 139.485351562 154.5625 131.606445312 118.15234375 210.759765625 118.15234375 c 0
EndSplineSet
EndChar

